<svg id="eGTLSFNuO8A1" xmlns="http://www.w3.org/2000/svg" xmlns:xlink="http://www.w3.org/1999/xlink" viewBox="0 0 150 150" shape-rendering="geometricPrecision" text-rendering="geometricPrecision"><style><![CDATA[#eGTLSFNuO8A72_to {animation: eGTLSFNuO8A72_to__to 3000ms linear infinite normal forwards}@keyframes eGTLSFNuO8A72_to__to { 0% {transform: translate(66.5px,105.1px)} 33.333333% {transform: translate(66.5px,55px)} 100% {transform: translate(66.5px,55px)}} #eGTLSFNuO8A81_to {animation: eGTLSFNuO8A81_to__to 3000ms linear infinite normal forwards}@keyframes eGTLSFNuO8A81_to__to { 0% {transform: translate(69.3px,138.85px)} 33.333333% {transform: translate(69.3px,90.45px)} 50% {transform: translate(69.3px,90.45px)} 100% {transform: translate(69.3px,90.45px)}} #eGTLSFNuO8A82 {animation-name: eGTLSFNuO8A82__tt, eGTLSFNuO8A82_c_o;animation-duration: 3000ms;animation-fill-mode: forwards;animation-timing-function: linear;animation-direction: normal;animation-iteration-count: infinite;}@keyframes eGTLSFNuO8A82__tt { 0% {transform: translate(90.520001px,103.441629px) scale(0.916279,0.916279) translate(-30.950003px,-28.350002px)} 33.666667% {transform: translate(90.520001px,103.441629px) scale(0.916279,0.916279) translate(-30.950003px,-28.350002px)} 66.666667% {transform: translate(90.520001px,103.441629px) scale(0.916279,0.916279) translate(-30.950003px,2px)} 100% {transform: translate(90.520001px,103.441629px) scale(0.916279,0.916279) translate(-30.950003px,2px)}}@keyframes eGTLSFNuO8A82_c_o { 0% {opacity: 0} 30% {opacity: 0} 33.333333% {opacity: 1} 73.333333% {opacity: 0} 100% {opacity: 0}}]]></style><g id="eGTLSFNuO8A2"><g id="eGTLSFNuO8A3"><g id="eGTLSFNuO8A4"><path id="eGTLSFNuO8A5" d="M17.7,61.7L116.4,61.7L116.4,138.9L17.7,138.9L17.7,61.7Z" fill="rgb(193,200,209)" stroke="none" stroke-width="1"/><path id="eGTLSFNuO8A6" d="M17.7,61.7L116.4,61.7C104.1,48.5,86.5,40.2,67,40.2C47.5,40.2,30.1,48.5,17.7,61.7Z" fill="rgb(136,146,160)" stroke="none" stroke-width="1"/><path id="eGTLSFNuO8A7" d="M34.2,79.7L100,79.7L100,138.9L34.2,138.9L34.2,79.7Z" fill="rgb(210,248,252)" stroke="none" stroke-width="1"/><path id="eGTLSFNuO8A8" d="M34.2,119.2L53.9,119.2L53.9,138.9L34.2,138.9L34.2,119.2Z" fill="rgb(221,179,122)" stroke="none" stroke-width="1"/><path id="eGTLSFNuO8A9" d="M103.3,78L30.9,78L30.9,71.4C30.9,69.6,32.4,68.1,34.2,68.1L100,68.1C101.8,68.1,103.3,69.6,103.3,71.4L103.3,78Z" fill="rgb(36,50,66)" stroke="none" stroke-width="1"/><g id="eGTLSFNuO8A10"><path id="eGTLSFNuO8A11" d="M50.7,53.4L83.6,53.4L83.6,56.7L50.7,56.7L50.7,53.4Z" fill="rgb(168,176,188)" stroke="none" stroke-width="1"/></g><g id="eGTLSFNuO8A12"><path id="eGTLSFNuO8A13" d="M50.7,46.8L83.6,46.8L83.6,50.1L50.7,50.1L50.7,46.8Z" fill="rgb(168,176,188)" stroke="none" stroke-width="1"/></g><path id="eGTLSFNuO8A14" d="M34.2,99.4L53.9,99.4L53.9,119.1L34.2,119.1L34.2,99.4Z" fill="rgb(221,179,122)" stroke="none" stroke-width="1"/><path id="eGTLSFNuO8A15" d="M40.8,99.4L40.8,106L47.4,106L47.4,99.4" fill="rgb(247,216,129)" stroke="none" stroke-width="1"/><path id="eGTLSFNuO8A16" d="M40.8,119.2L40.8,125.8L47.4,125.8L47.4,119.2" fill="rgb(247,216,129)" stroke="none" stroke-width="1"/><path id="eGTLSFNuO8A17" d="M53.9,119.2L73.6,119.2L73.6,138.9L53.9,138.9L53.9,119.2Z" fill="rgb(221,179,122)" stroke="none" stroke-width="1"/><path id="eGTLSFNuO8A18" d="M60.5,119.2L60.5,125.8L67.1,125.8L67.1,119.2" fill="rgb(247,216,129)" stroke="none" stroke-width="1"/><g id="eGTLSFNuO8A19"><path id="eGTLSFNuO8A20" d="M24.3,94.5L27.6,94.5L27.6,97.8L24.3,97.8L24.3,94.5Z" fill="rgb(117,129,144)" stroke="none" stroke-width="1"/></g><g id="eGTLSFNuO8A21"><path id="eGTLSFNuO8A22" d="M24.3,101.1L27.6,101.1L27.6,104.4L24.3,104.4L24.3,101.1Z" fill="rgb(117,129,144)" stroke="none" stroke-width="1"/></g><g id="eGTLSFNuO8A23"><path id="eGTLSFNuO8A24" d="M24.3,107.6L27.6,107.6L27.6,110.9L24.3,110.9L24.3,107.6Z" fill="rgb(117,129,144)" stroke="none" stroke-width="1"/></g><path id="eGTLSFNuO8A25" d="M50.7,53.4L83.6,53.4L83.6,56.7L50.7,56.7L50.7,53.4Z" fill="rgb(0,0,0)" stroke="none" stroke-width="1"/><path id="eGTLSFNuO8A26" d="M50.7,46.8L83.6,46.8L83.6,50.1L50.7,50.1L50.7,46.8Z" fill="rgb(0,0,0)" stroke="none" stroke-width="1"/><path id="eGTLSFNuO8A27" d="M24.3,94.5L27.6,94.5L27.6,97.8L24.3,97.8L24.3,94.5Z" fill="rgb(0,0,0)" stroke="none" stroke-width="1"/><path id="eGTLSFNuO8A28" d="M24.3,101.1L27.6,101.1L27.6,104.4L24.3,104.4L24.3,101.1Z" fill="rgb(0,0,0)" stroke="none" stroke-width="1"/><path id="eGTLSFNuO8A29" d="M24.3,107.6L27.6,107.6L27.6,110.9L24.3,110.9L24.3,107.6Z" fill="rgb(0,0,0)" stroke="none" stroke-width="1"/></g><g id="eGTLSFNuO8A30"><g id="eGTLSFNuO8A31"><path id="eGTLSFNuO8A32" d="M62.9,30.9L62.9,28.3L67.9,28.3L67.9,30.9L62.9,30.9Z" fill="rgb(0,0,0)" stroke="none" stroke-width="1"/><path id="eGTLSFNuO8A33" d="M75.4,34.5L72.8,34.5L72.8,24.9C71.9,25.8,70.8,26.4,69.5,26.8L69.5,24.5C70.2,24.3,70.9,23.9,71.7,23.3C72.5,22.7,73,22,73.3,21.2L75.4,21.2C75.4,21.2,75.4,34.5,75.4,34.5Z" fill="rgb(0,0,0)" stroke="none" stroke-width="1"/><path id="eGTLSFNuO8A34" d="M81.5,27.3C80.8,27,80.4,26.6,80.1,26.1C79.8,25.6,79.6,25.1,79.6,24.5C79.6,23.5,79.9,22.7,80.6,22C81.3,21.4,82.3,21,83.6,21C84.9,21,85.8,21.3,86.6,22C87.3,22.6,87.7,23.5,87.7,24.5C87.7,25.1,87.5,25.7,87.2,26.2C86.9,26.7,86.4,27.1,85.8,27.3C86.5,27.6,87.1,28,87.5,28.6C87.9,29.2,88.1,29.8,88.1,30.6C88.1,31.8,87.7,32.8,86.9,33.6C86.1,34.4,85.1,34.8,83.8,34.8C82.6,34.8,81.6,34.5,80.8,33.8C79.8,33,79.4,32,79.4,30.7C79.4,30,79.6,29.3,79.9,28.7C80.1,28.1,80.7,27.6,81.5,27.3ZM81.7,30.4C81.7,31.1,81.9,31.7,82.2,32C82.6,32.4,83,32.6,83.6,32.6C84.1,32.6,84.6,32.4,84.9,32C85.2,31.6,85.4,31.1,85.4,30.4C85.4,29.8,85.2,29.3,84.9,28.9C84.6,28.5,84.1,28.3,83.6,28.3C83,28.3,82.5,28.5,82.2,28.9C81.9,29.5,81.7,29.9,81.7,30.4ZM82,24.7C82,25.2,82.1,25.6,82.4,25.9C82.7,26.2,83.1,26.3,83.6,26.3C84.1,26.3,84.5,26.2,84.8,25.9C85.1,25.6,85.2,25.2,85.2,24.7C85.2,24.2,85.1,23.8,84.8,23.5C84.5,23.2,84.1,23.1,83.7,23.1C83.2,23.1,82.8,23.2,82.5,23.5C82.2,23.8,82,24.2,82,24.7Z" fill="rgb(0,0,0)" stroke="none" stroke-width="1"/></g><path id="eGTLSFNuO8A35" d="M94.4,17.6C92.5,17.6,91,19.1,91,21C91,22.9,92.5,24.4,94.4,24.4C96.3,24.4,97.8,22.9,97.8,21C97.7,19.1,96.2,17.6,94.4,17.6ZM94.4,21.9C93.9,21.9,93.5,21.5,93.5,21C93.5,20.5,93.9,20.1,94.4,20.1C94.9,20.1,95.3,20.5,95.3,21C95.3,21.5,94.9,21.9,94.4,21.9Z" fill="rgb(0,0,0)" stroke="none" stroke-width="1"/><path id="eGTLSFNuO8A36" d="M106.8,31C106.3,30.6,105.5,30.6,105.1,31.2C103.4,33.2,100.1,32,100.1,29.4L100.1,25.8C100.1,23.2,103.4,22,105.1,24C105.5,24.5,106.3,24.6,106.8,24.2C107.3,23.8,107.4,23,107,22.5C106,21.3,104.5,20.6,102.9,20.6C100,20.6,97.6,23,97.6,25.9L97.6,29.5C97.6,32.4,100,34.8,102.9,34.8C104.5,34.8,106,34.1,107,32.9C107.4,32.2,107.3,31.4,106.8,31Z" fill="rgb(0,0,0)" stroke="none" stroke-width="1"/></g><g id="eGTLSFNuO8A37" transform="matrix(1 0 0 1 0 -280.067)"><path id="eGTLSFNuO8A38" d="M125.9,290.2C127.9,290.2,129.6,291.8,129.6,293.9L129.6,315.8C129.6,316,129.7,316.3,129.9,316.4C131.9,317.8,133.2,320,133.2,322.4C133.2,326.4,129.9,329.7,125.9,329.7C121.9,329.7,118.6,326.4,118.6,322.4L118.6,322.4C118.6,320,119.9,317.8,121.9,316.4C122.1,316.3,122.2,316,122.2,315.8L122.2,293.9C122.2,291.9,123.8,290.2,125.9,290.2L125.9,290.2Z" fill="rgb(233,233,255)" stroke="none" stroke-width="1"/><path id="eGTLSFNuO8A39" d="M125.9,319.5C124.3,319.5,123,320.8,123,322.4C123,324,124.3,325.3,125.9,325.3C127.5,325.3,128.8,324,128.8,322.4C128.8,320.8,127.5,319.5,125.9,319.5Z" fill="rgb(58,190,255)" stroke="none" stroke-width="1"/><path id="eGTLSFNuO8A40" d="M125.9,290.2C125.7,290.2,125.6,290.2,125.4,290.2C126.6,291,127.3,292.3,127.3,293.8L127.3,317.2C129.5,318.7,131,321.1,131,323.8C131,325.7,130.3,327.5,129.2,328.8C131.6,327.6,133.2,325.1,133.2,322.3C133.2,319.9,131.9,317.7,129.9,316.3C129.7,316.2,129.6,315.9,129.6,315.7L129.6,293.8C129.5,291.9,127.9,290.2,125.9,290.2L125.9,290.2Z" fill="rgb(212,212,232)" stroke="none" stroke-width="1"/><path id="eGTLSFNuO8A41" d="M125.9,319.5C125.7,319.5,125.5,319.5,125.2,319.6C126,320.3,126.6,321.3,126.6,322.4C126.6,323.6,126.1,324.6,125.2,325.2C125.4,325.2,125.6,325.3,125.8,325.3C127.4,325.3,128.7,324,128.7,322.4C128.7,320.8,127.5,319.5,125.9,319.5L125.9,319.5Z" fill="rgb(53,173,232)" stroke="none" stroke-width="1"/><path id="eGTLSFNuO8A42" d="M125.9,289.5C123.5,289.5,121.5,291.5,121.5,293.9L121.5,315.8C119.3,317.3,117.8,319.7,117.8,322.4L117.8,322.4C117.8,326.8,121.4,330.4,125.8,330.4C130.2,330.4,133.8,326.8,133.8,322.4C133.8,319.7,132.4,317.3,130.1,315.8L130.1,293.9C130.2,291.5,128.3,289.5,125.9,289.5L125.9,289.5ZM125.9,291C127.5,291,128.8,292.3,128.8,293.9L128.8,316C128.7,316.3,128.9,316.6,129.2,316.8C131.2,318,132.5,320.1,132.5,322.5C132.5,326.1,129.6,329.1,125.9,329.1C122.3,329.1,119.3,326.2,119.3,322.5C119.3,320.1,120.6,318,122.6,316.8C122.9,316.6,123,316.4,123,316.1L123,294C122.9,292.3,124.2,291,125.9,291L125.9,291ZM113.4,293.9C113,293.9,112.7,294.2,112.7,294.6C112.7,295,113,295.3,113.4,295.3L117.8,295.3C118.2,295.3,118.5,295,118.5,294.6C118.5,294.2,118.2,293.9,117.8,293.9L113.4,293.9ZM114.9,298.3C114.5,298.3,114.2,298.6,114.2,299C114.2,299.4,114.5,299.7,114.9,299.7L114.9,299.7L117.8,299.7C118.2,299.7,118.5,299.4,118.5,299C118.5,298.6,118.2,298.3,117.8,298.3L114.9,298.3ZM113.4,302.7C113,302.7,112.7,303,112.7,303.4C112.7,303.8,113,304.1,113.4,304.1L117.8,304.1C118.2,304.1,118.5,303.8,118.5,303.4C118.5,303,118.2,302.7,117.8,302.7L113.4,302.7ZM114.8,307.1C114.4,307.1,114.1,307.5,114.1,307.9C114.1,308.3,114.5,308.6,114.9,308.6L117.8,308.6C118.2,308.6,118.5,308.3,118.5,307.9C118.5,307.5,118.2,307.2,117.8,307.2L114.8,307.1C114.9,307.1,114.8,307.1,114.8,307.1ZM125.8,308.5C125.4,308.5,125.1,308.8,125.1,309.2L125.1,309.2L125.1,318.8C123.4,319.1,122.2,320.6,122.2,322.4C122.2,324.4,123.9,326.1,125.9,326.1C127.9,326.1,129.6,324.5,129.6,322.4C129.6,320.6,128.3,319.2,126.7,318.8L126.7,309.2C126.6,308.9,126.3,308.5,125.8,308.5C125.9,308.5,125.8,308.5,125.8,308.5L125.8,308.5ZM113.3,311.5C112.9,311.5,112.6,311.9,112.6,312.3C112.6,312.7,113,313,113.3,313L117.7,313C118.1,313,118.4,312.7,118.4,312.3C118.4,311.9,118.1,311.6,117.7,311.6L113.3,311.5C113.4,311.5,113.4,311.5,113.3,311.5ZM125.8,320.2C125.8,320.2,125.9,320.2,125.8,320.2C127.1,320.2,128,321.2,128,322.4C128,323.6,127,324.6,125.8,324.6C124.6,324.6,123.6,323.6,123.6,322.4C123.7,321.2,124.6,320.2,125.8,320.2L125.8,320.2Z" fill="rgb(0,0,0)" stroke="none" stroke-width="1"/></g></g><path id="eGTLSFNuO8A43" d="M73.8,118.5L55.6,118.5L55.6,100.4C55.6,99.5,54.9,98.8,54,98.8L35.8,98.8L35.8,102.1L39.1,102.1L39.1,107C39.1,107.9,39.9,108.6,40.8,108.6L47.4,108.6C48.3,108.6,49,107.9,49,107L49,102.1L52.3,102.1L52.3,118.6L35.8,118.6L35.8,121.8L39.1,121.8L39.1,126.7C39.1,127.6,39.8,128.3,40.7,128.3L47.3,128.3C48.2,128.3,48.9,127.6,48.9,126.7L48.9,121.8L52.2,121.8L52.2,138.3L55.6,138.3L55.6,121.9L59,121.9L59,126.8C59,127.7,59.7,128.4,60.6,128.4L67.2,128.4C68.1,128.4,68.8,127.7,68.8,126.8L68.8,121.9L72,121.9L72,138.3L75.3,138.3L75.3,120.2C75.3,119.3,74.6,118.5,73.8,118.5ZM45.8,105.4L42.5,105.4L42.5,102.1L45.8,102.1L45.8,105.4ZM45.8,125.1L42.5,125.1L42.5,121.8L45.8,121.8L45.8,125.1ZM65.5,125.1L62.2,125.1L62.2,121.8L65.5,121.8L65.5,125.1Z" fill="rgb(0,0,0)" stroke="none" stroke-width="1"/></g><g id="eGTLSFNuO8A44" mask="url(#eGTLSFNuO8A71)"><g id="eGTLSFNuO8A45"><g id="eGTLSFNuO8A46"><path id="eGTLSFNuO8A47" d="M34.2,78L100,78L100,85.8L34.2,85.8L34.2,78Z" fill="rgb(117,129,144)" stroke="none" stroke-width="1"/><g id="eGTLSFNuO8A48"><path id="eGTLSFNuO8A49" d="M34.2,82.7L100,82.7L100,85.8L34.2,85.8L34.2,82.7Z" fill="rgb(168,176,188)" stroke="none" stroke-width="1"/></g><path id="eGTLSFNuO8A50" d="M34.2,85.8L100,85.8L100,93.6L34.2,93.6L34.2,85.8Z" fill="rgb(117,129,144)" stroke="none" stroke-width="1"/><g id="eGTLSFNuO8A51"><path id="eGTLSFNuO8A52" d="M34.2,90.5L100,90.5L100,93.6L34.2,93.6L34.2,90.5Z" fill="rgb(168,176,188)" stroke="none" stroke-width="1"/></g><path id="eGTLSFNuO8A53" d="M34.2,93.6L100,93.6L100,101.4L34.2,101.4L34.2,93.6Z" fill="rgb(117,129,144)" stroke="none" stroke-width="1"/><g id="eGTLSFNuO8A54"><path id="eGTLSFNuO8A55" d="M34.2,98.3L100,98.3L100,101.4L34.2,101.4L34.2,98.3Z" fill="rgb(168,176,188)" stroke="none" stroke-width="1"/></g><path id="eGTLSFNuO8A56" d="M34.2,101.3L100,101.3L100,109.1L34.2,109.1L34.2,101.3Z" fill="rgb(117,129,144)" stroke="none" stroke-width="1"/><g id="eGTLSFNuO8A57"><path id="eGTLSFNuO8A58" d="M34.2,106L100,106L100,109.1L34.2,109.1L34.2,106Z" fill="rgb(168,176,188)" stroke="none" stroke-width="1"/></g><path id="eGTLSFNuO8A59" d="M34.2,109.1L100,109.1L100,116.9L34.2,116.9L34.2,109.1Z" fill="rgb(117,129,144)" stroke="none" stroke-width="1"/><g id="eGTLSFNuO8A60"><path id="eGTLSFNuO8A61" d="M34.2,113.8L100,113.8L100,116.9L34.2,116.9L34.2,113.8Z" fill="rgb(168,176,188)" stroke="none" stroke-width="1"/></g><path id="eGTLSFNuO8A62" d="M34.2,116.9L100,116.9L100,124.7L34.2,124.7L34.2,116.9Z" fill="rgb(117,129,144)" stroke="none" stroke-width="1"/><g id="eGTLSFNuO8A63"><path id="eGTLSFNuO8A64" d="M34.2,121.6L100,121.6L100,124.7L34.2,124.7L34.2,121.6Z" fill="rgb(168,176,188)" stroke="none" stroke-width="1"/></g><path id="eGTLSFNuO8A65" d="M34.2,124.7L100,124.7L100,132.5L34.2,132.5L34.2,124.7Z" fill="rgb(117,129,144)" stroke="none" stroke-width="1"/><g id="eGTLSFNuO8A66"><path id="eGTLSFNuO8A67" d="M34.2,129.4L100,129.4L100,132.5L34.2,132.5L34.2,129.4Z" fill="rgb(168,176,188)" stroke="none" stroke-width="1"/></g><path id="eGTLSFNuO8A68" d="M34.2,132.5L100,132.5L100,140.3L34.2,140.3L34.2,132.5Z" fill="rgb(117,129,144)" stroke="none" stroke-width="1"/><g id="eGTLSFNuO8A69"><path id="eGTLSFNuO8A70" d="M34.2,137.2L100,137.2L100,140.3L34.2,140.3L34.2,137.2Z" fill="rgb(168,176,188)" stroke="none" stroke-width="1"/></g></g></g><mask id="eGTLSFNuO8A71" mask-type="luminance"><g id="eGTLSFNuO8A72_to" transform="translate(66.5,105.1)"><path id="eGTLSFNuO8A72" d="M0,0L73.6,0L73.6,70.4L0,70.4L0,0Z" transform="translate(-36.8,-35.2)" fill="rgb(255,255,255)" stroke="none" stroke-width="0"/></g></mask></g><g id="eGTLSFNuO8A73"><g id="eGTLSFNuO8A74"><polygon id="eGTLSFNuO8A75" points="35.8,90.5 88.1,90.5 88.1,137.3 98.3,137.3 98.4,79.7 35.8,79.7" fill="none" stroke="none" stroke-width="1"/><rect id="eGTLSFNuO8A76" width="16.4" height="0.1" rx="0" ry="0" transform="matrix(1 0 0 1 55.6 137.3)" fill="none" stroke="none" stroke-width="1"/><path id="eGTLSFNuO8A77" d="M67.1,41.8C50.2,41.8,33.9,48.4,21.7,60L112.5,60C100.3,48.4,84,41.8,67.1,41.8Z" fill="none" stroke="none" stroke-width="1"/><path id="eGTLSFNuO8A78" d="M19.4,137.1L32.5,137.1L32.5,79.6L30.9,79.6C30,79.6,29.3,78.9,29.3,78L29.3,71.5C29.3,68.8,31.5,66.6,34.2,66.6L100,66.6C102.7,66.6,104.9,68.8,104.9,71.5L104.9,78.1C104.9,79,104.2,79.7,103.3,79.7L101.7,79.7L101.7,137.1L114.8,137.1L114.8,63.1L19.4,63.1L19.4,137.1Z" fill="none" stroke="none" stroke-width="1"/><path id="eGTLSFNuO8A79" d="M100,69.9L34.2,69.9C33.3,69.9,32.6,70.6,32.6,71.5L32.6,76.4L101.6,76.4L101.6,71.5C101.6,70.6,100.9,69.9,100,69.9Z" fill="none" stroke="none" stroke-width="1"/><path id="eGTLSFNuO8A80" d="M117.6,60.5C104.6,46.6,86.2,38.5,67.1,38.5C48,38.5,29.6,46.5,16.5,60.5C16.2,60.8,16.1,61.2,16.1,61.6L16.1,138.8C16.1,139.7,16.8,140.4,17.7,140.4L116.4,140.4C117.3,140.4,118,139.7,118,138.8L118,61.6C118,61.2,117.8,60.8,117.6,60.5ZM67.1,41.8C84,41.8,100.3,48.4,112.5,60L21.7,60C33.9,48.4,50.2,41.8,67.1,41.8ZM98.3,137.3L35.8,137.3L35.8,120.8L35.8,117.6L35.8,101.1L35.8,97.8L35.8,90.5L35.8,79.7L98.4,79.7L98.3,137.3ZM101.6,76.4L32.6,76.4L32.6,71.5C32.6,70.6,33.3,69.9,34.2,69.9L100,69.9C100.9,69.9,101.6,70.6,101.6,71.5L101.6,76.4ZM114.8,137.1L101.7,137.1L101.7,79.7L103.3,79.7C104.2,79.7,104.9,79,104.9,78.1L104.9,71.5C104.9,68.8,102.7,66.6,100,66.6L34.2,66.6C31.5,66.6,29.3,68.8,29.3,71.5L29.3,78C29.3,78.9,30,79.6,30.9,79.6L32.5,79.6L32.5,137.1L19.4,137.1L19.4,63.1L114.8,63.1L114.8,137.1Z" fill="rgb(0,0,0)" stroke="none" stroke-width="1"/></g></g><g id="eGTLSFNuO8A81_to" transform="translate(69.3,138.85)"><rect id="eGTLSFNuO8A81" width="67" height="3" rx="0" ry="0" transform="translate(-35.6,-1.45)" fill="rgb(0,0,0)" stroke="none" stroke-width="0"/></g><path id="eGTLSFNuO8A82" d="M36.191474,29.042376C36.4932,28.740614,36.4932,28.212532,36.191474,27.91077L34.003961,25.723L36.191474,23.535229C36.4932,23.233468,36.4932,22.705385,36.191474,22.403624C35.889749,22.101862,35.361728,22.101862,35.060002,22.403624L32.495332,24.968596L30.458682,24.968596C30.458682,24.893156,30.38325,24.817715,30.38325,24.817715L32.042743,23.158027C32.344469,22.856266,32.344469,22.328183,32.042743,22.026422C31.741017,21.72466,31.212997,21.72466,30.911271,22.026422L29.251778,23.68611C29.176347,23.68611,29.100915,23.610669,29.100915,23.610669L29.100915,21.57378L31.665586,19.008807C31.967311,18.707046,31.967311,18.178963,31.665586,17.877202C31.36386,17.57544,30.835839,17.57544,30.534113,17.877202L28.3466,20.064972L26.083656,17.726321C25.78193,17.42456,25.25391,17.42456,24.952184,17.726321C24.650458,18.028083,24.650458,18.556165,24.952184,18.857927L27.516854,21.422899L27.516854,23.459789C27.441423,23.459789,27.365991,23.535229,27.365991,23.535229L25.706498,21.875541C25.404773,21.57378,24.876752,21.57378,24.575026,21.875541C24.2733,22.177302,24.2733,22.705385,24.575026,23.007146L26.234519,24.666834C26.234519,24.742275,26.159087,24.817715,26.159087,24.817715L24.122437,24.817715L21.557767,22.252743C21.256041,21.950981,20.728021,21.950981,20.426295,22.252743C20.124569,22.554504,20.124569,23.082587,20.426295,23.384348L22.613808,25.572119L20.426295,27.759889C20.124569,28.061651,20.124569,28.589733,20.426295,28.891495C20.577158,29.042376,20.803452,29.117816,21.029747,29.117816C21.256041,29.117816,21.482335,29.042376,21.633198,28.891495L24.197869,26.326522L26.234519,26.326522C26.234519,26.401963,26.30995,26.477403,26.30995,26.477403L24.650458,28.137091C24.348732,28.438853,24.348732,28.966935,24.650458,29.268697C24.801321,29.419577,25.027615,29.495018,25.25391,29.495018C25.480204,29.495018,25.706498,29.419577,25.857361,29.268697L27.516854,27.609009C27.592286,27.609009,27.667717,27.684449,27.667717,27.684449L27.667717,29.94766L25.103047,32.512632C24.801321,32.814394,24.801321,33.342476,25.103047,33.644238C25.25391,33.795118,25.480204,33.870559,25.706498,33.870559C25.932793,33.870559,26.159087,33.795118,26.30995,33.644238L28.497463,31.456467L30.684976,33.644238C30.986702,33.945999,31.514723,33.945999,31.816449,33.644238C32.118174,33.342476,32.118174,32.814394,31.816449,32.512632L29.100915,29.94766L29.100915,27.91077C29.176347,27.91077,29.251778,27.83533,29.251778,27.83533L30.911271,29.495018C31.062134,29.645898,31.288428,29.721339,31.514723,29.721339C31.741017,29.721339,31.967311,29.645898,32.118174,29.495018C32.4199,29.193256,32.4199,28.665174,32.118174,28.363412L30.458682,26.703724C30.458682,26.628284,30.534113,26.552844,30.534113,26.552844L32.570763,26.552844L35.135434,29.117816C35.286297,29.268697,35.512591,29.344137,35.738886,29.344137C35.889749,29.268697,36.040612,29.193256,36.191474,29.042376L36.191474,29.042376ZM28.271169,24.968596C28.497463,24.968596,28.648326,25.044036,28.799189,25.194917C29.100915,25.496678,29.100915,25.949321,28.799189,26.251082C28.497463,26.552844,28.044874,26.552844,27.743148,26.251082C27.441423,25.949321,27.441423,25.496678,27.743148,25.194917L27.743148,25.194917L27.743148,25.194917C27.894011,25.044036,28.120306,24.968596,28.271169,24.968596L28.271169,24.968596L28.271169,24.968596Z" transform="translate(90.520001,103.441629) scale(0.916279,0.916279) translate(-30.950003,-28.350002)" opacity="0" fill="rgb(210,248,252)" stroke="rgb(0,0,0)" stroke-width="1" stroke-miterlimit="10"/></svg>