<svg id="etr3qUba8XC1" xmlns="http://www.w3.org/2000/svg" xmlns:xlink="http://www.w3.org/1999/xlink" viewBox="0 0 150 150" shape-rendering="geometricPrecision" text-rendering="geometricPrecision"><style><![CDATA[#etr3qUba8XC2_to {animation: etr3qUba8XC2_to__to 4000ms linear infinite reverse forwards}@keyframes etr3qUba8XC2_to__to { 0% {transform: translate(65.060015px,114.761086px)} 15% {transform: translate(65.060015px,114.761086px)} 27.5% {transform: translate(65.060015px,105.10108px)} 50.25% {transform: translate(65.060015px,105.10108px)} 62.75% {transform: translate(65.060015px,114.761086px)} 100% {transform: translate(65.060015px,114.761086px)}} #etr3qUba8XC6_to {animation: etr3qUba8XC6_to__to 4000ms linear infinite reverse forwards}@keyframes etr3qUba8XC6_to__to { 0% {transform: translate(44.885003px,114.765006px)} 37.5% {transform: translate(44.885003px,114.765006px)} 50% {transform: translate(44.885003px,108.838929px)} 72.5% {transform: translate(44.885003px,108.838929px)} 82.5% {transform: translate(44.885003px,114.765006px)} 100% {transform: translate(44.885003px,114.765006px)}} #etr3qUba8XC27_to {animation: etr3qUba8XC27_to__to 4000ms linear infinite reverse forwards}@keyframes etr3qUba8XC27_to__to { 0% {transform: translate(51.924984px,76.334982px)} 27.5% {transform: translate(51.924984px,76.334982px)} 37.5% {transform: translate(51.924984px,80.819976px)} 50% {transform: translate(51.924984px,76.334982px)} 72.5% {transform: translate(51.924984px,76.334982px)} 82.5% {transform: translate(51.924984px,80.819976px)} 95% {transform: translate(51.924984px,76.334982px)} 100% {transform: translate(51.924984px,76.334982px)}} #etr3qUba8XC34_to {animation: etr3qUba8XC34_to__to 4000ms linear infinite reverse forwards}@keyframes etr3qUba8XC34_to__to { 0% {transform: translate(96.190018px,76.359985px)} 15% {transform: translate(96.190018px,86.930002px)} 27.5% {transform: translate(96.190018px,76.359985px)} 50% {transform: translate(96.190018px,76.359985px)} 62.5% {transform: translate(96.190018px,86.930002px)} 75% {transform: translate(96.190018px,76.359985px)} 100% {transform: translate(96.190018px,76.359985px)}} #etr3qUba8XC42 {animation: etr3qUba8XC42_c_o 4000ms linear infinite reverse forwards}@keyframes etr3qUba8XC42_c_o { 0% {opacity: 0} 25% {opacity: 1} 50% {opacity: 0} 75% {opacity: 1} 75.25% {opacity: 1} 100% {opacity: 0}} #etr3qUba8XC48 {animation: etr3qUba8XC48_c_o 4000ms linear infinite reverse forwards}@keyframes etr3qUba8XC48_c_o { 0% {opacity: 0} 7.75% {opacity: 0} 32.75% {opacity: 1} 57.5% {opacity: 0} 82.5% {opacity: 1} 82.75% {opacity: 1} 100% {opacity: 0}} #etr3qUba8XC54 {animation: etr3qUba8XC54_c_o 4000ms linear infinite reverse forwards}@keyframes etr3qUba8XC54_c_o { 0% {opacity: 0} 12.75% {opacity: 0} 37.75% {opacity: 1} 62.5% {opacity: 0} 87.75% {opacity: 1} 100% {opacity: 0}}]]></style><g id="etr3qUba8XC2_to" transform="translate(65.060015,114.761086)"><g id="etr3qUba8XC2" transform="translate(-65.060015,-114.761086)"><path id="etr3qUba8XC3" d="M90.41,129.15L90.41,118.82C90.41842,116.196648,89.382123,113.677871,87.53,111.82L87.53,100.34L81.76,100.34L81.76,111.86C79.907877,113.717871,78.87158,116.236648,78.88,118.86L78.88,129.19Z" fill="rgb(239,238,239)" stroke="none" stroke-width="1"/><path id="etr3qUba8XC4" d="M89.86,115.62C89.376543,114.207125,88.580037,112.921776,87.53,111.86L87.53,100.34L81.76,100.34L81.76,111.86C79.907877,113.717871,78.87158,116.236648,78.88,118.86L78.88,121.95C83.314605,121.642449,87.36577,119.325919,89.88,115.66Z" fill="rgb(255,255,255)" stroke="none" stroke-width="1"/><path id="etr3qUba8XC5" d="M91.85,107.54L91.85,104.66L89,104.66L89,100.34C89.000247,99.808908,88.708147,99.320793,88.24,99.07L88.24,99.07L87.94,98.93L87.83,98.93C87.746995,98.919542,87.663005,98.919542,87.58,98.93L81.74,98.93L81.53,98.93C81.380576,98.969852,81.236279,99.026899,81.1,99.1L81.1,99.1C80.626401,99.351469,80.330246,99.843779,80.33,100.38L80.33,102.38L80.33,102.38L80.33,104.67L77.44,104.67L77.44,107.55L80.32,107.55L80.32,111.3C79.858704,111.812264,79.443746,112.364426,79.08,112.95C78.81197,113.386257,78.574726,113.840695,78.37,114.31C77.753749,115.737085,77.437207,117.275545,77.44,118.83L77.44,129.16C77.44,129.95529,78.08471,130.6,78.88,130.6L90.41,130.6C91.20529,130.6,91.85,129.95529,91.85,129.16L91.85,118.82C91.854258,117.264373,91.534112,115.724948,90.91,114.3C90.701222,113.832644,90.464115,113.378467,90.2,112.94C89.855869,112.35146,89.453878,111.798723,89,111.29L89,107.54ZM80.32,118.82C80.31653,116.591463,81.201926,114.453554,82.78,112.88C83.045885,112.614753,83.196749,112.255553,83.2,111.88L83.2,107.56L86.09,107.56L86.09,111.88C86.093251,112.255553,86.244115,112.614753,86.51,112.88C87.633572,114.007194,88.416828,115.428146,88.77,116.98C88.902357,117.584403,88.969408,118.201275,88.97,118.82L88.97,127.71L80.32,127.71ZM86.09,101.82L86.09,104.7L83.2,104.7L83.2,101.82Z" fill="rgb(4,0,0)" stroke="none" stroke-width="1"/></g></g><g id="etr3qUba8XC6_to" transform="translate(44.885003,114.765006)"><g id="etr3qUba8XC6" transform="translate(-65.060015,-114.761086)"><path id="etr3qUba8XC7" d="M90.41,129.15L90.41,118.82C90.41842,116.196648,89.382123,113.677871,87.53,111.82L87.53,100.34L81.76,100.34L81.76,111.86C79.907877,113.717871,78.87158,116.236648,78.88,118.86L78.88,129.19Z" fill="rgb(239,238,239)" stroke="none" stroke-width="1"/><path id="etr3qUba8XC8" d="M89.86,115.62C89.376543,114.207125,88.580037,112.921776,87.53,111.86L87.53,100.34L81.76,100.34L81.76,111.86C79.907877,113.717871,78.87158,116.236648,78.88,118.86L78.88,121.95C83.314605,121.642449,87.36577,119.325919,89.88,115.66Z" fill="rgb(255,255,255)" stroke="none" stroke-width="1"/><path id="etr3qUba8XC9" d="M91.85,107.54L91.85,104.66L89,104.66L89,100.34C89.000247,99.808908,88.708147,99.320793,88.24,99.07L88.24,99.07L87.94,98.93L87.83,98.93C87.746995,98.919542,87.663005,98.919542,87.58,98.93L81.74,98.93L81.53,98.93C81.380576,98.969852,81.236279,99.026899,81.1,99.1L81.1,99.1C80.626401,99.351469,80.330246,99.843779,80.33,100.38L80.33,102.38L80.33,102.38L80.33,104.67L77.44,104.67L77.44,107.55L80.32,107.55L80.32,111.3C79.858704,111.812264,79.443746,112.364426,79.08,112.95C78.81197,113.386257,78.574726,113.840695,78.37,114.31C77.753749,115.737085,77.437207,117.275545,77.44,118.83L77.44,129.16C77.44,129.95529,78.08471,130.6,78.88,130.6L90.41,130.6C91.20529,130.6,91.85,129.95529,91.85,129.16L91.85,118.82C91.854258,117.264373,91.534112,115.724948,90.91,114.3C90.701222,113.832644,90.464115,113.378467,90.2,112.94C89.855869,112.35146,89.453878,111.798723,89,111.29L89,107.54ZM80.32,118.82C80.31653,116.591463,81.201926,114.453554,82.78,112.88C83.045885,112.614753,83.196749,112.255553,83.2,111.88L83.2,107.56L86.09,107.56L86.09,111.88C86.093251,112.255553,86.244115,112.614753,86.51,112.88C87.633572,114.007194,88.416828,115.428146,88.77,116.98C88.902357,117.584403,88.969408,118.201275,88.97,118.82L88.97,127.71L80.32,127.71ZM86.09,101.82L86.09,104.7L83.2,104.7L83.2,101.82Z" transform="matrix(1 0 0 1 0 -2)" fill="rgb(4,0,0)" stroke="none" stroke-width="1"/></g></g><g id="etr3qUba8XC10"><g id="etr3qUba8XC11" transform="matrix(1 0 0 1 0.000001 0.000001)"><path id="etr3qUba8XC12" d="M51.24,129.15L51.24,118.82C51.24842,116.196648,50.212123,113.677871,48.36,111.82L48.36,100.34L42.59,100.34L42.59,111.86C40.737877,113.717871,39.70158,116.236648,39.71,118.86L39.71,129.19Z" fill="rgb(239,238,239)" stroke="none" stroke-width="1"/><path id="etr3qUba8XC13" d="M50.69,115.62C50.206543,114.207125,49.410037,112.921776,48.36,111.86L48.36,100.34L42.59,100.34L42.59,111.86C40.737877,113.717871,39.70158,116.236648,39.71,118.86L39.71,121.95C44.144605,121.642449,48.19577,119.325919,50.71,115.66Z" fill="rgb(255,255,255)" stroke="none" stroke-width="1"/><path id="etr3qUba8XC14" d="M52.68,107.54L52.68,104.66L49.79,104.66L49.79,100.34C49.784403,99.802382,49.479772,99.312659,49,99.07L49,99.07L48.7,98.93L48.59,98.93C48.506995,98.919542,48.423005,98.919542,48.34,98.93L42.57,98.93L42.36,98.93C42.210576,98.969852,42.066279,99.026899,41.93,99.1L41.93,99.1C41.456401,99.351469,41.160246,99.843779,41.16,100.38L41.16,102.38L41.16,102.38L41.16,104.67L38.27,104.67L38.27,107.55L41.15,107.55L41.15,111.3C40.688704,111.812264,40.273746,112.364426,39.91,112.95C39.64197,113.386257,39.404726,113.840695,39.2,114.31C38.583749,115.737085,38.267207,117.275545,38.27,118.83L38.27,129.16C38.27,129.95529,38.91471,130.6,39.71,130.6L51.24,130.6C52.03529,130.6,52.68,129.95529,52.68,129.16L52.68,118.82C52.684258,117.264373,52.364112,115.724948,51.74,114.3C51.531222,113.832644,51.294115,113.378467,51.03,112.94C50.676393,112.350128,50.264316,111.797343,49.8,111.29L49.8,107.54ZM41.15,118.82C41.14653,116.591463,42.031926,114.453554,43.61,112.88C43.875885,112.614753,44.026749,112.255553,44.03,111.88L44.03,107.56L46.92,107.56L46.92,111.88C46.923251,112.255553,47.074115,112.614753,47.34,112.88C48.466842,114.012688,49.250332,115.440997,49.6,117C49.732357,117.604403,49.799408,118.221275,49.8,118.84L49.8,127.73L41.15,127.73ZM46.92,101.82L46.92,104.7L44,104.7L44,101.82Z" fill="rgb(4,0,0)" stroke="none" stroke-width="1"/></g><path id="etr3qUba8XC15" d="M110.58,143.56L41.42,143.56C36.759894,143.401483,33.064066,139.577801,33.064066,134.915C33.064066,130.252199,36.759894,126.428517,41.42,126.27L110.58,126.27C115.240106,126.428517,118.935934,130.252199,118.935934,134.915C118.935934,139.577801,115.240106,143.401483,110.58,143.56Z" fill="rgb(135,145,157)" stroke="none" stroke-width="1"/><path id="etr3qUba8XC16" d="M110.58,126.27L110.58,118.82C110.58842,116.196648,109.552123,113.677871,107.7,111.82L107.7,100.34L101.93,100.34L101.93,111.86C100.077877,113.717871,99.04158,116.236648,99.05,118.86L99.05,126.31Z" fill="rgb(239,238,239)" stroke="none" stroke-width="1"/><path id="etr3qUba8XC17" d="M110,115.62C109.516543,114.207125,108.720037,112.921776,107.67,111.86L107.67,100.34L101.9,100.34L101.9,111.86C100.047877,113.717871,99.01158,116.236648,99.02,118.86L99.02,121.95C103.454605,121.642449,107.50577,119.325919,110.02,115.66Z" fill="rgb(255,255,255)" stroke="none" stroke-width="1"/><circle id="etr3qUba8XC18" r="2.88" transform="matrix(1 0 0 1 41.42 134.91)" fill="rgb(192,199,208)" stroke="none" stroke-width="1"/><path id="etr3qUba8XC19" d="M107.7,134.91C107.7,133.31942,108.98942,132.03,110.58,132.03L41.42,132.03C42.947454,132.119967,44.140074,133.384898,44.140074,134.915C44.140074,136.445102,42.947454,137.710033,41.42,137.8L110.58,137.8C109.814441,137.800005,109.080382,137.495205,108.539989,136.952935C107.999596,136.410666,107.697342,135.675555,107.7,134.91Z" fill="rgb(234,245,253)" stroke="none" stroke-width="1"/><circle id="etr3qUba8XC20" r="2.88" transform="matrix(1 0 0 1 110.58 134.91)" fill="rgb(192,199,208)" stroke="none" stroke-width="1"/><circle id="etr3qUba8XC21" r="2.88" transform="matrix(1 0 0 1 58.71 134.91)" fill="rgb(192,199,208)" stroke="none" stroke-width="1"/><circle id="etr3qUba8XC22" r="2.88" transform="matrix(1 0 0 1 76 134.91)" fill="rgb(192,199,208)" stroke="none" stroke-width="1"/><circle id="etr3qUba8XC23" r="2.88" transform="matrix(1 0 0 1 93.29 134.91)" fill="rgb(192,199,208)" stroke="none" stroke-width="1"/><path id="etr3qUba8XC24" d="M57.27,124.82L41.42,124.82C35.973801,124.991518,31.647608,129.456101,31.647608,134.905C31.647608,140.353899,35.973801,144.818482,41.42,144.99L110.58,144.99C115.846067,144.9567,120.199042,140.875328,120.571076,135.622313C120.94311,130.369299,117.20881,125.715161,112,124.94L112,118.82C112.007971,116.039525,110.981409,113.355492,109.12,111.29L109.12,107.54L112,107.54L112,104.66L109.12,104.66L109.12,100.34C109.120019,99.543076,108.476905,98.895496,107.68,98.89L101.91,98.89C101.113095,98.895496,100.469981,99.543076,100.47,100.34L100.47,104.66L97.61,104.66L97.61,107.54L100.49,107.54L100.49,111.29C98.628591,113.355492,97.602029,116.039525,97.61,118.82L97.61,124.82L71.68,124.82L57.27,124.82ZM103.36,101.78L106.24,101.78L106.24,104.66L103.36,104.66ZM100.47,118.78C100.46653,116.551463,101.351926,114.413554,102.93,112.84C103.198653,112.575767,103.353028,112.216755,103.36,111.84L103.36,107.52L106.24,107.52L106.24,111.84C106.243251,112.215553,106.394115,112.574753,106.66,112.84C108.241848,114.411026,109.127927,116.550583,109.12,118.78L109.12,124.78L100.47,124.78ZM110.55,142.08L41.42,142.08C37.545184,141.935619,34.478468,138.752505,34.478468,134.875C34.478468,130.997495,37.545184,127.814381,41.42,127.67L110.58,127.67C114.454816,127.814381,117.521532,130.997495,117.521532,134.875C117.521532,138.752505,114.454816,141.935619,110.58,142.08Z" fill="rgb(4,0,0)" stroke="none" stroke-width="1"/><path id="etr3qUba8XC25" d="M110.58,130.59L41.42,130.59C39.112147,130.701004,37.298026,132.604479,37.298026,134.915C37.298026,137.225521,39.112147,139.128996,41.42,139.24L110.58,139.24C112.887853,139.128996,114.701974,137.225521,114.701974,134.915C114.701974,132.604479,112.887853,130.701004,110.58,130.59ZM57.27,134.91C57.275514,134.116035,57.922645,133.476346,58.71662,133.480015C59.510596,133.483685,60.151787,134.129328,60.149961,134.92331C60.148136,135.717292,59.503984,136.359981,58.71,136.36C57.913095,136.354504,57.269981,135.706924,57.27,134.91ZM54.65,136.36L45.48,136.36C45.82626,135.427781,45.82626,134.402219,45.48,133.47L54.65,133.47C54.30374,134.402219,54.30374,135.427781,54.65,136.36ZM62.77,133.47L71.94,133.47C71.59374,134.402219,71.59374,135.427781,71.94,136.36L62.77,136.36C63.11626,135.427781,63.11626,134.402219,62.77,133.47ZM74.56,134.91C74.565514,134.116035,75.212645,133.476346,76.00662,133.480015C76.800596,133.483685,77.441787,134.129328,77.439961,134.92331C77.438136,135.717292,76.793984,136.359981,76,136.36C75.203095,136.354504,74.559981,135.706924,74.56,134.91ZM80.06,133.47L89.23,133.47C88.88374,134.402219,88.88374,135.427781,89.23,136.36L80.06,136.36C80.40626,135.427781,80.40626,134.402219,80.06,133.47ZM91.85,134.91C91.855514,134.116035,92.502645,133.476346,93.29662,133.480015C94.090596,133.483685,94.731787,134.129328,94.729961,134.92331C94.728136,135.717292,94.083984,136.359981,93.29,136.36C92.493095,136.354504,91.849981,135.706924,91.85,134.91ZM97.35,133.47L106.52,133.47C106.17374,134.402219,106.17374,135.427781,106.52,136.36L97.35,136.36C97.69626,135.427781,97.69626,134.402219,97.35,133.47ZM40,134.91C40.005514,134.116035,40.652645,133.476346,41.44662,133.480015C42.240596,133.483685,42.881787,134.129328,42.879961,134.92331C42.878136,135.717292,42.233984,136.359981,41.44,136.36C40.643095,136.354504,39.999981,135.706924,40,134.91ZM110.6,136.36C110.012637,136.364051,109.480853,136.01335,109.253266,135.471855C109.025679,134.930361,109.147255,134.305057,109.561154,133.888284C109.975052,133.47151,110.5995,133.345611,111.142557,133.569445C111.685613,133.793278,112.039986,134.322623,112.04,134.91C112.040009,135.296303,111.88587,135.66664,111.611775,135.938857C111.337681,136.211074,110.966294,136.362664,110.58,136.36Z" fill="rgb(4,0,0)" stroke="none" stroke-width="1"/><path id="etr3qUba8XC26" d="M50,15L100,15C101.380712,15,102.5,13.880712,102.5,12.5C102.502659,10.510062,101.713336,8.600863,100.306236,7.193764C98.899137,5.786664,96.989938,4.997341,95,5L55,5C53.013528,5,51.108418,5.789123,49.70377,7.19377C48.299123,8.598418,47.51,10.503528,47.51,12.49C47.507343,13.153043,47.768189,13.789984,48.235156,14.260702C48.702123,14.731419,49.336957,14.997353,50,15Z" fill="rgb(4,0,0)" stroke="none" stroke-width="1"/></g><g id="etr3qUba8XC27_to" transform="translate(51.924984,76.334982)"><g id="etr3qUba8XC27" transform="translate(-51.924984,-76.334982)"><path id="etr3qUba8XC28" d="M46.18,77.28L40.42,77.28L40.42,60L46.18,60Z" transform="matrix(1 0 0 1 1.270675 0)" fill="rgb(192,199,208)" stroke="none" stroke-width="1"/><path id="etr3qUba8XC29" d="M31.78,57.11L40.42,57.11L40.42,80.11L31.78,80.11Z" transform="matrix(1 0 0 1 1 0)" fill="rgb(135,145,157)" stroke="none" stroke-width="1"/><path id="etr3qUba8XC30" d="M46.18,65.76L63.47,65.76L63.47,71.52L46.18,71.52Z" transform="matrix(1 0 0 1 1 0)" fill="rgb(159,167,177)" stroke="none" stroke-width="1"/><circle id="etr3qUba8XC31" r="5.76" transform="matrix(1 0 0 1 64.47 68.64)" fill="rgb(159,167,177)" stroke="none" stroke-width="1"/><path id="etr3qUba8XC32" d="M63.47,74.4C62.455658,74.396219,61.460971,74.119917,60.59,73.6L60.59,88.839667L66.36,88.839667L66.36,73.6C65.485916,74.121189,64.487671,74.39752,63.47,74.4Z" transform="matrix(0.679364 0 0 0.679364 21.35237 24.575528)" fill="rgb(192,199,208)" stroke="none" stroke-width="1"/><path id="etr3qUba8XC33" d="M31.78,81.61L40.42,81.61C40.803651,81.610009,41.171444,81.456923,41.441786,81.184704C41.712127,80.912485,41.862664,80.543641,41.86,80.16L41.86,78.72L46.18,78.72C46.562729,78.722686,46.930561,78.571835,47.201198,78.301198C47.471835,78.030561,47.622686,77.662729,47.62,77.28L47.62,73L57.75,73C58.163991,73.533521,58.652285,74.004978,59.2,74.4L59.15,74.4L59.15,85.33L53.81,90.67C53.276667,91.23,53.276667,92.11,53.81,92.67L58.13,97L60.13,95L56.83,91.7L61.15,87.38L65.72,87.38L70.04,91.7L66.78,95L68.78,97L73.11,92.68C73.643333,92.12,73.643333,91.24,73.11,90.68L67.8,85.33L67.8,74.4L67.8,74.4C70.078993,72.733307,71.16963,69.885671,70.587068,67.12301C70.004505,64.360348,67.856899,62.195561,65.098967,61.591004C62.341035,60.986447,59.484799,62.054359,57.8,64.32L47.62,64.32L47.62,60C47.62,59.20471,46.97529,58.56,46.18,58.56L41.86,58.56L41.86,57.11C41.862686,56.727271,41.711835,56.359439,41.441198,56.088802C41.170561,55.818165,40.802729,55.667314,40.42,55.67L31.78,55.67C31.397271,55.667314,31.029439,55.818165,30.758802,56.088802C30.488165,56.359439,30.337314,56.727271,30.34,57.11L30.34,80.11C30.337336,80.493641,30.487873,80.862485,30.758214,81.134704C31.028556,81.406923,31.396349,81.560009,31.78,81.56ZM64.91,84.49L62,84.49L62,75.7C62.474491,75.792113,62.956652,75.83899,63.44,75.84C63.923396,75.839973,64.405651,75.793087,64.88,75.7ZM63.47,64.32C65.217277,64.32,66.792506,65.372534,67.46116,66.986808C68.129814,68.601081,67.760213,70.45919,66.524701,71.694701C65.28919,72.930213,63.431081,73.299814,61.816808,72.63116C60.202534,71.962506,59.15,70.387277,59.15,68.64C59.15,66.25413,61.08413,64.32,63.47,64.32ZM56.47,67.2C56.369123,67.67333,56.318841,68.156041,56.32,68.64C56.319364,69.123932,56.369641,69.606588,56.47,70.08L47.67,70.08L47.67,67.2ZM44.74,61.43L44.74,75.84L41.86,75.84L41.86,61.43ZM33.22,58.55L39,58.55L39,78.72L33.22,78.72Z" transform="matrix(1 0 0 1 1 0)" fill="rgb(4,0,0)" stroke="none" stroke-width="1"/></g></g><g id="etr3qUba8XC34_to" transform="translate(96.190018,76.359985)"><g id="etr3qUba8XC34" transform="translate(-96.190018,-76.359985)"><path id="etr3qUba8XC35" d="M101.93,77.28L107.7,77.28L107.7,60L101.93,60Z" fill="rgb(192,199,208)" stroke="none" stroke-width="1"/><path id="etr3qUba8XC36" d="M116.34,57.11L107.7,57.11L107.7,80.11L116.34,80.11Z" fill="rgb(135,145,157)" stroke="none" stroke-width="1"/><path id="etr3qUba8XC37" d="M101.93,65.76L84.64,65.76L84.64,71.52L101.93,71.52Z" fill="rgb(159,167,177)" stroke="none" stroke-width="1"/><circle id="etr3qUba8XC38" r="5.76" transform="matrix(1 0 0 1 84.64 68.64)" fill="rgb(159,167,177)" stroke="none" stroke-width="1"/><path id="etr3qUba8XC39" d="M84.64,74.248824C85.657671,74.246813,86.655916,74.0227,87.53,73.6L87.53,83.6L81.76,83.6L81.76,73.6C82.630971,74.021668,83.625658,74.245758,84.64,74.248824Z" transform="matrix(0.837793 0 0 1 13.730012 -1)" fill="rgb(192,199,208)" stroke="none" stroke-width="1"/><path id="etr3qUba8XC40" d="M116.34,81.61C116.723651,81.610009,117.091444,81.456923,117.361786,81.184704C117.632127,80.912485,117.782664,80.543641,117.78,80.16L117.78,57.16C117.782686,56.777271,117.631835,56.409439,117.361198,56.138802C117.090561,55.868165,116.722729,55.717314,116.34,55.72L107.7,55.72C107.317271,55.717314,106.949439,55.868165,106.678802,56.138802C106.408165,56.409439,106.257314,56.777271,106.26,57.16L106.26,58.6L101.93,58.6C101.152194,58.604902,100.516806,59.222641,100.49,60L100.49,64.33L90.37,64.33C88.685201,62.064359,85.828965,60.996447,83.071033,61.601004C80.313101,62.205561,78.165495,64.370348,77.582932,67.13301C77.00037,69.895671,78.091007,72.743307,80.37,74.41L80.32,74.41L80.32,81.33L75,86.67C74.466667,87.23,74.466667,88.11,75,88.67L79.3,93L81.3,91L78,87.69L82.32,83.37L86.89,83.37L91.21,87.69L88,91L90,93L94.32,88.68C94.853333,88.12,94.853333,87.24,94.32,86.68L89,81.33L89,74.4L89,74.4C89.519415,73.999162,89.980506,73.527974,90.37,73L100.49,73L100.49,77.32C100.49,78.11529,101.13471,78.76,101.93,78.76L106.26,78.76L106.26,80.2C106.257336,80.583641,106.407873,80.952485,106.678214,81.224704C106.948556,81.496923,107.316349,81.650009,107.7,81.65ZM83.2,75.7C84.154297,75.886597,85.135703,75.886597,86.09,75.7L86.09,80.49L83.2,80.49ZM89,68.64C89.004047,70.392226,87.951646,71.974167,86.33396,72.647521C84.716275,73.320875,82.852226,72.952891,81.611781,71.71531C80.371335,70.477729,79.999042,68.614537,80.668654,66.995299C81.338265,65.376061,82.917769,64.320005,84.67,64.32C87.057493,64.319994,88.994486,66.252513,89,68.64ZM100.52,67.2L100.52,70.08L91.7,70.08C91.800359,69.606588,91.850636,69.123932,91.85,68.64C91.851159,68.156041,91.800877,67.67333,91.7,67.2ZM106.29,61.43L106.29,75.84L103.41,75.84L103.41,61.43ZM114.93,78.72L109.17,78.72L109.17,58.55L114.93,58.55Z" fill="rgb(4,0,0)" stroke="none" stroke-width="1"/></g></g><g id="etr3qUba8XC41"><g id="etr3qUba8XC42" transform="matrix(1 0 0 1 0.000001 0.000001)" opacity="0"><path id="etr3qUba8XC43" d="M75,20C73.619288,20,72.5,21.119288,72.5,22.5L72.5,25C72.5,26.380712,73.619288,27.5,75,27.5C76.380712,27.5,77.5,26.380712,77.5,25L77.5,22.5C77.5,21.119288,76.380712,20,75,20Z" fill="rgb(31,146,186)" stroke="none" stroke-width="1"/><path id="etr3qUba8XC44" d="M87.52,26.57C88.870184,26.316979,89.763293,25.021971,89.52,23.67L89.08,21.21C88.795554,19.897015,87.524278,19.043584,86.201359,19.277515C84.87844,19.511446,83.976928,20.74909,84.16,22.08L84.6,24.54C84.808665,25.730164,85.841683,26.598743,87.05,26.6C87.207186,26.601379,87.364265,26.591353,87.52,26.57Z" fill="rgb(31,146,186)" stroke="none" stroke-width="1"/><path id="etr3qUba8XC45" d="M100.72,22.31L99.87,20C99.564538,19.160426,98.834372,18.547589,97.954548,18.39234C97.074725,18.237091,96.17891,18.563015,95.604548,19.24734C95.030187,19.931665,94.864538,20.870426,95.17,21.71L96,24C96.357502,24.984362,97.292729,25.63982,98.34,25.64C98.633158,25.639806,98.924087,25.589063,99.2,25.49C100.493498,25.016043,101.159826,23.585004,100.69,22.29Z" fill="rgb(31,146,186)" stroke="none" stroke-width="1"/><path id="etr3qUba8XC46" d="M63.78,19.19C62.431528,18.952806,61.143133,19.844429,60.89,21.19L60.45,23.65C60.206707,25.001971,61.099816,26.296979,62.45,26.55C62.596498,26.55994,62.743502,26.55994,62.89,26.55C64.098317,26.548743,65.131335,25.680164,65.34,24.49L65.78,22.03C66.017194,20.681528,65.125571,19.393133,63.78,19.14Z" fill="rgb(31,146,186)" stroke="none" stroke-width="1"/><path id="etr3qUba8XC47" d="M53.33,18.47C52.70286,18.246293,52.012389,18.282007,51.411676,18.569223C50.810962,18.856439,50.349643,19.371425,50.13,20L49.28,22.35C48.810174,23.645004,49.476502,25.076043,50.77,25.55C51.045913,25.649063,51.336842,25.699806,51.63,25.7C52.702951,25.700625,53.656656,25.016533,54,24L54.86,21.65C55.312854,20.349526,54.628773,18.92771,53.33,18.47Z" fill="rgb(31,146,186)" stroke="none" stroke-width="1"/></g><g id="etr3qUba8XC48" transform="matrix(1 0 0 1 0 0.000001)" opacity="0"><path id="etr3qUba8XC49" d="M75,30.8C73.619288,30.8,72.5,31.919288,72.5,33.3L72.5,38.3C72.5,39.680712,73.619288,40.8,75,40.8C76.380712,40.8,77.5,39.680712,77.5,38.3L77.5,33.3C77.5,31.919288,76.380712,30.8,75,30.8Z" fill="rgb(31,146,186)" stroke="none" stroke-width="1"/><path id="etr3qUba8XC50" d="M89.83,39.68C91.175571,39.426867,92.067194,38.138472,91.83,36.79L91,31.87C90.715554,30.557015,89.444278,29.703584,88.121359,29.937515C86.79844,30.171446,85.896928,31.40909,86.08,32.74L86.95,37.66C87.163068,38.851715,88.199388,39.719528,89.41,39.72C89.550991,39.720868,89.691708,39.707466,89.83,39.68Z" fill="rgb(31,146,186)" stroke="none" stroke-width="1"/><path id="etr3qUba8XC51" d="M105.28,34.82L103.57,30.13C103.264538,29.290426,102.534372,28.677589,101.654548,28.52234C100.774725,28.367091,99.87891,28.693015,99.304548,29.37734C98.730187,30.061665,98.564538,31.000426,98.87,31.84L100.58,36.53C100.938748,37.517815,101.879066,38.174037,102.93,38.17C103.220241,38.173848,103.508607,38.12296,103.78,38.02C105.077466,37.550117,105.748845,36.117842,105.28,34.82Z" fill="rgb(31,146,186)" stroke="none" stroke-width="1"/><path id="etr3qUba8XC52" d="M61.9,29.85C60.550273,29.607048,59.258186,30.501225,59.01,31.85L58.14,36.77C57.902806,38.118472,58.794429,39.406867,60.14,39.66C60.282952,39.674784,60.427048,39.674784,60.57,39.66C61.780612,39.659528,62.816932,38.791715,63.03,37.6L63.9,32.68C64.106782,31.351397,63.221416,30.098604,61.9,29.85Z" fill="rgb(31,146,186)" stroke="none" stroke-width="1"/><path id="etr3qUba8XC53" d="M49.63,28.64C49.008156,28.411569,48.320918,28.440357,47.720356,28.719993C47.119795,28.99963,46.655424,29.50706,46.43,30.13L44.72,34.82C44.251155,36.117842,44.922534,37.550117,46.22,38.02C46.491393,38.12296,46.779759,38.173848,47.07,38.17C48.11909,38.16816,49.056372,37.514057,49.42,36.53L51.12,31.84C51.351243,31.21831,51.323806,30.529895,51.043819,29.928581C50.763832,29.327267,50.254632,28.863173,49.63,28.64Z" fill="rgb(31,146,186)" stroke="none" stroke-width="1"/></g><g id="etr3qUba8XC54" opacity="0"><path id="etr3qUba8XC55" d="M75,44.12C73.619288,44.12,72.5,45.239288,72.5,46.62L72.5,49.12C72.5,50.500712,73.619288,51.62,75,51.62C76.380712,51.62,77.5,50.500712,77.5,49.12L77.5,46.62C77.5,45.239288,76.380712,44.12,75,44.12Z" fill="rgb(31,146,186)" stroke="none" stroke-width="1"/><path id="etr3qUba8XC56" d="M93.3,45C93.062518,43.644141,91.770859,42.737518,90.415,42.975C89.059141,43.212482,88.152518,44.504141,88.39,45.86L88.82,48.32C89.032504,49.513537,90.067705,50.384621,91.28,50.39C91.423164,50.399857,91.566836,50.399857,91.71,50.39C93.055571,50.136867,93.947194,48.848472,93.71,47.5Z" fill="rgb(31,146,186)" stroke="none" stroke-width="1"/><path id="etr3qUba8XC57" d="M109,45L108.14,42.65C107.616187,41.432021,106.232643,40.834785,104.987015,41.288948C103.741387,41.743111,103.066938,43.090702,103.45,44.36L104.3,46.71C104.663628,47.694057,105.60091,48.34816,106.65,48.35C106.939816,48.348859,107.227299,48.298127,107.5,48.2C108.797466,47.730117,109.468845,46.297842,109,45Z" fill="rgb(31,146,186)" stroke="none" stroke-width="1"/><path id="etr3qUba8XC58" d="M59.59,43C58.241528,42.762806,56.953133,43.654429,56.7,45L56.26,47.46C56.022806,48.808472,56.914429,50.096867,58.26,50.35C58.403164,50.359857,58.546836,50.359857,58.69,50.35C59.902295,50.344621,60.937496,49.473537,61.15,48.28L61.58,45.82C61.781404,44.498167,60.902889,43.253236,59.59,43Z" fill="rgb(31,146,186)" stroke="none" stroke-width="1"/><path id="etr3qUba8XC59" d="M45.08,41.15C43.784996,40.680174,42.353957,41.346502,41.88,42.64L41,45C40.531155,46.297842,41.202534,47.730117,42.5,48.2C42.772701,48.298127,43.060184,48.348859,43.35,48.35C44.39909,48.34816,45.336372,47.694057,45.7,46.71L46.55,44.36C47.028401,43.067731,46.370924,41.632017,45.08,41.15Z" fill="rgb(31,146,186)" stroke="none" stroke-width="1"/></g></g></svg>