<svg id="eJjLgQFyYC01" xmlns="http://www.w3.org/2000/svg" xmlns:xlink="http://www.w3.org/1999/xlink" viewBox="0 0 150 150" shape-rendering="geometricPrecision" text-rendering="geometricPrecision"><style><![CDATA[#eJjLgQFyYC035 {animation: eJjLgQFyYC035_f_p 2000ms linear infinite normal forwards}@keyframes eJjLgQFyYC035_f_p { 0% {fill: rgb(208,209,193)} 50% {fill: rgb(30,81,235)} 100% {fill: rgb(206,206,55)}} #eJjLgQFyYC043_to {animation: eJjLgQFyYC043_to__to 2000ms linear infinite normal forwards}@keyframes eJjLgQFyYC043_to__to { 0% {transform: translate(121.649998px,80.850002px)} 0.5% {transform: translate(125.849998px,80.850002px)} 25% {transform: translate(131.249998px,80.850002px)} 50.5% {transform: translate(125.849998px,80.850002px)} 75% {transform: translate(131.249998px,80.850002px)} 100% {transform: translate(125.95588px,80.850002px)}} #eJjLgQFyYC043 {animation: eJjLgQFyYC043_c_o 2000ms linear infinite normal forwards}@keyframes eJjLgQFyYC043_c_o { 0% {opacity: 1} 25% {opacity: 0} 50% {opacity: 1} 75% {opacity: 0} 100% {opacity: 1}} #eJjLgQFyYC044_to {animation: eJjLgQFyYC044_to__to 2000ms linear infinite normal forwards}@keyframes eJjLgQFyYC044_to__to { 0% {transform: translate(121.649998px,97.150005px)} 0.5% {transform: translate(125.849998px,97.150005px)} 25% {transform: translate(131.249998px,97.150005px)} 50.5% {transform: translate(125.849998px,97.150005px)} 75% {transform: translate(131.249998px,97.150005px)} 100% {transform: translate(125.95588px,97.150005px)}} #eJjLgQFyYC044 {animation: eJjLgQFyYC044_c_o 2000ms linear infinite normal forwards}@keyframes eJjLgQFyYC044_c_o { 0% {opacity: 1} 25% {opacity: 0} 50% {opacity: 1} 75% {opacity: 0} 100% {opacity: 1}} #eJjLgQFyYC045_to {animation: eJjLgQFyYC045_to__to 2000ms linear infinite normal forwards}@keyframes eJjLgQFyYC045_to__to { 0% {transform: translate(127.450002px,88.450001px)} 0.5% {transform: translate(131.650002px,88.450001px)} 25% {transform: translate(134.550002px,88.450001px)} 50.5% {transform: translate(131.650002px,88.450001px)} 75% {transform: translate(134.550002px,88.450001px)} 100% {transform: translate(131.706865px,88.450001px)}} #eJjLgQFyYC045 {animation: eJjLgQFyYC045_c_o 2000ms linear infinite normal forwards}@keyframes eJjLgQFyYC045_c_o { 0% {opacity: 1} 25% {opacity: 0} 50% {opacity: 1} 75% {opacity: 0} 100% {opacity: 1}} #eJjLgQFyYC048_to {animation: eJjLgQFyYC048_to__to 2000ms linear infinite normal forwards}@keyframes eJjLgQFyYC048_to__to { 0% {transform: translate(-90.642395px,134.25px)} 100% {transform: translate(18.737444px,134.25px)}}]]></style><defs><filter id="eJjLgQFyYC035-filter" x="-400%" width="600%" y="-400%" height="600%"><feColorMatrix id="eJjLgQFyYC035-filter-saturate-0" type="saturate" values="0" result="result"/></filter></defs><g id="eJjLgQFyYC02"><g id="eJjLgQFyYC03"><g id="eJjLgQFyYC04"><path id="eJjLgQFyYC05" d="M60.6,35.1L60.6,32.7L65.2,32.7L65.2,35.1L60.6,35.1Z" fill="rgb(0,0,0)" stroke="none" stroke-width="1"/><path id="eJjLgQFyYC06" d="M72.1,38.4L69.7,38.4L69.7,29.5C68.8,30.3,67.8,30.9,66.7,31.3L66.7,29.2C67.3,29,68,28.6,68.7,28.1C69.4,27.5,69.9,26.9,70.2,26.1L72.1,26.1L72.1,38.4Z" fill="rgb(0,0,0)" stroke="none" stroke-width="1"/><path id="eJjLgQFyYC07" d="M77.6,31.8C77,31.5,76.5,31.2,76.3,30.7C76,30.3,75.9,29.8,75.9,29.2C75.9,28.3,76.2,27.5,76.9,26.9C77.6,26.3,78.4,26,79.6,26C80.8,26,81.7,26.3,82.3,26.9C82.9,27.5,83.3,28.3,83.3,29.2C83.3,29.8,83.2,30.3,82.9,30.7C82.6,31.1,82.2,31.5,81.7,31.7C82.4,32,82.9,32.4,83.3,32.9C83.7,33.4,83.8,34,83.8,34.7C83.8,35.8,83.4,36.8,82.7,37.5C82,38.2,81,38.6,79.8,38.6C78.7,38.6,77.8,38.3,77,37.7C76.1,37,75.7,36.1,75.7,34.9C75.7,34.2,75.9,33.6,76.2,33.1C76.4,32.5,76.9,32.1,77.6,31.8ZM77.9,34.7C77.9,35.3,78.1,35.9,78.4,36.2C78.7,36.6,79.1,36.7,79.6,36.7C80.1,36.7,80.5,36.5,80.8,36.2C81.1,35.9,81.3,35.3,81.3,34.7C81.3,34.1,81.1,33.7,80.8,33.3C80.5,33,80.1,32.8,79.6,32.8C79,32.8,78.6,33,78.3,33.4C78,33.8,77.9,34.2,77.9,34.7ZM78.1,29.4C78.1,29.9,78.2,30.2,78.5,30.5C78.8,30.8,79.1,30.9,79.6,30.9C80,30.9,80.4,30.8,80.7,30.5C81,30.2,81.1,29.9,81.1,29.4C81.1,29,81,28.6,80.7,28.3C80.4,28.1,80,28,79.6,28C79.1,28,78.8,28.1,78.5,28.4C78.2,28.6,78.1,29,78.1,29.4Z" fill="rgb(0,0,0)" stroke="none" stroke-width="1"/></g><path id="eJjLgQFyYC08" d="M89.5,22.9C87.8,22.9,86.4,24.3,86.4,26C86.4,27.7,87.8,29.1,89.5,29.1C91.2,29.1,92.6,27.7,92.6,26C92.6,24.3,91.2,22.9,89.5,22.9ZM89.5,26.8C89,26.8,88.7,26.4,88.7,26C88.7,25.5,89.1,25.2,89.5,25.2C90,25.2,90.3,25.6,90.3,26C90.3,26.5,90,26.8,89.5,26.8Z" fill="rgb(0,0,0)" stroke="none" stroke-width="1"/><path id="eJjLgQFyYC09" d="M100.9,35.2C100.4,34.8,99.7,34.9,99.3,35.4C97.8,37.3,94.7,36.2,94.7,33.8L94.7,30.5C94.7,28.1,97.7,27,99.3,28.9C99.7,29.4,100.4,29.4,100.9,29.1C101.4,28.7,101.4,28,101.1,27.5C100.2,26.4,98.8,25.7,97.4,25.7C94.7,25.7,92.6,27.9,92.6,30.5L92.6,33.8C92.6,36.5,94.8,38.6,97.4,38.6C98.8,38.6,100.2,38,101.1,36.8C101.5,36.3,101.4,35.6,100.9,35.2Z" fill="rgb(0,0,0)" stroke="none" stroke-width="1"/></g><g id="eJjLgQFyYC010" transform="matrix(1 0 0 1 0 -280.067)"><path id="eJjLgQFyYC011" d="M118.5,296.1C120.4,296.1,121.9,297.6,121.9,299.5L121.9,319.7C121.9,319.9,122,320.1,122.2,320.3C124.1,321.6,125.3,323.6,125.3,325.8C125.3,329.5,122.3,332.5,118.6,332.5C114.9,332.5,111.9,329.5,111.9,325.8L111.9,325.8C111.9,323.6,113.1,321.6,115,320.3C115.2,320.2,115.3,320,115.3,319.7L115.3,299.5C115.1,297.6,116.6,296.1,118.5,296.1L118.5,296.1Z" fill="rgb(233,233,255)" stroke="none" stroke-width="1"/><path id="eJjLgQFyYC012" d="M118.5,323C117,323,115.8,324.2,115.8,325.7C115.8,327.2,117,328.4,118.5,328.4C120,328.4,121.2,327.2,121.2,325.7C121.2,324.2,120,323,118.5,323Z" fill="rgb(58,190,255)" stroke="none" stroke-width="1"/><path id="eJjLgQFyYC013" d="M118.5,296.1C118.3,296.1,118.2,296.1,118.1,296.1C119.2,296.8,119.9,298,119.9,299.4L119.9,321C121.9,322.4,123.3,324.6,123.3,327.1C123.3,328.9,122.7,330.5,121.7,331.7C123.9,330.6,125.4,328.3,125.4,325.7C125.4,323.5,124.2,321.4,122.3,320.2C122.1,320.1,122,319.9,122,319.6L122,299.4C121.8,297.6,120.3,296.1,118.5,296.1L118.5,296.1Z" fill="rgb(212,212,232)" stroke="none" stroke-width="1"/><path id="eJjLgQFyYC014" d="M118.5,323C118.3,323,118.1,323,117.9,323.1C118.7,323.7,119.2,324.7,119.2,325.7C119.2,326.8,118.7,327.7,117.9,328.3C118.1,328.3,118.3,328.4,118.5,328.4C120,328.4,121.2,327.2,121.2,325.7C121.2,324.2,120,323,118.5,323L118.5,323Z" fill="rgb(53,173,232)" stroke="none" stroke-width="1"/><path id="eJjLgQFyYC015" d="M118.5,295.4C116.3,295.4,114.5,297.2,114.5,299.4L114.5,319.6C112.5,321,111.1,323.2,111.1,325.7L111.1,325.7C111.1,329.8,114.4,333.1,118.5,333.1C122.6,333.1,125.9,329.8,125.9,325.7C125.9,323.2,124.6,321,122.5,319.6L122.5,299.4C122.5,297.3,120.7,295.4,118.5,295.4L118.5,295.4ZM118.5,296.8C120,296.8,121.2,298,121.2,299.5L121.2,319.8C121.1,320.1,121.3,320.4,121.5,320.5C123.4,321.6,124.5,323.6,124.5,325.8C124.5,329.2,121.8,331.9,118.4,331.9C115,331.9,112.3,329.2,112.3,325.8C112.3,323.6,113.5,321.6,115.3,320.6C115.5,320.5,115.7,320.2,115.6,319.9L115.6,299.6C115.8,298,117,296.8,118.5,296.8L118.5,296.8ZM107,299.5C106.6,299.5,106.3,299.8,106.3,300.2C106.3,300.6,106.6,300.9,107,300.9L111,300.9C111.4,300.9,111.7,300.6,111.7,300.2C111.7,299.8,111.4,299.5,111,299.5L107,299.5ZM108.4,303.5C108,303.5,107.7,303.8,107.7,304.2C107.7,304.6,108,304.9,108.4,304.9L108.4,304.9L111.1,304.9C111.5,304.9,111.8,304.6,111.8,304.2C111.8,303.8,111.5,303.5,111.1,303.5L108.4,303.5ZM107,307.6C106.6,307.6,106.3,307.9,106.3,308.3C106.3,308.7,106.6,309,107,309L111,309C111.4,309,111.7,308.7,111.7,308.3C111.7,307.9,111.4,307.6,111,307.6L107,307.6ZM108.3,311.6C107.9,311.6,107.6,312,107.7,312.3C107.7,312.7,108,312.9,108.4,312.9L111.1,312.9C111.5,312.9,111.8,312.6,111.8,312.2C111.8,311.8,111.5,311.5,111.1,311.5L108.3,311.5C108.4,311.6,108.3,311.6,108.3,311.6ZM118.5,312.9C118.1,312.9,117.8,313.2,117.8,313.6L117.8,313.6L117.8,322.4C116.3,322.7,115.1,324.1,115.1,325.7C115.1,327.6,116.6,329.1,118.5,329.1C120.4,329.1,121.9,327.6,121.9,325.7C121.9,324.1,120.7,322.7,119.2,322.4L119.2,313.6C119.2,313.2,118.9,312.9,118.5,312.9L118.5,312.9L118.5,312.9ZM107,315.6C106.6,315.6,106.3,315.9,106.4,316.3C106.4,316.7,106.7,316.9,107.1,316.9L111.1,316.9C111.5,316.9,111.8,316.6,111.8,316.2C111.8,315.8,111.5,315.5,111.1,315.5L107,315.5C107,315.6,107,315.6,107,315.6ZM118.5,323.7L118.5,323.7C119.7,323.7,120.5,324.6,120.5,325.7C120.5,326.8,119.6,327.7,118.5,327.7C117.4,327.7,116.5,326.8,116.5,325.7C116.5,324.6,117.3,323.7,118.5,323.7L118.5,323.7Z" fill="rgb(0,0,0)" stroke="none" stroke-width="1"/></g><g id="eJjLgQFyYC016"><g id="eJjLgQFyYC017"><g id="eJjLgQFyYC018"><path id="eJjLgQFyYC019" d="M9.4,119.6C9.4,119.6,8.3,103.3,12.3,93.4C12.3,93.4,16.9,89.8,23,89C23,89,22.9,77.7,24.3,68.7C24.4,68.1,24.5,67.6,24.6,67.1C24.8,66.3,24.9,65.5,25.1,64.7C25.5,63.3,26.6,62.2,28,62C31,61.5,36.5,60.8,42.1,61C45.4,61.1,48.8,61.5,51.8,62.4L51.8,119.7L39.4,122L34.5,122.9L9.4,119.6L9.4,119.6Z" fill="rgb(246,249,249)" stroke="none" stroke-width="1"/><path id="eJjLgQFyYC020" d="M39.5,121.9C39.8,121.7,40.1,121.5,40.4,121.3C52.1,114.4,48.2,61.4,42.2,60.9C45.5,61,48.9,61.4,51.9,62.3L56.7,103.2L51.9,119.6L39.5,121.9L39.5,121.9Z" fill="rgb(218,228,234)" stroke="none" stroke-width="1"/><path id="eJjLgQFyYC021" d="M103.5,119.6L103.5,56.5C103.5,53.2,100.9,50.6,97.6,50.6L57.8,50.6C54.5,50.6,51.9,53.2,51.9,56.5L51.9,122.8" fill="rgb(246,249,249)" stroke="none" stroke-width="1"/><path id="eJjLgQFyYC022" d="M96.9,119.6L96.9,56.5C96.9,53.2,94.3,50.6,91,50.6L97.7,50.6C101,50.6,103.6,53.2,103.6,56.5L103.6,119.6L51.9,122.8L51.9,122.4L96.9,119.6Z" fill="rgb(218,228,234)" stroke="none" stroke-width="1"/><path id="eJjLgQFyYC023" d="M107,122.5C107,124.1,105.7,125.4,104.1,125.4L9.4,125.4C7.8,125.4,6.5,124.1,6.5,122.5C6.5,120.9,7.8,119.6,9.4,119.6L104.1,119.6C105.7,119.6,107,120.9,107,122.5Z" fill="rgb(246,249,249)" stroke="none" stroke-width="1"/><path id="eJjLgQFyYC024" d="M6.5,122.6C6.5,122.1,6.6,121.7,6.8,121.3C6.9,121.6,7.1,121.8,7.3,122.1C7.8,122.6,8.6,123,9.4,123L104.1,123C105.2,123,106.2,122.3,106.7,121.4C106.9,121.8,107,122.2,107,122.7C107,124.3,105.7,125.6,104.1,125.6L9.4,125.6C8.6,125.6,7.9,125.3,7.3,124.7C6.8,124.1,6.5,123.4,6.5,122.6L6.5,122.6Z" fill="rgb(218,228,234)" stroke="none" stroke-width="1"/><path id="eJjLgQFyYC025" d="M10.5,99.9L12.3,99.9C14.8,99.9,16.8,101.9,16.8,104.4L16.8,119.7L9.4,119.7C9.4,119.6,8.7,109.1,10.5,99.9Z" fill="rgb(69,69,69)" stroke="none" stroke-width="1"/><path id="eJjLgQFyYC026" d="M21.2,104L21.2,98.4C21.2,97,22.3,95.9,23.7,95.9C25.1,95.9,26.2,97,26.2,98.4L26.2,104C26.2,105.4,25.1,106.5,23.7,106.5C22.4,106.5,21.2,105.4,21.2,104Z" fill="rgb(244,221,69)" stroke="none" stroke-width="1"/><circle id="eJjLgQFyYC027" r="11.8" transform="matrix(1 0 0 1 85.7 121.3)" fill="rgb(89,89,89)" stroke="none" stroke-width="1"/><circle id="eJjLgQFyYC028" r="11.8" transform="matrix(1 0 0 1 34.8 121.3)" fill="rgb(89,89,89)" stroke="none" stroke-width="1"/><circle id="eJjLgQFyYC029" r="5.6" transform="matrix(1 0 0 1 34.8 121.3)" fill="rgb(246,249,249)" stroke="none" stroke-width="1"/><circle id="eJjLgQFyYC030" r="5.6" transform="matrix(1 0 0 1 85.7 121.3)" fill="rgb(246,249,249)" stroke="none" stroke-width="1"/><g id="eJjLgQFyYC031"><path id="eJjLgQFyYC032" d="M84.6,126.8C87.2,126.3,89.1,124,89.1,121.3C89.1,118.6,87.2,116.3,84.6,115.8C85,115.7,85.4,115.7,85.7,115.7C88.8,115.7,91.3,118.2,91.3,121.3C91.3,124.4,88.8,126.9,85.7,126.9C85.3,126.9,84.9,126.9,84.6,126.8L84.6,126.8Z" fill="rgb(218,228,234)" stroke="none" stroke-width="1"/><path id="eJjLgQFyYC033" d="M33.7,126.8C36.3,126.3,38.2,124,38.2,121.3C38.2,118.6,36.3,116.3,33.7,115.8C34.1,115.7,34.5,115.7,34.8,115.7C37.9,115.7,40.4,118.2,40.4,121.3C40.4,124.4,37.9,126.9,34.8,126.9C34.4,126.9,34,126.9,33.7,126.8L33.7,126.8Z" fill="rgb(218,228,234)" stroke="none" stroke-width="1"/></g></g></g><g id="eJjLgQFyYC034"><path id="eJjLgQFyYC035" d="M24.4,68.6L39.8,68.7C42.5,68.7,44.3,71.4,43.2,73.9L38.3,85.7C37.4,87.8,35.4,89.1,33.2,89.1L23,89C23,89,22.9,77.6,24.4,68.6Z" filter="url(#eJjLgQFyYC035-filter)" fill="rgb(208,209,193)" stroke="none" stroke-width="1"/><path id="eJjLgQFyYC036" d="M7.9,118.4C6.2,119,5,120.7,5,122.5C5,123.7,5.5,124.8,6.3,125.6C7.1,126.4,8.3,126.9,9.4,126.9L22.7,126.9C23.1,127.9,23.7,128.8,24.4,129.6C24.9,130.3,25.9,130.4,26.5,129.8C27.2,129.3,27.3,128.3,26.7,127.7C25.2,125.9,24.4,123.6,24.4,121.3C24.4,115.6,29,111,34.7,111C40.4,111,45,115.6,45,121.3C45,127,40.4,131.6,34.7,131.6C33.4,131.6,32.1,131.4,30.9,130.9C30.1,130.6,29.2,131,28.9,131.7C28.6,132.5,29,133.4,29.7,133.7C31.3,134.3,32.9,134.7,34.7,134.7C40,134.7,44.6,131.6,46.7,127.1L73.5,127.1C75.6,131.6,80.2,134.7,85.5,134.7C90.8,134.7,95.4,131.6,97.5,127.1L103.9,127.1C106.4,127.1,108.3,125.1,108.3,122.7C108.3,121.5,107.8,120.4,107,119.6C106.4,119,105.6,118.6,104.8,118.4L104.8,56.5C104.8,52.4,101.5,49.1,97.4,49.1L94,49.1C93.2,49.1,92.5,49.8,92.5,50.6C92.5,51.4,93.2,52.1,94,52.1L97.6,52.1C100,52.1,102,54.1,102,56.5L102,118.1L98.6,118.1C97.2,112.3,91.9,108,85.7,108C79.5,108,74.2,112.3,72.8,118.1L53.4,118.1L53.4,56.5C53.4,54.1,55.4,52.1,57.8,52.1L87.9,52.1C88.7,52.1,89.4,51.4,89.4,50.6C89.4,49.8,88.7,49.1,87.9,49.1L57.8,49.1C53.7,49.1,50.4,52.4,50.4,56.5L50.4,60.3C47.2,59.5,43.3,59.2,38.8,59.4C34.4,59.5,30.5,60,27.9,60.4C25.9,60.7,24.3,62.2,23.7,64.2C21.7,72,21.5,83.7,21.5,87.6C15.8,88.7,11.6,92,11.4,92.1C11.2,92.3,11,92.5,10.9,92.7C7.4,101.4,7.7,114.2,7.9,118.4L7.9,118.4ZM12.3,101.4C14,101.4,15.3,102.7,15.3,104.4L15.3,118.1L10.9,118.1C10.8,115.1,10.7,108,11.8,101.4L12.3,101.4ZM25.7,70.1L39.8,70.2C40.6,70.2,41.2,70.6,41.7,71.2C42.1,71.8,42.2,72.6,41.9,73.3L37,85.1C36.4,86.6,35,87.5,33.4,87.5L33.4,87.5L24.8,87.4C24.6,84.3,24.7,76.7,25.7,70.1ZM98.7,124C98.9,123.1,99,122.3,99,121.4C99,121.3,99,121.3,99,121.2L104.1,121.2C104.5,121.2,104.8,121.3,105.1,121.6C105.4,121.9,105.5,122.2,105.5,122.6C105.5,123.4,104.9,124,104.1,124C104.1,124,98.7,124,98.7,124ZM75.4,121.3C75.4,115.6,80,111,85.7,111C91.4,111,96,115.6,96,121.3C96,127,91.4,131.6,85.7,131.6C80,131.6,75.4,127,75.4,121.3ZM47.8,124C48,123.1,48.1,122.3,48.1,121.4C48.1,121.3,48.1,121.3,48.1,121.2L72.4,121.2C72.4,121.3,72.4,121.3,72.4,121.4C72.4,122.3,72.5,123.2,72.7,124L47.8,124ZM34.8,108C28.6,108,23.3,112.3,21.9,118.1L18.3,118.1L18.3,104.4C18.3,101.1,15.7,98.4,12.4,98.4C12.7,97,13.1,95.7,13.6,94.4C14.7,93.6,18.5,91.2,23.1,90.5L33.1,90.6L33.2,90.6C36,90.6,38.5,88.9,39.6,86.3L44.5,74.5C45.2,72.9,45,71,44,69.6C43,68.1,41.4,67.2,39.6,67.2L26,67.1C26.1,66.4,26.3,65.6,26.5,65C26.7,64.2,27.4,63.6,28.2,63.4C32.4,62.7,42.6,61.5,50.2,63.4L50.2,118L47.5,118C46.3,112.3,41,108,34.8,108L34.8,108ZM8,122.5C8,121.7,8.6,121.1,9.4,121.1L21.5,121.1C21.5,121.2,21.5,121.2,21.5,121.3C21.5,122.2,21.6,123.1,21.8,123.9L9.4,123.9C9,123.9,8.7,123.8,8.4,123.5C8.2,123.3,8,122.9,8,122.5Z" fill="rgb(0,0,0)" stroke="none" stroke-width="1"/><path id="eJjLgQFyYC037" d="M23.7,108C25.9,108,27.7,106.2,27.7,104L27.7,98.4C27.7,96.2,25.9,94.4,23.7,94.4C21.5,94.4,19.7,96.2,19.7,98.4L19.7,104C19.7,106.2,21.5,108,23.7,108ZM23.7,105C23.1,105,22.7,104.5,22.7,104L22.7,98.4C22.7,97.8,23.2,97.4,23.7,97.4C24.3,97.4,24.7,97.9,24.7,98.4L24.7,104C24.8,104.5,24.3,105,23.7,105Z" fill="rgb(0,0,0)" stroke="none" stroke-width="1"/><path id="eJjLgQFyYC038" d="M34.8,114.2C30.9,114.2,27.7,117.4,27.7,121.3C27.7,125.2,30.9,128.4,34.8,128.4C38.7,128.4,41.9,125.2,41.9,121.3C41.9,117.4,38.7,114.2,34.8,114.2ZM34.8,117.2C37.1,117.2,38.9,119,38.9,121.3C38.9,123.6,37.1,125.4,34.8,125.4C32.5,125.4,30.7,123.6,30.7,121.3C30.7,119,32.5,117.2,34.8,117.2Z" fill="rgb(0,0,0)" stroke="none" stroke-width="1"/><path id="eJjLgQFyYC039" d="M78.6,121.3C78.6,125.2,81.8,128.4,85.7,128.4C89.6,128.4,92.8,125.2,92.8,121.3C92.8,117.4,89.6,114.2,85.7,114.2C81.8,114.2,78.6,117.4,78.6,121.3ZM81.6,121.3C81.6,119,83.4,117.2,85.7,117.2C88,117.2,89.8,119,89.8,121.3C89.8,123.6,88,125.4,85.7,125.4C83.5,125.4,81.6,123.6,81.6,121.3Z" fill="rgb(0,0,0)" stroke="none" stroke-width="1"/><path id="eJjLgQFyYC040" d="M38.7,96.9C38.7,97.7,39.4,98.4,40.2,98.4L43.8,98.4C44.6,98.4,45.3,97.7,45.3,96.9C45.3,96.1,44.6,95.4,43.8,95.4L40.2,95.4C39.3,95.3,38.7,96,38.7,96.9Z" fill="rgb(0,0,0)" stroke="none" stroke-width="1"/><path id="eJjLgQFyYC041" d="M91.7,90.3C92.3,89.7,92.3,88.7,91.7,88.2L87.6,84L91.7,79.9C92.3,79.3,92.3,78.3,91.7,77.8C91.1,77.2,90.1,77.2,89.6,77.8L84.9,82.5L81.1,82.5C81.1,82.4,81,82.3,81,82.2L84.1,79.1C84.7,78.5,84.7,77.5,84.1,77C83.5,76.4,82.5,76.4,82,77L78.8,80C78.7,79.9,78.6,79.9,78.5,79.9L78.5,76.1L83.2,71.4C83.8,70.8,83.8,69.8,83.2,69.3C82.6,68.7,81.6,68.7,81.1,69.3L77,73.4L72.9,69.3C72.3,68.7,71.3,68.7,70.8,69.3C70.2,69.9,70.2,70.9,70.8,71.4L75.5,76.1L75.5,79.9C75.4,79.9,75.3,80,75.2,80L72.1,76.9C71.5,76.3,70.5,76.3,70,76.9C69.5,77.5,69.4,78.5,70,79L73.1,82.1C73,82.2,73,82.3,73,82.4L69.2,82.4L64.5,77.7C63.9,77.1,62.9,77.1,62.4,77.7C61.8,78.3,61.8,79.3,62.4,79.8L66.5,83.9L62.4,88C61.8,88.6,61.8,89.6,62.4,90.1C62.7,90.4,63.1,90.5,63.5,90.5C63.9,90.5,64.3,90.4,64.6,90.1L69.3,85.4L73.1,85.4C73.1,85.5,73.2,85.6,73.2,85.7L69.8,89C69.2,89.6,69.2,90.6,69.8,91.1C70.1,91.4,70.5,91.5,70.9,91.5C71.3,91.5,71.7,91.4,72,91.1L75,88C75.1,88.1,75.2,88.1,75.3,88.1L75.3,92L70.6,96.7C70,97.3,70,98.3,70.6,98.8C70.9,99.1,71.3,99.2,71.7,99.2C72.1,99.2,72.5,99.1,72.8,98.8L76.9,94.7L81,98.8C81.6,99.4,82.6,99.4,83.1,98.8C83.7,98.2,83.7,97.2,83.1,96.7L78.4,92L78.4,88.2C78.5,88.2,78.6,88.1,78.7,88.1L81.8,91.2C82.1,91.5,82.5,91.6,82.9,91.6C83.3,91.6,83.7,91.5,84,91.2C84.6,90.6,84.6,89.6,84,89.1L80.9,86C81,85.9,81,85.8,81,85.7L84.8,85.7L89.5,90.4C89.8,90.7,90.2,90.8,90.6,90.8C91,90.8,91.4,90.6,91.7,90.3L91.7,90.3ZM76.9,82.6C77.3,82.6,77.6,82.7,77.9,83C78.4,83.5,78.4,84.4,77.9,85C77.4,85.5,76.5,85.5,75.9,85C75.4,84.5,75.4,83.6,75.9,83L75.9,83L75.9,83C76.2,82.8,76.5,82.7,76.9,82.6L76.9,82.6L76.9,82.6Z" fill="rgb(0,0,0)" stroke="none" stroke-width="1"/></g></g><g id="eJjLgQFyYC042" transform="matrix(1 0 0 1 0.000001 0)"><g id="eJjLgQFyYC043_to" transform="translate(121.649998,80.850002)"><path id="eJjLgQFyYC043" d="M138.5,82L113.2,82C112.8,82,112.5,81.7,112.5,81.3L112.5,80.4C112.5,80,112.8,79.7,113.2,79.7L138.5,79.7C138.9,79.7,139.2,80,139.2,80.4L139.2,81.3C139.2,81.7,138.9,82,138.5,82Z" transform="translate(-125.849998,-80.850002)" fill="rgb(0,0,0)" stroke="none" stroke-width="1"/></g><g id="eJjLgQFyYC044_to" transform="translate(121.649998,97.150005)"><path id="eJjLgQFyYC044" d="M138.5,98.3L113.2,98.3C112.8,98.3,112.5,98,112.5,97.6L112.5,96.7C112.5,96.3,112.8,96,113.2,96L138.5,96C138.9,96,139.2,96.3,139.2,96.7L139.2,97.6C139.2,98,138.9,98.3,138.5,98.3Z" transform="translate(-125.849998,-97.150005)" fill="rgb(0,0,0)" stroke="none" stroke-width="1"/></g><g id="eJjLgQFyYC045_to" transform="translate(127.450002,88.450001)"><path id="eJjLgQFyYC045" d="M144.3,89.6L119,89.6C118.6,89.6,118.3,89.3,118.3,88.9L118.3,88C118.3,87.6,118.6,87.3,119,87.3L144.3,87.3C144.7,87.3,145,87.6,145,88L145,88.9C145,89.3,144.7,89.6,144.3,89.6Z" transform="translate(-131.650002,-88.450001)" fill="rgb(0,0,0)" stroke="none" stroke-width="1"/></g></g><g id="eJjLgQFyYC046" transform="matrix(1 0 0 1 0.000001 0)"/><g id="eJjLgQFyYC047" mask="url(#eJjLgQFyYC057)"><g id="eJjLgQFyYC048_to" transform="translate(-90.642395,134.25)"><g id="eJjLgQFyYC048" transform="translate(-64.817268,-134.25)"><path id="eJjLgQFyYC049" d="M40.7,135.4L8.7,135.4C8.1,135.4,7.7,135.1,7.7,134.7L7.7,133.8C7.7,133.4,8.1,133.1,8.7,133.1L40.7,133.1C41.3,133.1,41.7,133.4,41.7,133.8L41.7,134.7C41.7,135.1,41.3,135.4,40.7,135.4Z" transform="matrix(1 0 0 1 180.359663 0)" fill="rgb(0,0,0)" stroke="none" stroke-width="1"/><path id="eJjLgQFyYC050" d="M42.7,135.4L20.7,135.4C20.1,135.4,19.7,135.1,19.7,134.7L19.7,133.8C19.7,133.4,20.1,133.1,20.7,133.1L42.7,133.1C43.3,133.1,43.7,133.4,43.7,133.8L43.7,134.7C43.7,135.1,43.3,135.4,42.7,135.4Z" transform="matrix(1 0 0 1 260.359663 0)" fill="rgb(0,0,0)" stroke="none" stroke-width="1"/><path id="eJjLgQFyYC051" d="M42.7,135.4L20.7,135.4C20.1,135.4,19.7,135.1,19.7,134.7L19.7,133.8C19.7,133.4,20.1,133.1,20.7,133.1L42.7,133.1C43.3,133.1,43.7,133.4,43.7,133.8L43.7,134.7C43.7,135.1,43.3,135.4,42.7,135.4Z" transform="matrix(1 0 0 1 136.759663 0)" fill="rgb(0,0,0)" stroke="none" stroke-width="1"/><path id="eJjLgQFyYC052" d="M54.7,135.4L8.7,135.4C8.1,135.4,7.7,135.1,7.7,134.7L7.7,133.8C7.7,133.4,8.1,133.1,8.7,133.1L54.7,133.1C55.3,133.1,55.7,133.4,55.7,133.8L55.7,134.7C55.7,135.1,55.3,135.4,54.7,135.4Z" transform="matrix(1 0 0 1 220.959663 0)" fill="rgb(0,0,0)" stroke="none" stroke-width="1"/><path id="eJjLgQFyYC053" d="M42.7,135.4L20.7,135.4C20.1,135.4,19.7,135.1,19.7,134.7L19.7,133.8C19.7,133.4,20.1,133.1,20.7,133.1L42.7,133.1C43.3,133.1,43.7,133.4,43.7,133.8L43.7,134.7C43.7,135.1,43.3,135.4,42.7,135.4Z" transform="matrix(1 0 0 1 -19.000001 0)" fill="rgb(0,0,0)" stroke="none" stroke-width="1"/><path id="eJjLgQFyYC054" d="M42.7,135.4L20.7,135.4C20.1,135.4,19.7,135.1,19.7,134.7L19.7,133.8C19.7,133.4,20.1,133.1,20.7,133.1L42.7,133.1C43.3,133.1,43.7,133.4,43.7,133.8L43.7,134.7C43.7,135.1,43.3,135.4,42.7,135.4Z" transform="matrix(1 0 0 1 105.599999 0)" fill="rgb(0,0,0)" stroke="none" stroke-width="1"/><path id="eJjLgQFyYC055" d="M40.7,135.4L8.7,135.4C8.1,135.4,7.7,135.1,7.7,134.7L7.7,133.8C7.7,133.4,8.1,133.1,8.7,133.1L40.7,133.1C41.3,133.1,41.7,133.4,41.7,133.8L41.7,134.7C41.7,135.1,41.3,135.4,40.7,135.4Z" transform="matrix(1 0 0 1 25.599999 0)" fill="rgb(0,0,0)" stroke="none" stroke-width="1"/><path id="eJjLgQFyYC056" d="M54.7,135.4L8.7,135.4C8.1,135.4,7.7,135.1,7.7,134.7L7.7,133.8C7.7,133.4,8.1,133.1,8.7,133.1L54.7,133.1C55.3,133.1,55.7,133.4,55.7,133.8L55.7,134.7C55.7,135.1,55.3,135.4,54.7,135.4Z" transform="matrix(1 0 0 1 66.199999 0)" fill="rgb(0,0,0)" stroke="none" stroke-width="1"/></g></g><mask id="eJjLgQFyYC057" mask-type="luminance"><rect id="eJjLgQFyYC058" width="121.845873" height="32.038877" rx="0" ry="0" transform="matrix(1.190028 0 0 4.681812 2.5 0.000001)" fill="rgb(255,255,255)" stroke="none" stroke-width="0"/></mask></g></g></svg>