<svg id="eeuSIY4UP531" xmlns="http://www.w3.org/2000/svg" xmlns:xlink="http://www.w3.org/1999/xlink" viewBox="0 0 150 150" shape-rendering="geometricPrecision" text-rendering="geometricPrecision"><style><![CDATA[#eeuSIY4UP5332 {animation: eeuSIY4UP5332__m 2000ms linear infinite normal forwards}@keyframes eeuSIY4UP5332__m { 0% {d: path('M97.58,115.65L38.87,115.65C31.325424,105.590092,26.736778,93.624982,25.62,81.1C30.759042,77.257199,36.974271,75.123666,43.39,75C48.04,75,53.48,77.12,59.19,79.92C65.19,82.86,71.39,86.49,77.26,89.2C82.14,91.46,86.76,93.06,90.81,93.06C99.81,93.06,107.43,90.17,110.09,86.7C108.26044,97.20124,103.973831,107.121092,97.58,115.65Z')} 50% {d: path('M97.58,115.65L38.87,115.65C31.325424,105.590092,26.736778,93.624982,25.62,81.1C30.759042,77.257199,36.974272,83.609165,43.390001,83.485499C48.04,83.485499,53.48,77.12,59.19,79.92C65.19,82.86,71.664184,76.659674,77.534184,79.369674C82.414184,81.629674,92.35,91.139216,96.4,91.139216C105.4,91.139216,107.43,90.17,110.09,86.7C108.26044,97.20124,103.973831,107.121092,97.58,115.65Z')} 100% {d: path('M97.58,115.65L38.87,115.65C31.325424,105.590092,26.736778,93.624982,25.62,81.1C30.759042,77.257199,36.974271,75.123666,43.39,75C48.04,75,53.48,77.12,59.19,79.92C65.19,82.86,71.39,86.49,77.26,89.2C82.14,91.46,86.76,93.06,90.81,93.06C99.81,93.06,107.43,90.17,110.09,86.7C108.26044,97.20124,103.973831,107.121092,97.58,115.65Z')}} #eeuSIY4UP5333 {animation: eeuSIY4UP5333__m 2000ms linear infinite normal forwards}@keyframes eeuSIY4UP5333__m { 0% {d: path('M110.72,82.16C110.59,83.67,110.38,85.16,110.11,86.67L110.11,86.67C107.45,90.14,99.86,93.03,90.83,93.03C86.83,93.03,82.16,91.43,77.28,89.17L77.28,79.63C81.59,77,86.31,75,90.81,75C102.48,75,109.12,78.34,110.72,82.16Z')} 50% {d: path('M110.72,82.16C110.59,83.67,110.38,85.16,110.11,86.67L110.11,86.67C107.45,90.14,103.225,90.81,94.195,90.81C90.195,90.81,82.14,80.926291,77.26,78.666291L77.28,79.63C81.59,77,86.31,75,90.81,75C102.48,75,109.12,78.34,110.72,82.16Z')} 100% {d: path('M110.72,82.16C110.59,83.67,110.38,85.16,110.11,86.67L110.11,86.67C107.45,90.14,99.86,93.03,90.83,93.03C86.83,93.03,82.16,91.43,77.28,89.17L77.28,79.63C81.59,77,86.31,75,90.81,75C102.48,75,109.12,78.34,110.72,82.16Z')}} #eeuSIY4UP5335 {animation: eeuSIY4UP5335__m 2000ms linear infinite normal forwards}@keyframes eeuSIY4UP5335__m { 0% {d: path('M0,0L4.51,0L4.51,8.814314L0,8.814314L0,0Z')} 50% {d: path('M0,0L4.51,0L4.51,6.717791L0,6.551885L0,0Z')} 100% {d: path('M0,0L4.51,0L4.51,8.814314L0,8.814314L0,0Z')}} #eeuSIY4UP5341 {animation: eeuSIY4UP5341__m 2000ms linear infinite normal forwards}@keyframes eeuSIY4UP5341__m { 0% {d: path('M108.87,75C108.87,75.6,108.81,76.19,108.8,76.79C104.8,74.2,98.58,72.74,90.8,72.74C86.850195,72.878467,82.986031,73.929218,79.51,75.81L79.51,80.93C83.73,78.5,87.51,77.26,90.8,77.26C100.87,77.26,106.72,79.86,108.36,82.59C108.24,83.59,108.14,84.59,107.97,85.66C105.63,88.22,99.07,90.81,90.8,90.81C87.52,90.81,83.63,89.55,79.51,87.74L75,85.6C72.91,84.6,70.79,83.44,68.69,82.32C64.08,79.93,58.39,77,56.94,76.4C52.15,74.27,47.53,72.74,43.39,72.74C37.854576,72.791614,32.431243,74.306145,27.67,77.13C27.67,76.42,27.58,75.71,27.58,75L27.58,67.34C27.58,67.34,26.78,77,28.22,84C28.235566,84.086486,28.262465,84.170544,28.3,84.25C28.2,83.56,28.11,82.87,28.03,82.17C32.547708,79.038349,37.893728,77.318991,43.39,77.23C49.6,77.26,58,81.72,66,86C74.57,90.58,83.44,95.3,90.78,95.3C96.192276,95.387579,101.558037,94.288485,106.5,92.08C111.441963,89.871515,109.61,82.51,108.87,75Z')} 25% {d: path('M108.87,75.260326C108.87,75.860326,108.81,76.450326,108.8,77.050326C104.8,74.460326,98.58,73.000326,90.8,73.000326C86.850195,73.138793,82.986031,74.189544,79.51,76.070326L79.51,81.190326C83.73,78.760326,87.51,77.520326,90.8,77.520326C100.87,77.520326,106.72,80.120326,108.36,82.850326C108.24,83.850326,108.14,84.850326,107.97,85.920326C105.63,88.480326,99.07,91.070326,90.8,91.070326C87.52,91.070326,83.63,89.810326,79.51,88.000326L75,85.860326C72.91,84.860326,70.79,83.700326,68.69,82.580326C64.08,80.190326,58.39,77.260326,56.94,76.660326C52.15,74.530326,47.53,73.000326,43.39,73.000326C37.854576,73.05194,32.431243,74.566471,27.67,77.390326C27.67,76.680326,27.58,75.970326,27.58,75.260326L27.58,67.600326C27.58,67.600326,26.78,77.260326,28.22,84.260326C28.235566,84.346812,28.262465,84.43087,28.3,84.510326C28.2,83.820326,28.11,83.130326,28.03,82.430326C32.547708,79.298675,37.893728,77.579317,43.39,77.490326C49.6,77.520326,58,81.980326,66,86.260326C74.57,90.840326,83.44,95.560326,90.78,95.560326C96.192276,95.647905,101.558037,94.548811,106.5,92.340326C111.441963,90.131841,109.61,82.770326,108.87,75.260326Z')} 100% {d: path('M108.87,75.260326C108.87,75.860326,108.81,76.450326,108.8,77.050326C104.8,74.460326,98.58,73.000326,90.8,73.000326C86.850195,73.138793,82.986031,74.189544,79.51,76.070326L79.51,81.190326C83.73,78.760326,87.51,77.520326,90.8,77.520326C100.87,77.520326,106.72,80.120326,108.36,82.850326C108.24,83.850326,108.14,84.850326,107.97,85.920326C105.63,88.480326,99.07,91.070326,90.8,91.070326C87.52,91.070326,83.63,89.810326,79.51,88.000326L75,85.860326C72.91,84.860326,70.79,83.700326,68.69,82.580326C64.08,80.190326,58.39,77.260326,56.94,76.660326C52.15,74.530326,47.53,73.000326,43.39,73.000326C37.854576,73.05194,32.431243,74.566471,27.67,77.390326C27.67,76.680326,27.58,75.970326,27.58,75.260326L27.58,67.600326C27.58,67.600326,26.78,77.260326,28.22,84.260326C28.235566,84.346812,28.262465,84.43087,28.3,84.510326C28.2,83.820326,28.11,83.130326,28.03,82.430326C32.547708,79.298675,37.893728,77.579317,43.39,77.490326C49.6,77.520326,58,81.980326,66,86.260326C74.57,90.840326,83.44,95.560326,90.78,95.560326C96.192276,95.647905,101.558037,94.548811,106.5,92.340326C111.441963,90.131841,109.61,82.770326,108.87,75.260326Z')}} #eeuSIY4UP5343 {animation: eeuSIY4UP5343__tt 2000ms linear infinite normal forwards}@keyframes eeuSIY4UP5343__tt { 0% {transform: translate(72.739998px,99.840001px) translate(-72.739998px,-99.84px)} 25% {transform: translate(72.739998px,99.840001px) translate(-66px,-94px)} 50% {transform: translate(72.739998px,99.840001px) translate(-72.739998px,-99.84px)} 75% {transform: translate(72.739998px,99.840001px) translate(-66px,-94px)} 100% {transform: translate(72.739998px,99.840001px) translate(-72.739998px,-99.84px)}} #eeuSIY4UP5346 {animation: eeuSIY4UP5346__tt 2000ms linear infinite normal forwards}@keyframes eeuSIY4UP5346__tt { 0% {transform: translate(52.409908px,104.360092px) translate(-52.409908px,-104.360092px)} 25% {transform: translate(52.409908px,104.360092px) translate(-45px,-106px)} 50% {transform: translate(52.409908px,104.360092px) translate(-52.409908px,-104.360092px)} 75% {transform: translate(52.409908px,104.360092px) translate(-45px,-106px)} 100% {transform: translate(52.409908px,104.360092px) translate(-52.409908px,-104.360092px)}} #eeuSIY4UP5349 {animation: eeuSIY4UP5349__tt 2000ms linear infinite normal forwards}@keyframes eeuSIY4UP5349__tt { 0% {transform: translate(47.910001px,95.32px) translate(-47.909999px,-95.32px)} 25% {transform: translate(47.910001px,95.32px) translate(-47.909999px,-87px)} 50% {transform: translate(47.910001px,95.32px) translate(-47.909999px,-95.32px)} 75% {transform: translate(47.910001px,95.32px) translate(-47.909999px,-87px)} 100% {transform: translate(47.910001px,95.32px) translate(-47.909999px,-95.32px)}} #eeuSIY4UP5352 {animation: eeuSIY4UP5352__m 2000ms linear infinite normal forwards}@keyframes eeuSIY4UP5352__m { 0% {d: path('M25.059512,81.204559Q29.839998,75.027053,44.727734,75.274558C57.068293,75.479717,83.009344,90.84809,93.934671,93.084232C104.859998,95.320374,111.448589,90.161691,109.829671,83.760056C106.239671,69.564232,80.399671,76.114232,77.273855,79.644232')} 50% {d: path('M25.319839,73.06Q30.100323,83.237993,44.988059,83.485498C57.328618,83.690657,73.015325,70.840001,86.289998,84.28C99.564671,97.719999,112.499998,89.17,109.829671,83.485498C102.601022,68.097394,80.399671,75.839674,77.273855,79.369674')} 100% {d: path('M25.059512,80.930001Q29.839998,74.752495,44.727734,75C57.068293,75.205159,83.009344,90.573532,93.934671,92.809674C104.859998,95.045816,111.448589,89.887133,109.829671,83.485498C106.239671,69.289674,80.399671,75.839674,77.273855,79.369674')}}]]></style><g id="eeuSIY4UP532"><path id="eeuSIY4UP533" d="M110.32,40.11C105.484503,20.80294,88.133382,7.261537,68.23,7.261537C48.326618,7.261537,30.975497,20.80294,26.14,40.11L25.32,43.39L111.13,43.39Z" fill="rgb(230,233,237)" stroke="none" stroke-width="1"/><path id="eeuSIY4UP534" d="M52.42,29.84L68.23,29.84C68.23,29.84,59.23,32.1,59.23,43.39L43.39,43.39C43.39,32.1,52.42,29.84,52.42,29.84Z" fill="rgb(255,234,167)" stroke="none" stroke-width="1"/><path id="eeuSIY4UP535" d="M77.26,43.39L59.19,43.39C59.19,32.1,68.19,29.84,68.19,29.84C68.19,29.84,77.26,32.1,77.26,43.39Z" fill="rgb(255,234,167)" stroke="none" stroke-width="1"/><path id="eeuSIY4UP536" d="M93.06,43.39L77.26,43.39C77.26,32.1,68.26,29.84,68.26,29.84L84,29.84C84,29.84,93.06,32.1,93.06,43.39Z" fill="rgb(255,234,167)" stroke="none" stroke-width="1"/><path id="eeuSIY4UP537" d="M86.29,29.84L50.16,29.84C51.457378,22.015661,58.228834,16.281084,66.16,16.29L70.3,16.29C78.224346,16.294267,84.985562,22.023753,86.29,29.84Z" fill="rgb(252,215,112)" stroke="none" stroke-width="1"/><path id="eeuSIY4UP538" d="M23.15,140.39C21.647395,138.877967,20.805863,136.831678,20.81,134.7C20.810574,134.365785,20.830608,134.031886,20.87,133.7L115.58,133.7C115.622556,134.031709,115.645928,134.365597,115.65,134.7C115.65,139.118278,112.068278,142.7,107.65,142.7L28.85,142.7C26.713643,142.703035,24.663473,141.857789,23.15,140.35Z" fill="rgb(170,178,189)" stroke="none" stroke-width="1"/><path id="eeuSIY4UP539" d="M21.05,132.74L23.81,121.74C24.691106,118.15617,27.90946,115.640153,31.6,115.65L104.85,115.65C108.54054,115.640153,111.758894,118.15617,112.64,121.74L115.4,132.74C115.46,133.08,115.53,133.39,115.58,133.74L20.87,133.74C20.92,133.42,20.99,133.11,21.05,132.74Z" fill="rgb(204,209,217)" stroke="none" stroke-width="1"/><path id="eeuSIY4UP5310" d="M124.68,47.9C129.650563,47.9,133.68,51.929437,133.68,56.9L133.68,81.77C133.68,89.253458,127.613458,95.32,120.13,95.32L120.13,47.9Z" fill="rgb(170,178,189)" stroke="none" stroke-width="1"/><path id="eeuSIY4UP5311" d="M120.16,52.42C120.154527,54.910158,118.140139,56.929012,115.65,56.94L20.81,56.94C18.315954,56.9345,16.2955,54.914046,16.29,52.42L16.29,47.9C16.300988,45.409861,18.319842,43.395473,20.81,43.39L115.65,43.39C118.138523,43.3955,120.1545,45.411477,120.16,47.9Z" fill="rgb(204,209,217)" stroke="none" stroke-width="1"/><path id="eeuSIY4UP5312" d="M111.13,56.94L111.13,75C111.128582,77.392492,110.991696,79.782985,110.72,82.16C109.12,78.34,102.48,75,90.81,75C86.31,75,81.59,77,77.26,79.63L77.26,56.94Z" fill="rgb(230,233,237)" stroke="none" stroke-width="1"/><path id="eeuSIY4UP5313" d="M59.19,56.94L59.19,79.94C53.48,77.12,49.598061,83.745823,44.988062,83.745823C38.572333,83.869489,30.759042,77.257199,25.62,81.1C25.414756,79.073209,25.314622,77.037149,25.32,75L25.32,56.94Z" fill="rgb(230,233,237)" stroke="none" stroke-width="1"/><path id="eeuSIY4UP5314" d="M77.26,79.63L77.26,89.2C71.39,86.49,65.15,82.86,59.19,79.92L59.19,56.92L77.26,56.92Z" fill="rgb(255,234,167)" stroke="none" stroke-width="1"/><circle id="eeuSIY4UP5315" r="2.26" transform="matrix(1 0 0 1 32.1 124.68)" fill="rgb(0,0,0)" stroke="none" stroke-width="1"/><circle id="eeuSIY4UP5316" r="2.26" transform="matrix(1 0 0 1 41.13 124.68)" fill="rgb(0,0,0)" stroke="none" stroke-width="1"/><circle id="eeuSIY4UP5317" r="2.26" transform="matrix(1 0 0 1 50.16 124.68)" fill="rgb(0,0,0)" stroke="none" stroke-width="1"/><path id="eeuSIY4UP5318" d="M28.85,140.48L107.6,140.48C110.302043,140.476853,112.642659,138.605191,113.24,135.97L23.24,135.97C23.831494,138.596366,26.157885,140.466602,28.85,140.48Z" fill="none" stroke="none" stroke-width="1"/><path id="eeuSIY4UP5319" d="M90.64,41.13C89.7,34.44,84.76,32.44,83.7,32.13L75.62,32.13C77.770088,34.672274,79.086254,37.814314,79.39,41.13Z" fill="none" stroke="none" stroke-width="1"/><path id="eeuSIY4UP5320" d="M108.87,75L108.87,59.19L79.52,59.19L79.52,67.19C92.4,68.25,108.43,70.52,108.87,75Z" fill="none" stroke="none" stroke-width="1"/><path id="eeuSIY4UP5321" d="M75,66.8L75,59.19L61.45,59.19L61.45,66.19L63.51,66.19C63.51,66.19,68.41,66.33,75,66.8Z" fill="none" stroke="none" stroke-width="1"/><path id="eeuSIY4UP5322" d="M26,122.28L23.71,131.45L112.76,131.45L110.47,122.28C109.827222,119.705266,107.513756,117.89903,104.86,117.9L31.6,117.9C28.948737,117.900033,26.638693,119.706817,26,122.28Z" fill="none" stroke="none" stroke-width="1"/><path id="eeuSIY4UP5323" d="M47.93,29.5L47.93,29.5C49.370442,20.554605,57.099389,13.983093,66.16,14L70.3,14C79.348693,13.981454,87.07085,20.538082,88.52,29.47L88.52,29.47C92.37321,32.151805,94.821043,36.419917,95.19,41.1L108.19,41.1L108.07,40.64C103.497695,22.329386,87.047852,9.482097,68.175,9.482097C49.302148,9.482097,32.852305,22.329386,28.28,40.64L28.17,41.1L41.17,41.1C41.568842,36.414952,44.050422,32.156619,47.93,29.5Z" fill="none" stroke="none" stroke-width="1"/><path id="eeuSIY4UP5324" d="M70.3,18.55L66.16,18.55C60.352451,18.529787,55.142646,22.117258,53.09,27.55L83.36,27.55C81.311025,22.118825,76.104791,18.531069,70.3,18.55Z" fill="none" stroke="none" stroke-width="1"/><path id="eeuSIY4UP5325" d="M45.81,41.13L57.07,41.13C57.366437,37.814336,58.679603,34.671121,60.83,32.13L52.75,32.13C51.64,32.46,46.74,34.46,45.81,41.13Z" fill="none" stroke="none" stroke-width="1"/><path id="eeuSIY4UP5326" d="M61.62,41.13L74.83,41.13C74.458305,37.163666,71.915875,33.731385,68.23,32.22C64.535907,33.722897,61.986934,37.158806,61.62,41.13Z" fill="none" stroke="none" stroke-width="1"/><path id="eeuSIY4UP5327" d="M124.68,50.16L122.42,50.16L122.42,92.84C127.662528,91.746187,131.419249,87.125421,131.42,81.77L131.42,56.94C131.420065,53.211075,128.40886,50.182,124.68,50.16Z" fill="none" stroke="none" stroke-width="1"/><path id="eeuSIY4UP5328" d="M28.3,84.28C29.821437,94.788007,33.855567,104.773852,40.06,113.39L96.4,113.39C101.029782,106.960429,104.461425,99.748219,106.53,92.1L96.72,98.54C96.72,98.54,31.24,91.22,28.3,84.28Z" fill="none" stroke="none" stroke-width="1"/><rect id="eeuSIY4UP5329" width="99.35" height="9.03" rx="2.26" ry="2.26" transform="matrix(1 0 0 1 18.55 45.65)" fill="none" stroke="none" stroke-width="1"/><polygon id="eeuSIY4UP5330" points="56.94,66.19 56.94,59.19 27.58,59.19 27.58,67.34 36.61,66.19 56.94,66.19" fill="none" stroke="none" stroke-width="1"/></g><g id="eeuSIY4UP5331"><path id="eeuSIY4UP5332" d="M97.58,115.65L38.87,115.65C31.325424,105.590092,26.736778,93.624982,25.62,81.1C30.759042,77.257199,36.974271,75.123666,43.39,75C48.04,75,53.48,77.12,59.19,79.92C65.19,82.86,71.39,86.49,77.26,89.2C82.14,91.46,86.76,93.06,90.81,93.06C99.81,93.06,107.43,90.17,110.09,86.7C108.26044,97.20124,103.973831,107.121092,97.58,115.65Z" fill="rgb(255,130,110)" stroke="none" stroke-width="1"/><path id="eeuSIY4UP5333" d="M110.72,82.16C110.59,83.67,110.38,85.16,110.11,86.67L110.11,86.67C107.45,90.14,99.86,93.03,90.83,93.03C86.83,93.03,82.16,91.43,77.28,89.17L77.28,79.63C81.59,77,86.31,75,90.81,75C102.48,75,109.12,78.34,110.72,82.16Z" transform="matrix(1 0 0 1 0.205 0)" fill="rgb(252,110,81)" stroke="none" stroke-width="1"/></g><g id="eeuSIY4UP5334" transform="matrix(1 0 0 0.707375 0.000001 20.658494)"><path id="eeuSIY4UP5335" d="M0,0L4.51,0L4.51,8.814314L0,8.814314L0,0Z" transform="matrix(1 0 0 4.859743 75.01 51.158185)" fill="rgb(0,0,0)" stroke="none" stroke-width="0"/><rect id="eeuSIY4UP5336" width="4.51" height="8.814314" rx="0" ry="0" transform="matrix(1 0 0 3.229861 56.94 53.535298)" fill="rgb(0,0,0)" stroke="none" stroke-width="0"/></g><path id="eeuSIY4UP5337" d="M124.68,45.65L122,45.65C121.05747,42.948104,118.511568,41.135903,115.65,41.13L112.89,41.13L112.5,39.57C107.417277,19.257069,89.16418,5.008537,68.225,5.008537C47.28582,5.008537,29.032723,19.257069,23.95,39.57L23.56,41.13L20.81,41.13C19.008372,41.122026,17.277654,41.831451,15.999951,43.101649C14.722248,44.371847,14.00264,46.098356,14,47.9L14,52.42C14.005517,56.160585,17.039411,59.190004,20.78,59.19L23.03,59.19L23.03,75C23.074308,88.641799,27.076107,101.977657,34.55,113.39L31.55,113.39C26.818935,113.379129,22.691337,116.598655,21.55,121.19L18.79,132.19C18.590557,133.008369,18.48984,133.847679,18.49,134.69C18.489968,137.433067,19.583058,140.063062,21.527385,141.998006C23.471713,143.932949,26.106965,145.013303,28.85,145L107.6,145C113.286248,144.994487,117.894487,140.386248,117.9,134.7C117.90172,133.856976,117.797572,133.017072,117.59,132.2L114.84,121.2C113.695468,116.610731,109.56983,113.392733,104.84,113.4L101.84,113.4C109.326334,101.988082,113.338708,88.648239,113.39,75L113.39,59.19L115.65,59.19C116.417861,59.182312,117.178781,59.043655,117.9,58.78L117.9,97.58L120.16,97.58C124.357457,97.585307,128.38496,95.922278,131.355824,92.95704C134.326689,89.991802,135.99735,85.967459,136,81.77L136,56.94C135.997351,53.941318,134.802903,51.066654,132.679702,48.949081C130.556502,46.831507,127.678678,45.644691,124.68,45.65ZM28.33,40.65C32.902305,22.339386,49.352148,9.492097,68.225,9.492097C87.097852,9.492097,103.547695,22.339386,108.12,40.65L108.24,41.11L95.24,41.11C94.85346,36.42837,92.386992,32.167105,88.52,29.5L88.52,29.5C87.084049,20.556157,79.358368,13.983815,70.3,14L66.16,14C57.109058,13.980727,49.383634,20.536531,47.93,29.47L47.93,29.47C44.07679,32.151805,41.628957,36.419917,41.26,41.1L28.26,41.1ZM53.09,27.58C55.142646,22.147258,60.352451,18.559787,66.16,18.58L70.3,18.58C76.104791,18.561069,81.311025,22.148825,83.36,27.58ZM74.83,41.13L61.62,41.13C61.986934,37.158806,64.535907,33.722897,68.23,32.22C71.915875,33.731385,74.458305,37.163666,74.83,41.13ZM60.83,32.13C58.679603,34.671121,57.366437,37.814336,57.07,41.13L45.81,41.13C46.74,34.46,51.64,32.46,52.75,32.13ZM83.7,32.13C84.76,32.47,89.7,34.47,90.64,41.13L79.39,41.13C79.086254,37.814314,77.770088,34.672274,75.62,32.13ZM107.6,140.51L28.85,140.51C26.150391,140.505913,23.813164,138.63364,23.22,136L113.22,136C112.612384,138.616002,110.285625,140.470785,107.6,140.48ZM104.85,117.93C107.503756,117.92903,109.817222,119.735266,110.46,122.31L112.75,131.48L23.75,131.48L26,122.28C26.639588,119.703194,28.955008,117.895432,31.61,117.9ZM108.87,59.19L108.87,75C109.61,82.51,106.53,92.1,106.53,92.1L106.53,92.13C104.458063,99.767724,101.026548,106.969502,96.4,113.39L40.06,113.39C33.855567,104.773852,29.821437,94.788007,28.3,84.28C28.262465,84.200544,28.235566,84.116486,28.22,84.03C26.78,77.03,27.58,67.34,27.58,67.34L27.58,59.19M117.9,52.42C117.900012,53.664269,116.894257,54.674494,115.65,54.68L20.81,54.68C19.561836,54.68,18.55,53.668164,18.55,52.42L18.55,47.9C18.555506,46.655743,19.565731,45.649988,20.81,45.65L115.65,45.65C116.892641,45.65,117.9,46.657359,117.9,47.9ZM131.45,81.77C131.449249,87.125421,127.692528,91.746187,122.45,92.84L122.45,50.16L124.71,50.16C128.450585,50.165517,131.480004,53.199411,131.48,56.94Z" fill="rgb(0,0,0)" stroke="none" stroke-width="1"/><g id="eeuSIY4UP5338" display="none"><path id="eeuSIY4UP5339" d="M90.81,90.81C99.08,90.81,105.64,88.22,107.98,85.66C108.15,84.66,108.25,83.66,108.37,82.59C106.73,79.86,100.88,77.26,90.81,77.26C87.54,77.26,83.74,78.5,79.52,80.93L79.52,87.74C83.64,89.55,87.53,90.81,90.81,90.81Z" fill="none" stroke="none" stroke-width="1"/><path id="eeuSIY4UP5340" d="M75,85.6L68.69,82.32C70.79,83.44,72.91,84.56,75,85.6Z" fill="none" stroke="none" stroke-width="1"/><path id="eeuSIY4UP5341" d="M108.87,75C108.87,75.6,108.81,76.19,108.8,76.79C104.8,74.2,98.58,72.74,90.8,72.74C86.850195,72.878467,82.986031,73.929218,79.51,75.81L79.51,80.93C83.73,78.5,87.51,77.26,90.8,77.26C100.87,77.26,106.72,79.86,108.36,82.59C108.24,83.59,108.14,84.59,107.97,85.66C105.63,88.22,99.07,90.81,90.8,90.81C87.52,90.81,83.63,89.55,79.51,87.74L75,85.6C72.91,84.6,70.79,83.44,68.69,82.32C64.08,79.93,58.39,77,56.94,76.4C52.15,74.27,47.53,72.74,43.39,72.74C37.854576,72.791614,32.431243,74.306145,27.67,77.13C27.67,76.42,27.58,75.71,27.58,75L27.58,67.34C27.58,67.34,26.78,77,28.22,84C28.235566,84.086486,28.262465,84.170544,28.3,84.25C28.2,83.56,28.11,82.87,28.03,82.17C32.547708,79.038349,37.893728,77.318991,43.39,77.23C49.6,77.26,58,81.72,66,86C74.57,90.58,83.44,95.3,90.78,95.3C96.192276,95.387579,101.558037,94.288485,106.5,92.08C111.441963,89.871515,109.61,82.51,108.87,75Z" fill="rgb(0,0,0)" stroke="none" stroke-width="1"/></g><g id="eeuSIY4UP5342"><g id="eeuSIY4UP5343" transform="translate(72.739998,99.840001) translate(-72.739998,-99.84)"><circle id="eeuSIY4UP5344" r="4.52" transform="matrix(1 0 0 1 72.74 99.84)" fill="rgb(252,110,81)" stroke="none" stroke-width="1"/><path id="eeuSIY4UP5345" d="M72.74,93.06C68.995509,93.06,65.96,96.095509,65.96,99.84C65.96,103.584491,68.995509,106.62,72.74,106.62C76.484491,106.62,79.52,103.584491,79.52,99.84C79.52,98.041832,78.805681,96.317313,77.534184,95.045816C76.262687,93.774319,74.538168,93.06,72.74,93.06ZM72.74,102.06C71.822306,102.059856,70.995811,101.504796,70.648479,100.655371C70.301148,99.805946,70.501949,98.830823,71.156624,98.187735C71.8113,97.544646,72.789853,97.361289,73.632941,97.723732C74.476029,98.086175,75.016242,98.92245,75,99.84C74.994523,101.085888,73.985888,102.094523,72.74,102.1Z" fill="rgb(0,0,0)" stroke="none" stroke-width="1"/></g><g id="eeuSIY4UP5346" transform="translate(52.409908,104.360092) translate(-52.409908,-104.360092)"><circle id="eeuSIY4UP5347" r="4.52" transform="matrix(1 0 0 1 52.42 104.35)" fill="rgb(252,110,81)" stroke="none" stroke-width="1"/><path id="eeuSIY4UP5348" d="M52.42,97.58C49.67593,97.575956,47.199997,99.226366,46.148018,101.760784C45.096039,104.295202,45.675471,107.213824,47.615823,109.154177C49.556176,111.094529,52.474798,111.673961,55.009216,110.621982C57.543634,109.570003,59.194044,107.09407,59.19,104.35C59.184493,100.613316,56.156684,97.585507,52.42,97.58ZM52.42,106.58C51.171836,106.58,50.16,105.568164,50.16,104.32C50.16,103.071836,51.171836,102.06,52.42,102.06C53.668164,102.06,54.68,103.071836,54.68,104.32C54.688026,104.92457,54.453467,105.507147,54.028762,105.93749C53.604057,106.367833,53.024623,106.610053,52.42,106.61Z" fill="rgb(0,0,0)" stroke="none" stroke-width="1"/></g><g id="eeuSIY4UP5349" transform="translate(47.910001,95.32) translate(-47.909999,-95.32)"><circle id="eeuSIY4UP5350" r="4.52" transform="matrix(1 0 0 1 43.39 88.55)" fill="rgb(252,110,81)" stroke="none" stroke-width="1"/><path id="eeuSIY4UP5351" d="M50.16,88.55C50.164044,85.80593,48.513634,83.329997,45.979216,82.278018C43.444798,81.226039,40.526176,81.805471,38.585823,83.745823C36.645471,85.686176,36.066039,88.604798,37.118018,91.139216C38.169997,93.673634,40.64593,95.324044,43.39,95.32C47.126684,95.314493,50.154493,92.286684,50.16,88.55ZM43.39,90.81C42.141836,90.81,41.13,89.798164,41.13,88.55C41.13,87.301836,42.141836,86.29,43.39,86.29C44.638164,86.29,45.65,87.301836,45.65,88.55C45.65,89.149389,45.411894,89.724229,44.988061,90.148061C44.564229,90.571894,43.989389,90.81,43.39,90.81Z" fill="rgb(0,0,0)" stroke="none" stroke-width="1"/></g></g><path id="eeuSIY4UP5352" d="M25.059512,81.204559Q29.839998,75.027053,44.727734,75.274558C57.068293,75.479717,83.009344,90.84809,93.934671,93.084232C104.859998,95.320374,111.448589,90.161691,109.829671,83.760056C106.239671,69.564232,80.399671,76.114232,77.273855,79.644232" transform="matrix(1 0 0 1 0.000002 0)" fill="none" stroke="rgb(7,7,7)" stroke-width="5"/></svg>