<svg id="efM4JZEmQId1" xmlns="http://www.w3.org/2000/svg" xmlns:xlink="http://www.w3.org/1999/xlink" viewBox="0 0 150 150" shape-rendering="geometricPrecision" text-rendering="geometricPrecision"><style><![CDATA[#efM4JZEmQId31 {animation: efM4JZEmQId31_c_o 2500ms linear infinite normal forwards}@keyframes efM4JZEmQId31_c_o { 0% {opacity: 0} 41.2% {opacity: 1} 81.2% {opacity: 0} 100% {opacity: 0}} #efM4JZEmQId41 {animation: efM4JZEmQId41_c_o 2500ms linear infinite normal forwards}@keyframes efM4JZEmQId41_c_o { 0% {opacity: 0} 20% {opacity: 0} 60.8% {opacity: 1} 100% {opacity: 0.029703}}]]></style><g id="efM4JZEmQId2"><path id="efM4JZEmQId3" d="M86.48,31.05L97.79,31.05L97.79,41L86.48,41Z" fill="rgb(118,113,113)" stroke="none" stroke-width="1"/><path id="efM4JZEmQId4" d="M93.87,31.05L97.79,31.05L97.79,41L93.87,41Z" fill="rgb(102,98,98)" stroke="none" stroke-width="1"/><path id="efM4JZEmQId5" d="M55.25,13.38L78.83,13.38L78.83,23.28L55.25,23.28Z" fill="rgb(118,113,113)" stroke="none" stroke-width="1"/><path id="efM4JZEmQId6" d="M74.07,13.38L78.83,13.38L78.83,23.28L74.07,23.28Z" fill="rgb(102,98,98)" stroke="none" stroke-width="1"/><path id="efM4JZEmQId7" d="M37,94C37,95.562966,38.267034,96.83,39.83,96.83L44.07,96.83C45.629059,96.824491,46.89001,95.559069,46.89,94L46.89,32.47L37,32.47Z" fill="rgb(118,113,113)" stroke="none" stroke-width="1"/><path id="efM4JZEmQId8" d="M48.31,31.06L48.31,29.64C48.336994,26.921337,50.531397,24.722492,53.25,24.69L54.67,24.69C55.448721,24.69,56.08,24.058721,56.08,23.28L56.08,13.38C56.063678,12.613019,55.437155,11.999826,54.67,12L53.25,12C43.502832,11.999986,35.596549,19.892846,35.58,29.64L35.58,31.06C35.579991,31.435694,35.729916,31.795857,35.996509,32.060573C36.263102,32.325288,36.624315,32.472664,37,32.47L46.9,32.47C47.676453,32.464551,48.304551,31.836453,48.31,31.06Z" fill="rgb(153,147,147)" stroke="none" stroke-width="1"/><path id="efM4JZEmQId9" d="M95.15,31.87L98.4,31.59C98.462898,31.420213,98.496706,31.241033,98.5,31.06L98.5,29.64C98.483451,19.892846,90.577168,11.999986,80.83,12L79.41,12C78.642845,11.999826,78.016322,12.613019,78,13.38L78,23.28C78,24.058721,78.631279,24.69,79.41,24.69L80.83,24.69C83.572015,24.689863,85.80258,26.898122,85.83,29.64L85.83,31.06C85.83,31.838721,86.461279,32.47,87.24,32.47L93.93,32.47Z" fill="rgb(153,147,147)" stroke="none" stroke-width="1"/><path id="efM4JZEmQId10" d="M109.9,54.67L103.58,45.34L95.83,40L93.83,39.53L86.48,39.53L83.91,41.14C78.279425,44.654392,74.155839,50.135875,72.34,56.52L72.34,57.89L109.89,57.89L109.89,54.67Z" fill="rgb(153,147,147)" stroke="none" stroke-width="1"/><path id="efM4JZEmQId11" d="M43,32.47L43,94C43,95.562966,41.732966,96.83,40.17,96.83L44.09,96.83C45.641238,96.813555,46.890087,95.551325,46.89,94L46.89,32.47Z" fill="rgb(102,98,98)" stroke="none" stroke-width="1"/><path id="efM4JZEmQId12" d="M80.83,12L79.41,12C79.224407,11.999711,79.040691,12.037135,78.87,12.11C87.803119,13.107022,94.56425,20.651428,94.58,29.64L94.58,31.06C94.574505,31.840336,93.940356,32.470019,93.16,32.47L97.09,32.47C97.868721,32.47,98.5,31.838721,98.5,31.06L98.5,29.64C98.483451,19.892846,90.577168,11.999986,80.83,12Z" fill="rgb(118,113,113)" stroke="none" stroke-width="1"/><path id="efM4JZEmQId13" d="M111.93,56.52C110.112708,50.142038,105.993527,44.665238,100.37,41.15L97.79,39.54L93.87,39.54L96.44,41.15C102.064838,44.663808,106.184445,50.141175,108,56.52L108,57.89L111.92,57.89Z" fill="rgb(118,113,113)" stroke="none" stroke-width="1"/><path id="efM4JZEmQId14" d="M69.5,57.93L69.5,60.75C69.499991,61.125694,69.649916,61.485857,69.916509,61.750573C70.183102,62.015288,70.544315,62.162664,70.92,62.16L113.35,62.16C114.128721,62.16,114.76,61.528721,114.76,60.75L114.76,57.93C114.76,57.151279,114.128721,56.52,113.35,56.52L70.92,56.52C70.544315,56.517336,70.183102,56.664712,69.916509,56.929427C69.649916,57.194143,69.499991,57.554306,69.5,57.93Z" fill="rgb(118,113,113)" stroke="none" stroke-width="1"/><path id="efM4JZEmQId15" d="M113.35,56.52L109.42,56.52C110.200356,56.519981,110.834505,57.149664,110.84,57.93L110.84,60.75C110.834505,61.530336,110.200356,62.160019,109.42,62.16L113.35,62.16C114.128721,62.16,114.76,61.528721,114.76,60.75L114.76,57.93C114.76,57.151279,114.128721,56.52,113.35,56.52Z" fill="rgb(102,98,98)" stroke="none" stroke-width="1"/><path id="efM4JZEmQId16" d="M43,63.59L43.17,63.59L43.73,63.53L44.45,62.79L44.61,57.99L44.06,56.83L43.26,56.53L37,56.53C36.221279,56.53,35.59,57.161279,35.59,57.94L35.59,62.19C35.595495,62.964813,36.225167,63.590019,37,63.59Z" fill="rgb(153,147,147)" stroke="none" stroke-width="1"/><path id="efM4JZEmQId17" d="M46.89,56.52L43,56.52C43.778721,56.52,44.41,57.151279,44.41,57.93L44.41,62.18C44.41,62.553955,44.261447,62.912594,43.997021,63.177021C43.732594,63.441447,43.373955,63.59,43,63.59L46.92,63.59C47.700356,63.590019,48.334505,62.960336,48.34,62.18L48.34,57.93C48.337408,57.549874,48.182513,57.186658,47.909985,56.921647C47.637456,56.656636,47.27005,56.51196,46.89,56.52Z" fill="rgb(118,113,113)" stroke="none" stroke-width="1"/><path id="efM4JZEmQId18" d="M113.35,55.24L112.88,55.24C110.841436,48.933425,106.631816,43.554466,101,40.06L99,38.83L99,32.83C99.45489,32.336812,99.708244,31.690937,99.71,31.02L99.71,29.64C99.71,19.14659,91.20341,10.64,80.71,10.64L79.41,10.64C78.396284,10.635656,77.465553,11.199501,77,12.1L57,12.1C56.527691,11.231575,55.618553,10.690695,54.63,10.69L53.25,10.69C42.75659,10.69,34.25,19.19659,34.25,29.69L34.25,31.11C34.250695,32.098553,34.791575,33.007691,35.66,33.48L35.66,55.56C34.791575,56.032309,34.250695,56.941447,34.25,57.93L34.25,62.18C34.250695,63.168553,34.791575,64.077691,35.66,64.55L35.66,78.26C35.66,78.966924,36.233076,79.54,36.94,79.54C37.646924,79.54,38.22,78.966924,38.22,78.26L38.22,64.87L45.56,64.87L45.56,89.87L38.27,89.87L38.27,84.24C38.27,83.533076,37.696924,82.96,36.99,82.96C36.283076,82.96,35.71,83.533076,35.71,84.24L35.71,94C35.715497,96.267609,37.552391,98.104503,39.82,98.11L44.06,98.11C46.327609,98.104503,48.164503,96.267609,48.17,94L48.17,64.55C49.040732,64.078712,49.585144,63.170082,49.59,62.18L49.59,57.93C49.585144,56.939918,49.040732,56.031288,48.17,55.56L48.17,33.43C49.040732,32.958712,49.585144,32.050082,49.59,31.06L49.59,29.64C49.606434,27.628733,51.238673,26.005413,53.25,26L54.67,26C55.650563,25.978821,56.542526,25.427566,57,24.56L77,24.56C77.471011,25.452748,78.400652,26.008218,79.41,26L80.83,26C82.854605,26.005494,84.494506,27.645395,84.5,29.67L84.5,31.09C84.498052,31.759776,84.747903,32.405821,85.2,32.9L85.2,38.9L83.2,40.13C77.611182,43.621215,73.432761,48.971719,71.4,55.24L70.92,55.24C69.432728,55.23999,68.225508,56.442738,68.22,57.93L68.22,60.75C68.225508,62.237262,69.432728,63.44001,70.92,63.44L75,63.44C75.706924,63.44,76.28,62.866924,76.28,62.16C76.28,61.453076,75.706924,60.88,75,60.88L70.92,60.88C70.883825,60.882791,70.848129,60.870337,70.821541,60.845648C70.794953,60.82096,70.779892,60.786283,70.78,60.75L70.78,57.93C70.779892,57.893717,70.794953,57.85904,70.821541,57.834352C70.848129,57.809663,70.883825,57.797209,70.92,57.8L113.35,57.8C113.421797,57.8,113.48,57.858203,113.48,57.93L113.48,60.75C113.48,60.821797,113.421797,60.88,113.35,60.88L81,60.88C80.293076,60.88,79.72,61.453076,79.72,62.16C79.72,62.866924,80.293076,63.44,81,63.44L113.36,63.44C114.823807,63.407472,115.994939,62.214159,116,60.75L116,57.93C115.994516,56.446631,114.793369,55.245484,113.31,55.24ZM87.76,33.75L96.51,33.75L96.51,38.26L87.76,38.26ZM47,57.93L47,62.18C46.994745,62.25339,46.933577,62.310188,46.86,62.31L37,62.31C36.965522,62.31,36.932456,62.296304,36.908076,62.271924C36.883696,62.247544,36.87,62.214478,36.87,62.18L36.87,57.93C36.87,57.895522,36.883696,57.862456,36.908076,57.838076C36.932456,57.813696,36.965522,57.8,37,57.8L46.9,57.8C46.959912,57.814186,47.001657,57.868454,47,57.93ZM45.58,55.24L38.27,55.24L38.27,33.75L45.61,33.75ZM44.06,95.52L39.82,95.52C38.975539,95.520158,38.286344,94.844303,38.27,94L38.27,92.43L45.61,92.43L45.61,94C45.599022,94.846608,44.906661,95.525569,44.06,95.52ZM54.67,23.41L53.25,23.41C51.595048,23.407346,50.006825,24.062228,48.834722,25.23058C47.66262,26.398932,47.00265,27.985048,47,29.64L47,31.06C47.000108,31.096283,46.985047,31.13096,46.958459,31.155648C46.931871,31.180337,46.896175,31.192791,46.86,31.19L37,31.19C36.965522,31.19,36.932456,31.176304,36.908076,31.151924C36.883696,31.127544,36.87,31.094478,36.87,31.06L36.87,29.64C36.881007,20.596519,44.206527,13.266526,53.25,13.25L54.67,13.25C54.704478,13.25,54.737544,13.263696,54.761924,13.288076C54.786304,13.312456,54.8,13.345522,54.8,13.38L54.8,23.28C54.8,23.314478,54.786304,23.347544,54.761924,23.371924C54.737544,23.396304,54.704478,23.41,54.67,23.41ZM57.36,14.66L76.72,14.66L76.72,22L57.36,22ZM80.83,23.41L79.41,23.41C79.338203,23.41,79.28,23.351797,79.28,23.28L79.28,13.38C79.28,13.308203,79.338203,13.25,79.41,13.25L80.83,13.25C89.877379,13.26102,97.20898,20.592621,97.22,29.64L97.22,31.06C97.22,31.131797,97.161797,31.19,97.09,31.19L87.19,31.19C87.118203,31.19,87.06,31.131797,87.06,31.06L87.06,29.64C87.054494,26.201549,84.268451,23.415506,80.83,23.41ZM84.59,42.23L86.85,40.82L97.43,40.82L99.69,42.23C102.709235,44.121172,105.301041,46.621021,107.3,49.57L77,49.57C78.998959,46.621021,81.590765,44.121172,84.61,42.23ZM75.46,52.13L108.82,52.13C109.340258,53.136095,109.79455,54.174953,110.18,55.24L74.1,55.24C74.481187,54.173257,74.935601,53.134117,75.46,52.13Z" fill="rgb(0,0,0)" stroke="none" stroke-width="1"/><rect id="efM4JZEmQId19" width="61.87" height="2.08" rx="0" ry="0" transform="matrix(1 0 0 1 44.06 105.81)" fill="rgb(212,239,255)" stroke="none" stroke-width="1"/><rect id="efM4JZEmQId20" width="6.36" height="2.08" rx="0" ry="0" transform="matrix(1 0 0 1 99.57 105.81)" fill="rgb(183,212,226)" stroke="none" stroke-width="1"/><path id="efM4JZEmQId21" d="M143.72,123C143.676031,131.289399,136.949509,137.989123,128.66,138L21.34,138C13.017069,138,6.27,131.252931,6.27,122.93C6.27,114.607069,13.017069,107.86,21.34,107.86L128.66,107.86C132.666415,107.865282,136.506048,109.46464,139.331499,112.305101C142.15695,115.145561,143.735944,118.993613,143.72,123Z" fill="rgb(153,147,147)" stroke="none" stroke-width="1"/><path id="efM4JZEmQId22" d="M143.72,123C143.676031,131.289399,136.949509,137.989123,128.66,138L120.36,138C128.682931,138,135.43,131.252931,135.43,122.93C135.43,114.607069,128.682931,107.86,120.36,107.86L128.66,107.86C132.666415,107.865282,136.506048,109.46464,139.331499,112.305101C142.15695,115.145561,143.735944,118.993613,143.72,123Z" fill="rgb(118,113,113)" stroke="none" stroke-width="1"/><path id="efM4JZEmQId23" d="M128.66,129.73L21.34,129.73C17.601032,129.73,14.57,126.698968,14.57,122.96C14.57,119.221032,17.601032,116.19,21.34,116.19L128.66,116.19C132.398968,116.19,135.43,119.221032,135.43,122.96C135.43,126.698968,132.398968,129.73,128.66,129.73Z" fill="rgb(118,113,113)" stroke="none" stroke-width="1"/><circle id="efM4JZEmQId24" r="6.77" transform="matrix(1 0 0 1 57.11 122.96)" fill="rgb(255,255,255)" stroke="none" stroke-width="1"/><circle id="efM4JZEmQId25" r="6.77" transform="matrix(1 0 0 1 92.89 122.96)" fill="rgb(255,255,255)" stroke="none" stroke-width="1"/><circle id="efM4JZEmQId26" r="6.77" transform="matrix(1 0 0 1 21.34 122.96)" fill="rgb(255,255,255)" stroke="none" stroke-width="1"/><circle id="efM4JZEmQId27" r="6.77" transform="matrix(1 0 0 1 128.66 122.96)" fill="rgb(255,255,255)" stroke="none" stroke-width="1"/><path id="efM4JZEmQId28" d="M21.35,139.31C12.320144,139.31,5,131.989856,5,122.96C5,113.930144,12.320144,106.61,21.35,106.61L112.29,106.61C112.996924,106.61,113.57,107.183076,113.57,107.89C113.57,108.596924,112.996924,109.17,112.29,109.17L21.35,109.17C13.733993,109.17,7.56,115.343993,7.56,122.96C7.56,130.576007,13.733993,136.75,21.35,136.75L38.48,136.75C39.186924,136.75,39.76,137.323076,39.76,138.03C39.76,138.736924,39.186924,139.31,38.48,139.31Z" fill="rgb(0,0,0)" stroke="none" stroke-width="1"/><path id="efM4JZEmQId29" d="M21.35,131C16.904108,131,13.3,127.395892,13.3,122.95C13.3,118.504108,16.904108,114.9,21.35,114.9L128.66,114.9C133.105892,114.9,136.71,118.504108,136.71,122.95C136.71,127.395892,133.105892,131,128.66,131ZM128.65,117.46C125.617957,117.46,123.16,119.917957,123.16,122.95C123.16,125.982043,125.617957,128.44,128.65,128.44C131.682043,128.44,134.14,125.982043,134.14,122.95C134.134484,119.921863,131.678142,117.469995,128.65,117.47ZM99.71,118.68C101.337259,121.294116,101.337259,124.605884,99.71,127.22L98.94,128.44L122.6,128.44L121.84,127.22C120.193518,124.61141,120.193518,121.28859,121.84,118.68L122.6,117.46L98.94,117.46ZM92.89,117.46C89.863198,117.454612,87.403059,119.900027,87.390277,122.926807C87.377494,125.953587,89.816892,128.419692,92.843631,128.439869C95.870371,128.460046,98.342429,126.026681,98.37,123C98.380649,121.538775,97.808318,120.133596,96.779751,119.095644C95.751185,118.057693,94.351262,117.472623,92.89,117.47ZM63.89,118.68C65.536482,121.28859,65.536482,124.61141,63.89,127.22L63.13,128.44L86.83,128.44L86.07,127.22C84.423518,124.61141,84.423518,121.28859,86.07,118.68L86.83,117.46L63.17,117.46ZM57.08,117.46C54.058452,117.476637,51.618326,119.931781,51.62023,122.953375C51.622133,125.974968,54.065349,128.427036,57.086915,128.439867C60.108482,128.452698,62.572435,126.021468,62.6,123C62.610649,121.538775,62.038318,120.133596,61.009751,119.095644C59.981185,118.057693,58.581262,117.472623,57.12,117.47ZM28.08,118.68C29.726482,121.28859,29.726482,124.61141,28.08,127.22L27.32,128.44L51.06,128.44L50.29,127.22C48.662741,124.605884,48.662741,121.294116,50.29,118.68L51.06,117.46L27.4,117.46ZM21.27,117.46C18.253902,117.498587,15.833828,119.963256,15.850314,122.979556C15.8668,125.995857,18.31367,128.433925,21.33001,128.439541C24.34635,128.445157,26.802282,126.016218,26.83,123C26.840649,121.538775,26.268318,120.133596,25.239751,119.095644C24.211185,118.057693,22.811262,117.472623,21.35,117.47Z" fill="rgb(0,0,0)" stroke="none" stroke-width="1"/><path id="efM4JZEmQId30" d="M48.1,139.31C47.393076,139.31,46.82,138.736924,46.82,138.03C46.82,137.323076,47.393076,136.75,48.1,136.75L128.66,136.75C136.276007,136.75,142.45,130.576007,142.45,122.96C142.45,115.343993,136.276007,109.17,128.66,109.17L121.86,109.17C121.153076,109.17,120.58,108.596924,120.58,107.89C120.58,107.183076,121.153076,106.61,121.86,106.61L128.66,106.61C137.689856,106.61,145.01,113.930144,145.01,122.96C145.01,131.989856,137.689856,139.31,128.66,139.31Z" fill="rgb(0,0,0)" stroke="none" stroke-width="1"/></g><g id="efM4JZEmQId31" opacity="0"><path id="efM4JZEmQId32" d="M89.31,76.3C89.31,77.862966,90.577034,79.13,92.14,79.13C93.702966,79.13,94.97,77.862966,94.97,76.3L94.97,70.65C94.97,69.638938,94.430605,68.704679,93.555,68.199148C92.679395,67.693617,91.600605,67.693617,90.725,68.199148C89.849395,68.704679,89.31,69.638938,89.31,70.65Z" fill="rgb(230,255,255)" stroke="none" stroke-width="1"/><path id="efM4JZEmQId33" d="M75.17,76.3C75.17,77.311062,75.709395,78.245321,76.585,78.750852C77.460605,79.256383,78.539395,79.256383,79.415,78.750852C80.290605,78.245321,80.83,77.311062,80.83,76.3L80.83,70.65C80.83,69.638938,80.290605,68.704679,79.415,68.199148C78.539395,67.693617,77.460605,67.693617,76.585,68.199148C75.709395,68.704679,75.17,69.638938,75.17,70.65Z" fill="rgb(230,255,255)" stroke="none" stroke-width="1"/><path id="efM4JZEmQId34" d="M103.45,76.3C103.45,77.311062,103.989395,78.245321,104.865,78.750852C105.740605,79.256383,106.819395,79.256383,107.695,78.750852C108.570605,78.245321,109.11,77.311062,109.11,76.3L109.11,70.65C109.11,69.638938,108.570605,68.704679,107.695,68.199148C106.819395,67.693617,105.740605,67.693617,104.865,68.199148C103.989395,68.704679,103.45,69.638938,103.45,70.65Z" fill="rgb(230,255,255)" stroke="none" stroke-width="1"/><path id="efM4JZEmQId35" d="M92.14,67.82C91.394758,67.806636,90.674944,68.090962,90.14,68.61C90.680031,69.136596,90.989288,69.855796,91,70.61L91,76.3C90.989288,77.054204,90.680031,77.773404,90.14,78.3C90.674944,78.819038,91.394758,79.103364,92.14,79.09C93.699145,79.106683,94.978051,77.85908,95,76.3L95,70.65C95,69.087034,93.732966,67.82,92.17,67.82Z" fill="rgb(179,242,255)" stroke="none" stroke-width="1"/><path id="efM4JZEmQId36" d="M78,67.82C77.254758,67.806636,76.534944,68.090962,76,68.61C76.540031,69.136596,76.849288,69.855796,76.86,70.61L76.86,76.3C76.849288,77.054204,76.540031,77.773404,76,78.3C76.534944,78.819038,77.254758,79.103364,78,79.09C79.562966,79.09,80.83,77.822966,80.83,76.26L80.83,70.65C80.83,69.899437,80.53184,69.179616,80.001112,68.648888C79.470384,68.11816,78.750563,67.82,78,67.82Z" fill="rgb(179,242,255)" stroke="none" stroke-width="1"/><path id="efM4JZEmQId37" d="M106.28,67.82C105.534354,67.804396,104.813708,68.089051,104.28,68.61C104.820031,69.136596,105.129288,69.855796,105.14,70.61L105.14,76.3C105.129288,77.054204,104.820031,77.773404,104.28,78.3C104.813708,78.820949,105.534354,79.105604,106.28,79.09C107.842966,79.09,109.11,77.822966,109.11,76.26L109.11,70.65C109.11,69.087034,107.842966,67.82,106.28,67.82Z" fill="rgb(179,242,255)" stroke="none" stroke-width="1"/><path id="efM4JZEmQId38" d="M92.14,66.54C91.044772,66.532005,89.991653,66.96149,89.214378,67.733133C88.437103,68.504776,87.999971,69.554742,88,70.65L88,76.3C88,78.56989,89.84011,80.41,92.11,80.41C94.37989,80.41,96.22,78.56989,96.22,76.3L96.22,70.65C96.214631,68.394015,94.395885,66.561896,92.14,66.54ZM93.69,76.3C93.69,77.156041,92.996041,77.85,92.14,77.85C91.283959,77.85,90.59,77.156041,90.59,76.3L90.59,70.65C90.59,70.096238,90.885428,69.584541,91.365,69.307661C91.844572,69.03078,92.435428,69.03078,92.915,69.307661C93.394572,69.584541,93.69,70.096238,93.69,70.65Z" fill="rgb(0,0,0)" stroke="none" stroke-width="1"/><path id="efM4JZEmQId39" d="M78,66.54C75.73011,66.54,73.89,68.38011,73.89,70.65L73.89,76.3C73.89,78.56989,75.73011,80.41,78,80.41C80.26989,80.41,82.11,78.56989,82.11,76.3L82.11,70.65C82.104503,68.382391,80.267609,66.545497,78,66.54ZM79.55,76.3C79.55,77.156041,78.856041,77.85,78,77.85C77.143959,77.85,76.45,77.156041,76.45,76.3L76.45,70.65C76.45,70.096238,76.745428,69.584541,77.225,69.307661C77.704572,69.03078,78.295428,69.03078,78.775,69.307661C79.254572,69.584541,79.55,70.096238,79.55,70.65Z" fill="rgb(0,0,0)" stroke="none" stroke-width="1"/><path id="efM4JZEmQId40" d="M106.28,66.54C104.01011,66.54,102.17,68.38011,102.17,70.65L102.17,76.3C102.17,78.56989,104.01011,80.41,106.28,80.41C108.54989,80.41,110.39,78.56989,110.39,76.3L110.39,70.65C110.384503,68.382391,108.547609,66.545497,106.28,66.54ZM107.83,76.3C107.83,77.156041,107.136041,77.85,106.28,77.85C105.423959,77.85,104.73,77.156041,104.73,76.3L104.73,70.65C104.73,70.096238,105.025428,69.584541,105.505,69.307661C105.984572,69.03078,106.575428,69.03078,107.055,69.307661C107.534572,69.584541,107.83,70.096238,107.83,70.65Z" fill="rgb(0,0,0)" stroke="none" stroke-width="1"/></g><g id="efM4JZEmQId41" opacity="0"><path id="efM4JZEmQId42" d="M89.31,93.27C89.31,94.832966,90.577034,96.1,92.14,96.1C93.702966,96.1,94.97,94.832966,94.97,93.27L94.97,87.61C94.97,86.047034,93.702966,84.78,92.14,84.78C90.577034,84.78,89.31,86.047034,89.31,87.61Z" fill="rgb(230,255,255)" stroke="none" stroke-width="1"/><path id="efM4JZEmQId43" d="M75.17,93.27C75.17,94.281062,75.709395,95.215321,76.585,95.720852C77.460605,96.226383,78.539395,96.226383,79.415,95.720852C80.290605,95.215321,80.83,94.281062,80.83,93.27L80.83,87.61C80.83,86.047034,79.562966,84.78,78,84.78C76.437034,84.78,75.17,86.047034,75.17,87.61Z" fill="rgb(230,255,255)" stroke="none" stroke-width="1"/><path id="efM4JZEmQId44" d="M103.45,93.27C103.45,94.281062,103.989395,95.215321,104.865,95.720852C105.740605,96.226383,106.819395,96.226383,107.695,95.720852C108.570605,95.215321,109.11,94.281062,109.11,93.27L109.11,87.61C109.11,86.047034,107.842966,84.78,106.28,84.78C104.717034,84.78,103.45,86.047034,103.45,87.61Z" fill="rgb(230,255,255)" stroke="none" stroke-width="1"/><path id="efM4JZEmQId45" d="M92.14,84.79C91.394758,84.776636,90.674944,85.060962,90.14,85.58C90.680954,86.105962,90.990383,86.825563,91,87.58L91,93.24C90.993723,93.995143,90.683764,94.715977,90.14,95.24C90.949403,96.030275,92.152716,96.260391,93.1966,95.824531C94.240484,95.388671,94.922883,94.371202,94.93,93.24L94.93,87.61C94.924491,86.050941,93.659069,84.78999,92.1,84.79Z" fill="rgb(179,242,255)" stroke="none" stroke-width="1"/><path id="efM4JZEmQId46" d="M78,84.79C77.254758,84.776636,76.534944,85.060962,76,85.58C76.540954,86.105962,76.850383,86.825563,76.86,87.58L76.86,93.24C76.853723,93.995143,76.543764,94.715977,76,95.24C76.809403,96.030275,78.012716,96.260391,79.0566,95.824531C80.100484,95.388671,80.782883,94.371202,80.79,93.24L80.79,87.61C80.7847,86.066418,79.543437,84.811808,78,84.79Z" fill="rgb(179,242,255)" stroke="none" stroke-width="1"/><path id="efM4JZEmQId47" d="M106.28,84.79C105.534354,84.774396,104.813708,85.059051,104.28,85.58C104.820954,86.105962,105.130383,86.825563,105.14,87.58L105.14,93.24C105.133723,93.995143,104.823764,94.715977,104.28,95.24C104.812694,95.763647,105.533121,96.051818,106.28,96.04C107.842966,96.04,109.11,94.772966,109.11,93.21L109.11,87.61C109.104491,86.050941,107.839069,84.78999,106.28,84.79Z" fill="rgb(179,242,255)" stroke="none" stroke-width="1"/><path id="efM4JZEmQId48" d="M92.14,83.51C91.046503,83.502015,89.994906,83.930131,89.217921,84.699608C88.440937,85.469086,88.002631,86.516477,88,87.61L88,93.27C88,95.53989,89.84011,97.38,92.11,97.38C94.37989,97.38,96.22,95.53989,96.22,93.27L96.22,87.61C96.214575,85.355674,94.394272,83.526448,92.14,83.51ZM93.69,93.27C93.69,94.126041,92.996041,94.82,92.14,94.82C91.283959,94.82,90.59,94.126041,90.59,93.27L90.59,87.61C90.59,86.753959,91.283959,86.06,92.14,86.06C92.996041,86.06,93.69,86.753959,93.69,87.61Z" fill="rgb(0,0,0)" stroke="none" stroke-width="1"/><path id="efM4JZEmQId49" d="M78,83.51C75.734009,83.509993,73.895513,85.344016,73.89,87.61L73.89,93.27C73.89,95.53989,75.73011,97.38,78,97.38C80.26989,97.38,82.11,95.53989,82.11,93.27L82.11,87.61C82.104487,85.344016,80.265991,83.509993,78,83.51ZM79.55,93.27C79.55,94.126041,78.856041,94.82,78,94.82C77.143959,94.82,76.45,94.126041,76.45,93.27L76.45,87.61C76.45,86.753959,77.143959,86.06,78,86.06C78.856041,86.06,79.55,86.753959,79.55,87.61Z" fill="rgb(0,0,0)" stroke="none" stroke-width="1"/><path id="efM4JZEmQId50" d="M106.28,83.51C104.014009,83.509993,102.175513,85.344016,102.17,87.61L102.17,93.27C102.17,95.53989,104.01011,97.38,106.28,97.38C108.54989,97.38,110.39,95.53989,110.39,93.27L110.39,87.61C110.384487,85.344016,108.545991,83.509993,106.28,83.51ZM107.83,93.27C107.83,94.126041,107.136041,94.82,106.28,94.82C105.423959,94.82,104.73,94.126041,104.73,93.27L104.73,87.61C104.73,86.753959,105.423959,86.06,106.28,86.06C107.136041,86.06,107.83,86.753959,107.83,87.61Z" fill="rgb(0,0,0)" stroke="none" stroke-width="1"/></g></svg>