<svg id="er6lKTJDzIN1" xmlns="http://www.w3.org/2000/svg" xmlns:xlink="http://www.w3.org/1999/xlink" viewBox="0 0 150 150" shape-rendering="geometricPrecision" text-rendering="geometricPrecision"><style><![CDATA[#er6lKTJDzIN2_ts {animation: er6lKTJDzIN2_ts__ts 2000ms linear infinite normal forwards}@keyframes er6lKTJDzIN2_ts__ts { 0% {transform: translate(106.022163px,59.890665px) scale(1,1)} 25% {transform: translate(106.022163px,59.890665px) scale(0.95,0.95)} 50% {transform: translate(106.022163px,59.890665px) scale(1,1)} 75% {transform: translate(106.022163px,59.890665px) scale(0.95,0.95)} 100% {transform: translate(106.022163px,59.890665px) scale(1,1)}} #er6lKTJDzIN31 {animation: er6lKTJDzIN31__tt 2000ms linear infinite normal forwards}@keyframes er6lKTJDzIN31__tt { 0% {transform: translate(17.063289px,71.867831px) translate(-21px,-71px)} 25% {transform: translate(17.063289px,71.867831px) translate(-17.063289px,-71.962521px)} 50% {transform: translate(17.063289px,71.867831px) translate(-21px,-71px)} 75% {transform: translate(17.063289px,71.867831px) translate(-17.063289px,-71.962521px)} 100% {transform: translate(17.063289px,71.867831px) translate(-21px,-71px)}} #er6lKTJDzIN32 {animation: er6lKTJDzIN32__tt 2000ms linear infinite normal forwards}@keyframes er6lKTJDzIN32__tt { 0% {transform: translate(38.562818px,121.162518px) translate(-50px,-118px)} 25% {transform: translate(38.562818px,121.162518px) translate(-38.562818px,-121.162518px)} 50% {transform: translate(38.562818px,121.162518px) translate(-50px,-118px)} 75% {transform: translate(38.562818px,121.162518px) translate(-38.562818px,-121.162518px)} 100% {transform: translate(38.562818px,121.162518px) translate(-50px,-118px)}} #er6lKTJDzIN33 {animation: er6lKTJDzIN33__tt 2000ms linear infinite normal forwards}@keyframes er6lKTJDzIN33__tt { 0% {transform: translate(30.26282px,94.862522px) translate(-38px,-91px)} 25% {transform: translate(30.26282px,94.862522px) translate(-30.26282px,-94.862522px)} 50% {transform: translate(30.26282px,94.862522px) translate(-38px,-91px)} 75% {transform: translate(30.26282px,94.862522px) translate(-30.26282px,-94.862522px)} 100% {transform: translate(30.26282px,94.862522px) translate(-38px,-91px)}} #er6lKTJDzIN34 {animation: er6lKTJDzIN34__tt 2000ms linear infinite normal forwards}@keyframes er6lKTJDzIN34__tt { 0% {transform: translate(135.073345px,71.867998px) translate(-126.037189px,-76.637478px)} 25% {transform: translate(135.073345px,71.867998px) translate(-131px,-73px)} 50% {transform: translate(135.073345px,71.867998px) translate(-126.037189px,-76.637478px)} 75% {transform: translate(135.073345px,71.867998px) translate(-131px,-73px)} 100% {transform: translate(135.073345px,71.867998px) translate(-126.037189px,-76.637478px)}} #er6lKTJDzIN35 {animation: er6lKTJDzIN35__tt 2000ms linear infinite normal forwards}@keyframes er6lKTJDzIN35__tt { 0% {transform: translate(113.613125px,22.725472px) translate(-104.576969px,-27.437478px)} 25% {transform: translate(113.613125px,22.725472px) translate(-110px,-24px)} 50% {transform: translate(113.613125px,22.725472px) translate(-104.576969px,-27.437478px)} 75% {transform: translate(113.613125px,22.725472px) translate(-110px,-24px)} 100% {transform: translate(113.613125px,22.725472px) translate(-104.576969px,-27.437478px)}} #er6lKTJDzIN36 {animation: er6lKTJDzIN36__tt 2000ms linear infinite normal forwards}@keyframes er6lKTJDzIN36__tt { 0% {transform: translate(121.873341px,49.025468px) translate(-112.837185px,-53.737474px)} 25% {transform: translate(121.873341px,49.025468px) translate(-117px,-50px)} 50% {transform: translate(121.873341px,49.025468px) translate(-112.837185px,-53.737474px)} 75% {transform: translate(121.873341px,49.025468px) translate(-117px,-50px)} 100% {transform: translate(121.873341px,49.025468px) translate(-112.837185px,-53.737474px)}}]]></style><g id="er6lKTJDzIN2_ts" transform="translate(106.022163,59.890665) scale(1,1)"><g id="er6lKTJDzIN2" transform="translate(-107.349998,-59.899999)"><path id="er6lKTJDzIN3" d="M130.7,117.5C130.4,117.9,130.1,118.3,129.7,118.7C113.6,138.8,88.7,147.7,65,144.3C61.9,127.9,56.9,106.4,49.8,88.2C41.4,66.8,27.3,48.7,16.3,36.8C17.5,34.9,18.9,33.1,20.3,31.3C34.9,13.1,56.7,4,78.4,5.1C80.8,21.8,85.7,46.5,95.7,65.4C105.5,84,119.9,103.7,130.7,117.5Z" fill="rgb(252,201,44)" stroke="none" stroke-width="1"/><path id="er6lKTJDzIN4" d="M60,143.8C54.700001,124,47.9,104.923459,42.2,90.423459C35.6,73.523459,27.125652,56.7,14,39.9L15.6,38.6C27.86282,56.3,37.5,72.623459,44.1,89.623459C49.8,104.323459,56.7,122.10672,62,143.4L60,143.8Z" fill="rgb(252,201,44)" stroke="none" stroke-width="1"/><path id="er6lKTJDzIN5" d="M132.3,114.7C118,95.7,108.5,75.0363,100.7,60.1363C92.9,45.2363,85,29.2,80.7,5.5L82.7,5.1C87,28.5,94.8,44.4363,102.5,59.1363C110.3,73.9363,119.8,94.5,134,113.4L132.3,114.7Z" fill="rgb(252,201,44)" stroke="none" stroke-width="1"/></g></g><g id="er6lKTJDzIN6"><g id="er6lKTJDzIN7"><path id="er6lKTJDzIN8" d="M102.5,110C101.8,112,100.6,113.5,97.8,114.8L85.8,120.4C83.1,121.7,80.3,122.7,77.6,121.7C75.4,120.9,73.6,118.8,72.1,115.5L51,70.2C49.9,67.9,49.6,65.4,50,62.9L52,49.1L52.2,49C53.1,48.6,59.3,45.6,61.9,44.3L62.8,43.8L63,43.9C64,44.4,72.5,49.1,75,50.6C77.4,52.1,79,54.5,79.9,56.3L101,101.5C102.8,105,103.3,107.8,102.5,110Z" fill="rgb(255,255,255)" stroke="none" stroke-width="1"/></g><g id="er6lKTJDzIN9"><path id="er6lKTJDzIN10" d="M61.6,35.1L63.4,38.9C63.6,39.4,63.6,39.9,63.5,40.4C63.3,40.9,63,41.3,62.5,41.5L50.7,47C49.7,47.5,48.5,47,48.1,46L46.3,42.2C46.1,41.7,46.1,41.2,46.2,40.7C46.4,40.2,46.7,39.8,47.2,39.6L58.9,34.1C59.9,33.7,61.1,34.1,61.6,35.1Z" fill="rgb(255,255,255)" stroke="none" stroke-width="1"/></g><g id="er6lKTJDzIN11"><g id="er6lKTJDzIN12"><path id="er6lKTJDzIN13" d="M72.8,48.4C73.6,48.9,76.5,50.2,77,50.5C79.1,51.8,80.6,54,81.7,56.2L102.8,101.4C107.6,109.4,102.2,113.7,97.5,115.8L85.5,121.4C80.9,123.6,72.7,123.2,70.6,116L49.5,70.8C48.5,68.7,48.2,66.3,48.5,64C50.5,62.3,47.5,60.6,49.8,56.7C51.4,53.9,60,55.5,64.5,53.8C69,52.1,71.1,49.1,72.8,48.4Z" fill="rgb(229,155,108)" stroke="none" stroke-width="1"/></g><g id="er6lKTJDzIN14"><path id="er6lKTJDzIN15" d="M61.4,72L84.6,114.5C89.4,122.5,105.5,111.7,100.9,113.8L85.5,121.4C80.9,123.6,72.7,123.2,70.6,116L49.5,70.8C48.5,68.7,48.2,66.3,48.5,64C50.5,62.3,45.1,59.3,49.8,56.7C52.7,55.1,60.4,69.8,61.4,72Z" fill="rgb(229,155,108)" stroke="none" stroke-width="1"/></g><g id="er6lKTJDzIN16"><path id="er6lKTJDzIN17" d="M62,33.9L61.1,33C60.3,31.4,58.6,33.2,57,34L52.4,36.1C50.8,36.9,42.9,39.4,43.6,41L45.4,43.5C46.2,45.1,54.3,41.1,55.9,40.3L60.5,38.2C62.1,37.5,62.8,35.6,62,33.9Z" fill="rgb(200,201,202)" stroke="none" stroke-width="1"/></g><g id="er6lKTJDzIN18"><path id="er6lKTJDzIN19" d="M57.9,31.9L46.2,37.4C45.1,37.9,44.3,38.8,43.9,39.9C43.5,41,43.5,42.2,44.1,43.3L45.9,47.1C46.6,48.5,47.9,49.4,49.4,49.6L49.8,49.6L47.4,63.2C46.9,66.1,47.3,69,48.5,71.6L70.5,118.7C73.1,124.2,79.6,126.5,85,124L99.6,117.2C102.2,116,104.2,113.8,105.2,111C106.2,108.3,106.1,105.3,104.8,102.6L82.8,55.5C81.6,52.9,79.6,50.7,77,49.2L65,42.3L65.2,42C65.4,41.7,65.5,41.4,65.6,41.1C66,40,66,38.8,65.4,37.7L63.6,33.9C63.1,32.8,62.2,32,61.1,31.6C60.2,31.4,59,31.4,57.9,31.9ZM102.5,110C101.8,112,100.6,113.5,97.8,114.8L85.8,120.4C83.1,121.7,80.3,122.7,77.6,121.7C75.4,120.9,73.6,118.8,72.1,115.5L51,70.2C49.9,67.9,49.6,65.4,50,62.9L52,49.1L52.2,49C53.1,48.6,59.3,45.6,61.9,44.3L62.8,43.8L63,43.9C64,44.4,72.5,49.1,75,50.6C77.4,52.1,79,54.5,79.9,56.3L101,101.5C102.8,105,103.3,107.8,102.5,110ZM61.6,35.1L63.4,38.9C63.6,39.4,63.6,39.9,63.5,40.4C63.3,40.9,63,41.3,62.5,41.5L50.7,47C49.7,47.5,48.5,47,48.1,46L46.3,42.2C46.1,41.7,46.1,41.2,46.2,40.7C46.4,40.2,46.7,39.8,47.2,39.6L58.9,34.1C59.9,33.7,61.1,34.1,61.6,35.1Z" fill="rgb(0,0,0)" stroke="none" stroke-width="1"/></g></g><g id="er6lKTJDzIN20"><path id="er6lKTJDzIN21" d="M49,43.1L46.7,38.8C46.5,38.5,46.7,38.1,47,38L47.3,37.8C47.6,37.6,48,37.8,48.1,38.1L50.4,42.4C50.6,42.7,50.4,43.1,50.1,43.2L49.8,43.4C49.5,43.5,49.1,43.4,49,43.1Z" fill="rgb(0,0,0)" stroke="none" stroke-width="1"/></g><g id="er6lKTJDzIN22"><path id="er6lKTJDzIN23" d="M52.3,41.5L50,37.2C49.8,36.9,50,36.5,50.3,36.4L50.6,36.2C50.9,36,51.3,36.2,51.4,36.5L53.7,40.8C53.9,41.1,53.7,41.5,53.4,41.6L53.1,41.8C52.9,41.9,52.5,41.8,52.3,41.5Z" fill="rgb(0,0,0)" stroke="none" stroke-width="1"/></g><g id="er6lKTJDzIN24"><path id="er6lKTJDzIN25" d="M46.3,43.5L62.3,36.1C62.8,35.9,63.3,36.1,63.5,36.5L63.7,36.8C63.9,37.3,63.7,37.8,63.3,38L47.3,45.4C46.8,45.6,46.3,45.4,46.1,45L45.9,44.7C45.6,44.2,45.8,43.7,46.3,43.5Z" fill="rgb(0,0,0)" stroke="none" stroke-width="1"/></g><g id="er6lKTJDzIN26"><path id="er6lKTJDzIN27" d="M55.6,40L53.3,35.7C53.1,35.4,53.3,35,53.6,34.9L53.9,34.7C54.2,34.5,54.6,34.7,54.7,35L57,39.3C57.2,39.6,57,40,56.7,40.1L56.4,40.3C56.1,40.4,55.7,40.3,55.6,40Z" fill="rgb(0,0,0)" stroke="none" stroke-width="1"/></g><g id="er6lKTJDzIN28"><path id="er6lKTJDzIN29" d="M59.5,38.6L57.2,34.3C57,34,57.2,33.6,57.5,33.5L57.8,33.3C58.1,33.1,58.5,33.3,58.6,33.6L60.9,37.9C61.1,38.2,60.9,38.6,60.6,38.7L60.3,38.9C60,39,59.6,38.9,59.5,38.6Z" fill="rgb(0,0,0)" stroke="none" stroke-width="1"/></g></g><g id="er6lKTJDzIN30"><path id="er6lKTJDzIN31" d="M27.2,66.4L17.9,65.6C17.3,65.5,16.9,66.1,17.2,66.6L17.9,68C18.1,68.4,17.9,68.8,17.5,69L6.7,73.9C6.3,74.1,6.2,74.5,6.3,74.9L7.7,77.9C7.9,78.3,8.3,78.4,8.7,78.3L19.4,73.4C19.8,73.2,20.2,73.4,20.4,73.8L21.1,75.2C21.3,75.7,22,75.8,22.4,75.3L27.8,67.6C28,67.1,27.7,66.5,27.2,66.4Z" transform="translate(17.063289,71.867831) translate(-21,-71)" fill="rgb(195,13,35)" stroke="none" stroke-width="1"/><path id="er6lKTJDzIN32" d="M48.6,115.894089L39.3,115.094089C38.7,114.994089,38.3,115.594089,38.6,116.094089L39.3,117.494089C39.5,117.894089,39.3,118.294089,38.9,118.494089L28.2,123.394089C27.8,123.594089,27.7,123.994089,27.8,124.394089L29.2,127.394089C29.4,127.794089,29.8,127.894089,30.2,127.794089L40.9,122.894089C41.3,122.694089,41.7,122.894089,41.9,123.294089L42.6,124.694089C42.8,125.194089,43.5,125.294089,43.9,124.794089L49.3,117.094089C49.5,116.594089,49.2,115.994089,48.6,115.894089Z" transform="translate(38.562818,121.162518) translate(-50,-118)" fill="rgb(195,13,35)" stroke="none" stroke-width="1"/><path id="er6lKTJDzIN33" d="M40.3,89.3L31,88.5C30.4,88.4,30,89,30.3,89.5L31,90.9C31.2,91.3,31,91.7,30.6,91.9L19.9,96.8C19.5,97,19.4,97.4,19.5,97.8L20.9,100.8C21.1,101.2,21.5,101.3,21.9,101.2L32.6,96.3C33,96.1,33.4,96.3,33.6,96.7L34.3,98.1C34.5,98.6,35.2,98.7,35.6,98.2L41,90.5C41.2,90,40.9,89.4,40.3,89.3Z" transform="translate(30.26282,94.862522) translate(-38,-91)" fill="rgb(195,13,35)" stroke="none" stroke-width="1"/><path id="er6lKTJDzIN34" d="M116,82.2L125.3,83C125.9,83.1,126.3,82.5,126,82L125.3,80.6C125.1,80.2,125.3,79.8,125.7,79.6L136.4,74.7C136.8,74.5,136.9,74.1,136.8,73.7L135.4,70.7C135.2,70.3,134.8,70.2,134.4,70.3L123.7,75.2C123.3,75.4,122.9,75.2,122.7,74.8L122,73.4C121.8,72.9,121.1,72.8,120.7,73.3L115.3,81C115.1,81.5,115.4,82.2,116,82.2Z" transform="translate(135.073345,71.867998) translate(-126.037189,-76.637478)" fill="rgb(195,13,35)" stroke="none" stroke-width="1"/><path id="er6lKTJDzIN35" d="M94.5,33L103.8,33.8C104.4,33.9,104.8,33.3,104.5,32.8L103.8,31.4C103.6,31,103.8,30.6,104.2,30.4L114.9,25.5C115.3,25.3,115.4,24.9,115.3,24.5L113.9,21.5C113.7,21.1,113.3,21,112.9,21.1L102.2,26C101.8,26.2,101.4,26,101.2,25.6L100.5,24.2C100.3,23.7,99.6,23.6,99.2,24.1L94,31.8C93.6,32.3,93.9,32.9,94.5,33Z" transform="translate(113.613125,22.725472) translate(-104.576969,-27.437478)" fill="rgb(195,13,35)" stroke="none" stroke-width="1"/><path id="er6lKTJDzIN36" d="M102.8,59.3L112.1,60.1C112.7,60.2,113.1,59.6,112.8,59.1L112.1,57.7C111.9,57.3,112.1,56.9,112.5,56.7L123.2,51.8C123.6,51.6,123.7,51.2,123.6,50.8L122.2,47.8C122,47.4,121.6,47.3,121.2,47.4L110.5,52.3C110.1,52.5,109.7,52.3,109.5,51.9L108.8,50.5C108.6,50,107.9,49.9,107.5,50.4L102.1,58.1C101.9,58.6,102.2,59.3,102.8,59.3Z" transform="translate(121.873341,49.025468) translate(-112.837185,-53.737474)" fill="rgb(195,13,35)" stroke="none" stroke-width="1"/></g></svg>