<svg id="eTXfpujih2G1" xmlns="http://www.w3.org/2000/svg" xmlns:xlink="http://www.w3.org/1999/xlink" viewBox="0 0 150 150" shape-rendering="geometricPrecision" text-rendering="geometricPrecision"><style><![CDATA[#eTXfpujih2G2 {animation: eTXfpujih2G2_c_o 2000ms linear infinite normal forwards}@keyframes eTXfpujih2G2_c_o { 0% {opacity: 0} 50% {opacity: 0} 75% {opacity: 1} 100% {opacity: 1}} #eTXfpujih2G9 {animation: eTXfpujih2G9_c_o 2000ms linear infinite normal forwards}@keyframes eTXfpujih2G9_c_o { 0% {opacity: 0} 25% {opacity: 0} 50% {opacity: 1} 100% {opacity: 1}} #eTXfpujih2G18 {animation: eTXfpujih2G18_c_o 2000ms linear infinite normal forwards}@keyframes eTXfpujih2G18_c_o { 0% {opacity: 0} 50% {opacity: 0} 75% {opacity: 1} 100% {opacity: 1}} #eTXfpujih2G23 {animation: eTXfpujih2G23_c_o 2000ms linear infinite normal forwards}@keyframes eTXfpujih2G23_c_o { 0% {opacity: 0} 25% {opacity: 1} 100% {opacity: 1}} #eTXfpujih2G29 {animation: eTXfpujih2G29_c_o 2000ms linear infinite normal forwards}@keyframes eTXfpujih2G29_c_o { 0% {opacity: 0} 25% {opacity: 0} 50% {opacity: 1} 100% {opacity: 1}}]]></style><g id="eTXfpujih2G2" opacity="0"><path id="eTXfpujih2G3" d="M52.3,27.5C52.9,27.5,53.5,27.5,54.2,27.6C53.8,26.1,53.8,24.6,54.2,23.1C51.8,20.9,48.5,20.1,45.4,20.9C44.7,23.4,45.1,26.1,46.4,28.4C48.3,27.8,50.3,27.5,52.3,27.5Z" fill="rgb(26,160,105)" stroke="none" stroke-width="1"/><path id="eTXfpujih2G4" d="M63.5,25.5C63.5,26.2,63.4,27,63.2,27.7C63.8,27.6,64.4,27.6,65.1,27.6C67.1,27.6,69.1,27.9,71,28.6C72.4,26.4,72.7,23.7,72,21.2C68.9,20.3,65.5,21.1,63.1,23.3C63.3,23.9,63.4,24.7,63.5,25.5Z" fill="rgb(26,160,105)" stroke="none" stroke-width="1"/><path id="eTXfpujih2G5" d="M58.7,28.6C60.2,28.1,61.7,27.7,63.2,27.6C63.4,26.9,63.5,26.2,63.5,25.4C63.5,22,61.7,18.9,58.7,17.2C55.7,18.9,53.9,22,53.9,25.4C53.9,26.1,54,26.9,54.2,27.6C55.7,27.8,57.2,28.1,58.7,28.6Z" fill="rgb(26,160,105)" stroke="none" stroke-width="1"/><path id="eTXfpujih2G6" d="M38.4,38.4C40.3,38.3,41.9,39.8,41.9,41.6C41.9,41.9,41.9,42.1,41.8,42.4C45,40,48.9,38.6,52.9,38.4C55.7,38.3,58,40.4,58.1,43.2C58.1,43.7,58.1,44.3,57.9,44.8L54.1,59C57.8,56.2,62.3,54.7,67,54.7C69,54.7,71,54.2,72.7,53.1L75.8,51.1L73.6,37C73.2,34.8,74,32.5,75.6,30.9C70.6,27.5,64.2,26.7,58.5,28.7C49,25.3,38.6,29.9,34.7,39.2C36,38.7,37.2,38.5,38.4,38.4Z" fill="rgb(232,52,59)" stroke="none" stroke-width="1"/><path id="eTXfpujih2G7" d="M38.4,38.4C40.3,38.3,41.9,39.8,41.9,41.6C41.9,41.9,41.9,42.1,41.8,42.4C43,41.5,44.3,40.8,45.6,40.2C47.6,34.6,52.1,30.2,57.8,28.4C48.5,25.5,38.5,30.1,34.7,39.1C36,38.7,37.2,38.5,38.4,38.4Z" fill="rgb(214,40,45)" stroke="none" stroke-width="1"/><path id="eTXfpujih2G8" d="M75.8,36.2L75.8,35.8L75.8,30.8L75.8,28.1C75.7,28.1,75.7,28.2,75.6,28.2C75,27.9,74.5,27.6,73.9,27.3C74.7,25.1,74.7,22.7,74.1,20.4C73.9,19.7,73.3,19.1,72.6,18.9C69.8,18.1,66.7,18.4,64.1,19.8C63.1,17.9,61.5,16.4,59.7,15.3C59.1,14.9,58.3,14.9,57.6,15.3C55.7,16.4,54.2,17.9,53.2,19.8C50.6,18.4,47.6,18.1,44.7,18.9C44,19.1,43.4,19.7,43.2,20.4C42.6,22.7,42.7,25.1,43.4,27.3C38.9,29.4,35.3,32.9,33.2,37.3L39.7,38.5L43.5,41.9L53,38.3L57.3,41.9L54.7,57.4L63.4,54.9L76,51.1L75.8,36.2ZM70.2,22.8C70.3,23.9,70.2,24.9,69.8,26C68.4,25.7,67,25.5,65.5,25.5C65.5,25,65.5,24.5,65.4,24C66.9,23.1,68.6,22.7,70.2,22.8ZM56,25.5C56,23.3,57,21.3,58.7,19.9L58.7,19.9C60.4,21.3,61.4,23.3,61.4,25.5L61.4,25.8C60.5,26,59.6,26.2,58.7,26.5C57.8,26.2,56.9,26,56,25.8L56,25.5ZM47.1,22.8C48.8,22.6,50.4,23,51.9,24C51.8,24.5,51.8,24.9,51.8,25.4C50.4,25.4,48.9,25.6,47.5,25.9C47.1,24.9,47,23.9,47.1,22.8ZM71.7,51.2C70.3,52,68.8,52.5,67.1,52.5L67,52.5C63.8,52.5,60.5,53.2,57.6,54.4L60.1,45.2C60.7,43,60.2,40.6,58.7,38.8C57.3,37,55.1,36.1,52.8,36.2C49.4,36.4,46.2,37.3,43.2,38.9C43,38.7,42.9,38.4,42.7,38.2C41.7,37,40.3,36.3,38.8,36.2C43.2,30.3,51,28,57.9,30.5L58.6,30.8L59.3,30.5C61.1,29.8,63,29.5,65,29.5C67.6,29.5,70.2,30.1,72.6,31.3C71.6,33.1,71.3,35.1,71.6,37.1L73.6,49.9L71.7,51.2Z" fill="rgb(4,0,0)" stroke="none" stroke-width="1"/></g><g id="eTXfpujih2G9" opacity="0"><path id="eTXfpujih2G10" d="M17.9,56.5C20.5,55.8,23.2,55.9,25.8,56.7C24.3,52,25.4,47,28.6,43.2C20.9,41.9,13.7,47.1,12.4,54.8C12.1,56.3,12.1,57.9,12.4,59.5C13.9,58.1,15.8,57.1,17.9,56.5Z" fill="rgb(159,202,67)" stroke="none" stroke-width="1"/><path id="eTXfpujih2G11" d="M17.9,56.5L17.9,56.5C17.3,52,18.8,47.5,22,44.3C22.3,44,22.7,43.7,23,43.4C15.8,45.1,11.2,52.1,12.4,59.4C14,58.1,15.9,57.1,17.9,56.5Z" fill="rgb(147,198,59)" stroke="none" stroke-width="1"/><path id="eTXfpujih2G12" d="M11.5,72.8C16.3,66.3,24.5,63.1,32.4,64.8C29.2,63,26.9,60.1,25.8,56.7C18.4,54.4,10.5,58.5,8.1,65.9C7.8,67,7.5,68.1,7.5,69.3C7.4,71.2,8.9,72.8,10.7,72.9C11,72.9,11.2,72.9,11.5,72.8L11.5,72.8Z" fill="rgb(135,190,48)" stroke="none" stroke-width="1"/><path id="eTXfpujih2G13" d="M32.4,64.8C33.1,64.9,33.7,65.1,34.4,65.3C31.7,56.8,34.7,47.6,41.9,42.4C42.2,40.6,41,38.8,39.2,38.5C38.9,38.5,38.7,38.4,38.4,38.4C30.6,38.9,24.7,45.5,25.2,53.3C25.4,58.2,28.2,62.5,32.4,64.8L32.4,64.8Z" fill="rgb(135,190,48)" stroke="none" stroke-width="1"/><path id="eTXfpujih2G14" d="M41.7,75.7C38.2,73.1,35.7,69.5,34.4,65.3C24.7,62.3,14.3,66.6,9.7,75.7L41.7,75.7Z" fill="rgb(159,202,67)" stroke="none" stroke-width="1"/><path id="eTXfpujih2G15" d="M41.7,75.7L46.5,75.7C46.2,72.3,46.9,68.9,48.4,65.9C49.8,63.2,51.7,60.8,54.2,58.9L58,44.7C58.7,42,57.2,39.3,54.5,38.6C54,38.5,53.5,38.4,52.9,38.4C41.5,39.1,32.7,48.9,33.4,60.3C33.8,66.4,36.9,72.1,41.7,75.7Z" fill="rgb(159,202,67)" stroke="none" stroke-width="1"/><path id="eTXfpujih2G16" d="M41.7,75.7L46.5,75.7C46.4,74.5,46.4,73.4,46.5,72.2C37.7,64.9,36.5,51.8,43.8,43C45,41.6,46.3,40.4,47.8,39.3C36.9,42.8,30.9,54.5,34.4,65.4C35.7,69.6,38.3,73.1,41.7,75.7L41.7,75.7Z" fill="rgb(147,198,59)" stroke="none" stroke-width="1"/><path id="eTXfpujih2G17" d="M58.8,38.8C57.4,37,55.2,36.1,52.9,36.2C49.5,36.4,46.3,37.3,43.3,38.9C43.1,38.7,43,38.4,42.8,38.2C41.8,37,40.4,36.3,38.9,36.2C38.9,36.2,36.4,35.9,33.3,37.3C31.2,38.1,29.3,39.3,27.8,40.9C18.9,40,11,46.6,10.1,55.5C10.1,56,10,56.6,10,57.1C10,57.6,10,58.1,10.1,58.6C7.3,61.4,5.6,65.1,5.4,69.1C5.3,70.8,6,72.4,7.2,73.5L13.6,73.5C18.1,67.7,25.7,65.2,32.8,67C33.7,69.4,34.9,71.6,36.5,73.5L42.5,73.5C34.5,67,33.3,55.3,39.8,47.3C43.1,43.3,47.9,40.8,53.1,40.4L53.3,40.4C54.1,40.4,54.9,40.8,55.5,41.4C56.1,42.1,56.3,43.1,56,44.1L52.5,58C54.7,56.2,56.6,55.3,57.7,54.9L60.1,45.2C60.7,43,60.2,40.6,58.8,38.8ZM17.8,48.7C19.7,46.8,22.1,45.6,24.7,45.3C24.2,46.3,23.8,47.3,23.6,48.3C23.1,50.1,22.9,52.1,23.1,54C20.1,53.7,17.1,54.3,14.4,55.6C14.7,53,15.9,50.6,17.8,48.7ZM22.3,63.1C17.7,64.3,13.5,67,10.5,70.7C10.4,70.7,10.2,70.6,10.1,70.5C9.8,70.3,9.6,69.9,9.6,69.5C10,62.9,15.7,57.9,22.3,58.3C22.9,58.3,23.5,58.4,24.1,58.5C24.4,59.2,24.7,59.9,25.1,60.6C25.5,61.2,25.9,61.8,26.3,62.3C25,62.5,23.6,62.7,22.3,63.1ZM32.1,53.2C31.4,55.9,31.1,58.8,31.5,61.6C30.5,60.7,29.6,59.6,28.9,58.5C25.6,52.7,27.6,45.4,33.4,42.1C35,41.2,36.8,40.6,38.6,40.5C39,40.5,39.4,40.7,39.6,41C39.7,41.1,39.8,41.3,39.8,41.4C36,44.4,33.3,48.6,32.1,53.2Z" fill="rgb(4,0,0)" stroke="none" stroke-width="1"/></g><g id="eTXfpujih2G18" opacity="0"><path id="eTXfpujih2G19" d="M76,51.1L79.2,49C80.1,48.5,81.2,48.7,81.8,49.6C82,49.8,82,50.1,82.1,50.4L82.7,57.5C82.9,59.6,83.6,61.6,84.9,63.3C86.9,65.9,88.3,69,88.9,72.3C89.7,71,90.9,69.9,92.3,69.2C92.3,69.2,92.3,69.1,92.3,69.1C91.4,62.3,95.2,56.3,100.7,55.5L100.7,55.5C101.2,55.4,101.5,55.1,101.5,54.6C101.6,53.3,101.8,52.1,102.2,50.9L104.4,36.8C105,33,102.4,29.4,98.6,28.8C98.2,28.7,97.9,28.7,97.5,28.7L80.7,28.7C76.8,28.7,73.7,31.8,73.7,35.7C73.7,36.1,73.7,36.5,73.8,36.8L76,51.1Z" fill="rgb(240,132,31)" stroke="none" stroke-width="1"/><path id="eTXfpujih2G20" d="M76,51.1L79.2,49C80.1,48.5,81.2,48.7,81.8,49.6C82,49.8,82,50.1,82.1,50.4L82.7,57.5C82.9,59.6,83.6,61.6,84.9,63.3C85.7,64.4,86.4,65.5,87,66.7L82.3,36.8C81.7,33,84.3,29.4,88.1,28.8C88.5,28.7,88.8,28.7,89.2,28.7L80.7,28.7C76.8,28.7,73.7,31.8,73.7,35.7C73.7,36.1,73.7,36.4,73.8,36.8L76,51.1Z" fill="rgb(238,117,28)" stroke="none" stroke-width="1"/><path id="eTXfpujih2G21" d="M98.8,26.8C98.3,26.7,97.9,26.7,97.4,26.7L94.5,26.7L98.9,19.1C99.4,18.1,99,16.8,97.9,16.2C96.9,15.7,95.8,16,95.2,16.9L91.1,24.1L91.1,17.2C91.1,16,90.1,15.1,89,15.1C87.9,15.1,87,16,87,17.2L87,24.1L82.9,16.9C82.2,15.9,80.9,15.7,79.9,16.3C79,16.9,78.7,18.1,79.2,19L83.6,26.6L80.7,26.6C80.4,26.6,80.1,26.6,79.8,26.6C79.7,26.6,79.6,26.6,79.6,26.6C78.3,26.8,77,27.2,75.8,28C75.8,28,75.7,28,75.7,28C73.9,29.4,72.8,31.2,72.8,31.2C71.8,33,71.5,35,71.8,37L73.8,49.8L73.4,50.1L73.8,51.5L79.3,48.9L85.3,64L90.8,70.2L93.3,60.3L100.7,55.5L106.3,42.2C106.1,42.3,106,42.4,105.8,42.5L106.6,37.1C107.2,32.2,103.8,27.6,98.8,26.8ZM102.2,36.6L102,38.2L91.6,38.2C90.4,38.1,89.4,39,89.3,40.2C89.2,41.4,90.1,42.4,91.3,42.5C91.4,42.5,91.5,42.5,91.6,42.5L101.3,42.5L100.3,48.7L91.6,48.7C90.4,48.6,89.4,49.5,89.3,50.7C89.2,51.9,90.1,52.9,91.3,53C91.4,53,91.5,53,91.6,53L99.5,53C99.5,53.3,99.4,53.5,99.4,53.8C93.6,55.1,89.6,61.2,90,68.3L89.9,68.4C89.1,66.2,87.9,64.1,86.5,62.3C85.5,60.9,84.9,59.3,84.7,57.6L84.1,50.4C83.9,48.2,81.9,46.6,79.7,46.8C79.1,46.9,78.5,47.1,78,47.4L77.5,47.7L75.8,36.7C75.4,34,77.3,31.5,79.9,31.2C80.1,31.2,80.4,31.2,80.6,31.2L97.3,31.2C100,31.2,102.2,33.4,102.2,36.1C102.3,36.1,102.3,36.4,102.2,36.6Z" fill="rgb(4,0,0)" stroke="none" stroke-width="1"/><path id="eTXfpujih2G22" d="M98.8,26.8C98.3,26.7,97.9,26.7,97.4,26.7L94.5,26.7L98.9,19.1C99.4,18.1,99,16.8,97.9,16.2C96.9,15.7,95.8,16,95.2,16.9L91.1,24.1L91.1,17.2C91.1,16,90.1,15.1,89,15.1C87.9,15.1,87,16,87,17.2L87,24.1L82.9,16.9C82.2,15.9,80.9,15.7,79.9,16.3C79,16.9,78.7,18.1,79.2,19L83.6,26.6L80.7,26.6C80.4,26.6,80.1,26.6,79.8,26.6C79.7,26.6,79.6,26.6,79.6,26.6C78.3,26.8,77,27.2,75.8,28C75.8,28,75.7,28,75.7,28C73.9,29.4,72.8,31.2,72.8,31.2C71.8,33,71.5,35,71.8,37L73.8,49.8L73.4,50.1L73.8,51.5L79.3,48.9L85.3,64L90.8,70.2L93.3,60.3L100.7,55.5L106.3,42.2C106.1,42.3,106,42.4,105.8,42.5L106.6,37.1C107.2,32.2,103.8,27.6,98.8,26.8ZM102.2,36.6L102,38.2L91.6,38.2C90.4,38.1,89.4,39,89.3,40.2C89.2,41.4,90.1,42.4,91.3,42.5C91.4,42.5,91.5,42.5,91.6,42.5L101.3,42.5L100.3,48.7L91.6,48.7C90.4,48.6,89.4,49.5,89.3,50.7C89.2,51.9,90.1,52.9,91.3,53C91.4,53,91.5,53,91.6,53L99.5,53C99.5,53.3,99.4,53.5,99.4,53.8C93.6,55.1,89.6,61.2,90,68.3L89.9,68.4C89.1,66.2,87.9,64.1,86.5,62.3C85.5,60.9,84.9,59.3,84.7,57.6L84.1,50.4C83.9,48.2,81.9,46.6,79.7,46.8C79.1,46.9,78.5,47.1,78,47.4L77.5,47.7L75.8,36.7C75.4,34,77.3,31.5,79.9,31.2C80.1,31.2,80.4,31.2,80.6,31.2L97.3,31.2C100,31.2,102.2,33.4,102.2,36.1C102.3,36.1,102.3,36.4,102.2,36.6Z" fill="rgb(4,0,0)" stroke="none" stroke-width="1"/></g><g id="eTXfpujih2G23" opacity="0"><path id="eTXfpujih2G24" d="M87.4,75.7C87.7,74.5,88.1,73.4,88.8,72.4C88.2,69.1,86.8,66,84.8,63.4C83.5,61.7,82.8,59.7,82.6,57.6L82,50.4C81.9,49.4,81,48.6,80,48.7C79.7,48.7,79.4,48.8,79.2,49L72.9,53C71.2,54.1,69.2,54.6,67.2,54.6C59.3,54.5,52.1,58.9,48.6,65.9C47.1,68.9,46.4,72.3,46.7,75.7L87.4,75.7Z" fill="rgb(238,165,107)" stroke="none" stroke-width="1"/><path id="eTXfpujih2G25" d="M52.7,75.7C53,74.3,53.5,72.9,54.2,71.5C57.8,64.5,65,60.1,72.8,60.2C74.8,60.2,76.8,59.7,78.5,58.6L82.4,56.1L82,50.4C81.9,49.4,81,48.6,80,48.7C79.7,48.7,79.4,48.8,79.2,49L72.9,53C71.2,54.1,69.2,54.6,67.2,54.6C59.3,54.5,52.1,58.9,48.6,65.9C47.1,68.9,46.4,72.3,46.7,75.7L52.7,75.7Z" fill="rgb(226,151,87)" stroke="none" stroke-width="1"/><path id="eTXfpujih2G26" d="M70.9,69.2C70.9,69.2,70.9,69.2,70.9,69.2C69.8,68.7,68.6,69.1,68,70.2C68,70.2,68,70.2,68,70.2L66.3,73.6L71,73.6L71.8,72C72.4,71,72,69.8,70.9,69.2ZM90.3,68.2C89.5,66,87.8,64,86.4,62.1C85.4,60.7,84.8,59.1,84.6,57.4L84,50.2C83.8,48,81.8,46.4,79.6,46.6C79.2,46.6,78.8,46.8,78.4,46.9C78.2,47,78.1,47.1,77.9,47.2L77.4,47.5L73.7,50L73.7,50L72.7,50.6L71.7,51.2C70.3,52,68.8,52.5,67.1,52.5L67,52.5C66.2,52.5,65.5,52.5,64.7,52.6C62.4,52.8,60.1,53.4,57.9,54.3L57.9,54.3C57.9,54.3,54.5,55.7,52.3,57.7C50,59.8,47.9,62.2,46.5,65C45.2,67.7,44.4,70.6,44.3,73.7L48.5,73.7C48.6,71.3,49.2,69,50.2,66.9C52.6,62.1,57,58.7,62.1,57.4L54,73.6L59,73.6L67.4,56.8C69.8,56.8,72.1,56.1,74,54.9L76.4,53.3L72.5,61.1C72,62.1,72.4,63.4,73.5,63.9C73.5,63.9,73.5,63.9,73.5,63.9C73.8,64.1,74.1,64.1,74.4,64.1C75.2,64.1,75.9,63.6,76.3,62.9L80.2,55.1L80.4,57.7C80.6,60.1,81.5,62.5,82.9,64.4L78.4,73.5L83.1,73.5L85.5,68.8C85.9,69.8,86.3,70.9,86.5,71.9C86.2,72.4,86,72.9,85.8,73.5L90.5,73.5C90.7,73.2,90.9,72.8,91.2,72.5C91.4,71.1,90.3,68.2,90.3,68.2Z" fill="rgb(4,0,0)" stroke="none" stroke-width="1"/><path id="eTXfpujih2G27" d="M58,54.3C60.2,53.4,62.5,52.8,64.8,52.6L58,54.3Z" fill="rgb(4,0,0)" stroke="none" stroke-width="1"/><path id="eTXfpujih2G28" d="M78,47.2C78.2,47.1,78.3,47,78.5,46.9L77.5,47.5L78,47.2Z" fill="rgb(4,0,0)" stroke="none" stroke-width="1"/></g><g id="eTXfpujih2G29" opacity="0"><path id="eTXfpujih2G30" d="M87.4,75.7L142,75.7C142.3,74.8,142.5,73.8,142.5,72.8C142.4,69.3,140.5,66.1,137.5,64.3C137.1,64,136.9,63.4,137.2,62.9C140.6,57.9,139.3,51.1,134.3,47.7C130.6,45.2,125.7,45.2,122,47.7C121.6,48,121,47.9,120.6,47.4C118.8,44.4,115.6,42.5,112.1,42.4C106.4,42.4,101.7,47.7,101.2,54.6C101.2,55.1,100.8,55.4,100.4,55.5L100.4,55.5C94.9,56.2,91.1,62.3,92,69.1C92,69.1,92,69.2,92,69.2C89.7,70.6,87.9,73,87.4,75.7Z" fill="rgb(26,160,105)" stroke="none" stroke-width="1"/><path id="eTXfpujih2G31" d="M87.4,75.7L97.7,75.7C98.4,74.9,99.3,74.2,100.3,73.7C100.3,73.7,100.3,73.6,100.3,73.6C99.4,66.8,103.2,60.8,108.7,60L108.7,60C109.2,59.9,109.5,59.6,109.5,59.1C110,52.3,114.6,47,120.3,46.9C118.5,44.2,115.5,42.6,112.2,42.5C106.5,42.5,101.8,47.8,101.3,54.7C101.3,55.2,100.9,55.5,100.5,55.6L100.5,55.6C95,56.3,91.2,62.4,92.1,69.2C92.1,69.2,92.1,69.3,92.1,69.3C89.7,70.6,87.9,73,87.4,75.7L87.4,75.7Z" fill="rgb(16,139,91)" stroke="none" stroke-width="1"/><g id="eTXfpujih2G32"><path id="eTXfpujih2G33" d="M104.8,69.2L104.8,69.2C103.6,69,102.6,69.8,102.4,71L102,73.6L106.3,73.6L106.6,71.6C106.8,70.4,106,69.4,104.8,69.2Z" fill="rgb(4,0,0)" stroke="none" stroke-width="1"/><path id="eTXfpujih2G34" d="M139.7,63.3C143.2,57,141,49.1,134.7,45.5C130.7,43.3,125.9,43.3,121.9,45.5C119.7,42.4,116.1,40.6,112.3,40.5C111,40.5,109.6,40.7,108.4,41.2C107.6,41.5,103.7,43.3,101.3,47.4C100.1,49.4,99.6,51.7,99.5,52.9L99.5,52.9C99.5,53.2,99.4,53.4,99.4,53.7C99.3,53.7,99.2,53.7,99.2,53.8C98.4,54,95.5,55.1,93.3,57.6C93.3,57.6,93.2,57.7,93.2,57.7C93,57.8,93,57.9,92.9,58C92.7,58.2,92.6,58.4,92.5,58.6C92.4,58.7,92.4,58.8,92.3,58.9C92.2,59,92.1,59.2,92,59.3C90.3,62.4,90,65.6,89.9,67.1C89.9,67.4,89.9,67.7,89.9,68.1C89.9,68.1,88,69.6,87.2,71C86.4,72.4,86.3,73.5,86.3,73.5L90.6,73.5C91.2,72.5,92.1,71.7,93.1,71.1C93.9,70.7,94.4,69.8,94.3,68.9L94.3,68.8C93.6,63.2,96.5,58.2,100.9,57.6C102.4,57.4,103.5,56.2,103.6,54.8C104,49.1,107.9,44.6,112.4,44.6C115.2,44.7,117.7,46.2,119.1,48.6C120,50,121.9,50.4,123.4,49.5C123.4,49.5,123.4,49.5,123.5,49.5C127.5,46.8,133,47.8,135.7,51.8C137.7,54.8,137.7,58.7,135.7,61.7C134.7,63.1,135.1,65,136.5,66C136.5,66,136.5,66,136.6,66C139,67.4,140.5,69.9,140.6,72.7C140.6,72.9,140.6,73.2,140.6,73.5L144.9,73.5C144.9,73.3,144.9,73,144.9,72.7C144.6,69,142.7,65.5,139.7,63.3Z" fill="rgb(4,0,0)" stroke="none" stroke-width="1"/><path id="eTXfpujih2G35" d="M127.3,68.2L127.3,68.2L118.5,69.6L125.1,63C125.9,62.2,125.9,60.8,125.1,60C124.3,59.2,122.9,59.2,122.1,60L115.5,66.6L116.9,57.8C117.1,56.6,116.3,55.6,115.1,55.4C113.9,55.2,112.9,56,112.7,57.2L110.4,71.8L108.5,73.7L120.5,73.7L128,72.5C129.2,72.3,129.9,71.2,129.8,70.1C129.6,68.8,128.5,68,127.3,68.2Z" fill="rgb(4,0,0)" stroke="none" stroke-width="1"/></g></g><g id="eTXfpujih2G36"><g id="eTXfpujih2G37"><path id="eTXfpujih2G38" d="M10.5,94.2L139.4,94.2L139.4,104.4L10.5,104.4L10.5,94.2Z" fill="rgb(89,88,87)" stroke="none" stroke-width="1"/><path id="eTXfpujih2G39" d="M10.5,94.4L24.7,94.4L24.7,104.3L10.5,104.3L10.5,94.4Z" fill="rgb(62,58,57)" stroke="none" stroke-width="1"/><path id="eTXfpujih2G40" d="M144,94.4L6,94.4C5.2,94.4,4.6,93.7,4.6,93L4.6,77.2C4.6,76.4,5.2,75.8,6,75.8L144,75.8C144.8,75.8,145.4,76.4,145.4,77.2L145.4,93C145.4,93.8,144.8,94.4,144,94.4C144,94.4,144,94.4,144,94.4Z" fill="rgb(200,201,202)" stroke="none" stroke-width="1"/><path id="eTXfpujih2G41" d="M18.8,93L18.8,77.2C18.8,76.4,19.4,75.8,20.2,75.8L6,75.8C5.2,75.8,4.6,76.4,4.6,77.2L4.6,93C4.6,93.8,5.2,94.4,6,94.4C6,94.4,6,94.4,6,94.4L20.2,94.4C19.4,94.4,18.8,93.8,18.8,93C18.8,93,18.8,93,18.8,93Z" fill="rgb(200,201,202)" stroke="none" stroke-width="1"/><path id="eTXfpujih2G42" d="M4.6,131.4C4.6,132.2,5.2,132.8,6,132.8L144,132.8C144.8,132.8,145.4,132.2,145.4,131.4L145.4,122.7L4.6,122.7L4.6,131.4Z" fill="rgb(89,88,87)" stroke="none" stroke-width="1"/><path id="eTXfpujih2G43" d="M18.8,131.4L18.8,123L4.6,123L4.6,131.4C4.6,132.2,5.2,132.8,6,132.8L20.2,132.8C19.4,132.8,18.8,132.2,18.8,131.4Z" fill="rgb(62,58,57)" stroke="none" stroke-width="1"/><path id="eTXfpujih2G44" d="M145.4,123.1L4.6,123.1L4.6,105.8C4.6,105,5.2,104.4,6,104.4L144,104.4C144.8,104.4,145.4,105,145.4,105.8L145.4,123.1Z" fill="rgb(200,201,202)" stroke="none" stroke-width="1"/><path id="eTXfpujih2G45" d="M20.2,104.4L6,104.4C5.2,104.4,4.6,105,4.6,105.8L4.6,123.1L18.8,123.1L18.8,105.8C18.8,105,19.4,104.4,20.2,104.4Z" fill="rgb(200,201,202)" stroke="none" stroke-width="1"/><circle id="eTXfpujih2G46" r="2.1" transform="matrix(1 0 0 1 13.4 85.1)" fill="rgb(4,0,0)" stroke="none" stroke-width="1"/><circle id="eTXfpujih2G47" r="2.1" transform="matrix(1 0 0 1 136.6 85.1)" fill="rgb(4,0,0)" stroke="none" stroke-width="1"/><circle id="eTXfpujih2G48" r="2.1" transform="matrix(1 0 0 1 13.4 113.6)" fill="rgb(4,0,0)" stroke="none" stroke-width="1"/><circle id="eTXfpujih2G49" r="2.1" transform="matrix(1 0 0 1 136.6 113.6)" fill="rgb(4,0,0)" stroke="none" stroke-width="1"/><path id="eTXfpujih2G50" d="M144,96.6C145.9,96.6,147.5,95,147.5,93L147.5,77.2C147.5,75.5,146.3,74,144.6,73.7L144.6,73.6L6,73.6C4.1,73.6,2.5,75.2,2.5,77.1L2.5,93C2.5,94.9,4.1,96.5,6,96.6L8.4,96.6L8.4,102.3L6,102.3C4,102.3,2.5,103.9,2.5,105.8L2.5,131.4C2.5,133.4,4.1,135,6,135C6,135,6,135,6,135L144,135C146,135,147.5,133.4,147.5,131.5L147.5,105.8C147.5,103.8,145.9,102.3,144,102.3L141.6,102.3L141.6,96.6L144,96.6ZM143.3,106.5L143.3,120.9L119.7,120.9C118.5,121,117.6,122,117.7,123.2C117.8,124.3,118.6,125.1,119.7,125.2L143.3,125.2L143.3,130.7L6.8,130.7L6.8,125.2L109.7,125.2C110.9,125.1,111.8,124.1,111.7,122.9C111.6,121.8,110.8,121,109.7,120.9L6.8,120.9L6.8,106.4L143.3,106.4ZM43.2,96.6L137.3,96.6L137.3,102.3L12.7,102.3L12.7,96.6L33.2,96.6C34.4,96.7,35.4,95.8,35.5,94.6C35.6,93.4,34.7,92.4,33.5,92.3C33.4,92.3,33.3,92.3,33.2,92.3L6.8,92.3L6.8,77.8L143.3,77.8L143.3,92.3L43.2,92.3C42,92.2,41,93.1,40.9,94.3C40.8,95.5,41.7,96.5,42.9,96.6C43,96.6,43.1,96.6,43.2,96.6Z" fill="rgb(4,0,0)" stroke="none" stroke-width="1"/></g></g></svg>