<svg id="ecAdQ5j80tO1" xmlns="http://www.w3.org/2000/svg" xmlns:xlink="http://www.w3.org/1999/xlink" viewBox="0 0 150 150" shape-rendering="geometricPrecision" text-rendering="geometricPrecision"><style><![CDATA[#ecAdQ5j80tO2_to {animation: ecAdQ5j80tO2_to__to 2000ms linear infinite normal forwards}@keyframes ecAdQ5j80tO2_to__to { 0% {transform: translate(76.061443px,55.605px)} 35% {transform: translate(76.061443px,65.142608px)} 100% {transform: translate(76.061443px,65.142608px)}} #ecAdQ5j80tO2_tr {animation: ecAdQ5j80tO2_tr__tr 2000ms linear infinite normal forwards}@keyframes ecAdQ5j80tO2_tr__tr { 0% {transform: rotate(0deg)} 35% {transform: rotate(-10.421514deg)} 100% {transform: rotate(-10.421514deg)}} #ecAdQ5j80tO8_to {animation: ecAdQ5j80tO8_to__to 2000ms linear infinite normal forwards}@keyframes ecAdQ5j80tO8_to__to { 0% {transform: translate(114.6992px,99.314999px)} 10% {transform: translate(114.6992px,99.314999px)} 30% {transform: translate(117.911442px,99.314999px)} 100% {transform: translate(117.911442px,99.314999px)}} #ecAdQ5j80tO22 {animation: ecAdQ5j80tO22_c_o 2000ms linear infinite normal forwards}@keyframes ecAdQ5j80tO22_c_o { 0% {opacity: 0} 25% {opacity: 1} 50% {opacity: 0} 75% {opacity: 1} 100% {opacity: 0}} #ecAdQ5j80tO42_to {animation: ecAdQ5j80tO42_to__to 2000ms linear infinite normal forwards}@keyframes ecAdQ5j80tO42_to__to { 0% {transform: translate(123.235001px,148.299248px)} 10% {transform: translate(123.235001px,148.299248px)} 100% {transform: translate(123.235001px,132.299248px)}}]]></style><g id="ecAdQ5j80tO2_to" transform="translate(76.061443,55.605)"><g id="ecAdQ5j80tO2_tr" transform="rotate(0)"><g id="ecAdQ5j80tO2" transform="translate(-76.061443,-55.605)"><path id="ecAdQ5j80tO3" d="M37.57,28C31.84,37.89,28.45,47.59,28,54.19L45.39,54.19C49.633204,49.504488,53.348825,44.367005,56.47,38.87C58.197279,35.862272,57.163886,32.023953,54.16,30.29L46.16,25.67C43.144034,23.945179,39.301011,24.987582,37.57,28Z" fill="rgb(229,155,108)" fill-rule="evenodd" stroke="none" stroke-width="1"/><path id="ecAdQ5j80tO4" d="M37.42,54.19L45.42,54.19C49.65273,49.502982,53.358249,44.365557,56.47,38.87C58.197279,35.862272,57.163886,32.023953,54.16,30.29L46.16,25.67C43.938543,24.401435,41.169636,24.607125,39.16,26.19L46.26,30.29C49.260255,32.027375,50.288959,35.864887,48.56,38.87C45.426805,44.374318,41.690451,49.512643,37.42,54.19Z" fill="rgb(214,135,86)" fill-rule="evenodd" stroke="none" stroke-width="1"/><path id="ecAdQ5j80tO5" d="M116.08,20.48C116.08,14.07,112.37,7.96,106.61,7.6C100.85,7.24,99.87,12.31,94,12C89.78,11.8,88.6,7,83.88,7C79.16,7,78.22,10,75.54,12C71.95,14.73,62.41,12.21,62.41,20.5C62.41,28.79,72,26.24,75.54,29C78.22,31,79.17,34,83.89,33.94C88.61,33.88,89.79,29.14,94.01,28.94C99.87,28.67,100.84,33.73,106.61,33.38C112.38,33.03,116.08,26.88,116.08,20.48Z" fill="rgb(179,229,159)" fill-rule="evenodd" stroke="none" stroke-width="1"/><path id="ecAdQ5j80tO6" d="M116.08,20.48C116.08,14.07,112.37,7.96,106.61,7.6C105.056609,7.477387,103.50233,7.82588,102.15,8.6C105.87,10.65,108.15,15.47,108.15,20.46C108.15,25.45,105.9,30.26,102.15,32.31C103.50233,33.08412,105.056609,33.432613,106.61,33.31C112.37,33,116.08,26.88,116.08,20.48Z" fill="rgb(149,214,164)" fill-rule="evenodd" stroke="none" stroke-width="1"/><path id="ecAdQ5j80tO7" d="M49.87,52.14C50.87,50.95,51.81,49.69,52.77,48.36C54.827011,45.6365,56.675591,42.761673,58.3,39.76C60.495438,35.794464,59.112625,30.801219,55.19,28.53L53.32,27.44C54.712886,26.335506,56.254778,25.433263,57.9,24.76C58.846752,24.357267,59.814872,24.006741,60.8,23.71C62.13,28.01,66.28,28.71,70.16,29.41C71.603734,29.529655,73.010131,29.930512,74.3,30.59C74.904793,31.09212,75.472908,31.636842,76,32.22C77.85,34.15,79.6,35.96,83.86,35.95C87.09,35.95,88.86,34.39,90.62,32.87C91.71,31.94,92.76,31.01,94.06,30.95C95.927412,30.937973,97.734562,31.610319,99.14,32.84C101.14,34.23,103.14,35.62,106.7,35.39C109.197677,35.227835,111.557189,34.186249,113.36,32.45C115.274646,30.575663,116.655333,28.225044,117.36,25.64C117.672041,24.55476,117.04524,23.422041,115.96,23.11C114.87476,22.797959,113.742041,23.42476,113.43,24.51C112.932022,26.403247,111.937816,28.1293,110.55,29.51C109.445661,30.585508,107.997376,31.237059,106.46,31.35C104.28,31.48,102.88,30.5,101.46,29.53C99.46,28.14,97.46,26.74,93.87,26.91C91.13,27.03,89.55,28.41,87.93,29.82C86.74,30.82,85.53,31.9,83.84,31.91C81.32,31.91,80.16,30.71,78.93,29.43C78.247389,28.69061,77.508511,28.005225,76.72,27.38C75.11,26.16,73.01,25.79,70.8,25.38C68.59,24.97,66.08,24.56,65,22.8C65.87,22.68,66.75,22.6,67.65,22.56C68.380608,22.531419,69.04047,22.115234,69.381022,21.468218C69.721574,20.821202,69.691078,20.041653,69.301022,19.423218C68.910966,18.804783,68.220608,18.441419,67.49,18.47C66.56,18.47,65.63,18.59,64.73,18.71C65.62,16.49,68.3,16.02,70.8,15.59C73.01,15.21,75.11,14.84,76.72,13.59C77.504426,12.978087,78.243062,12.309638,78.93,11.59C80.16,10.3,81.32,9.1,83.84,9.11C85.53,9.11,86.74,10.17,87.93,11.19C89.55,12.6,91.13,13.98,93.87,14.1C97.48,14.28,99.48,12.87,101.46,11.48C102.86,10.48,104.26,9.48,106.46,9.66C107.997376,9.772941,109.445661,10.424492,110.55,11.5C111.937816,12.8807,112.932022,14.606753,113.43,16.5C113.744802,17.58524,114.87976,18.209802,115.965,17.895C117.05024,17.580198,117.674802,16.44524,117.36,15.36C116.652655,12.776085,115.272357,10.426126,113.36,8.55C111.554272,6.818102,109.196428,5.777252,106.7,5.61C103.12,5.39,101.13,6.77,99.14,8.17C97.73135,9.367173,95.938576,10.016832,94.09,10C92.79,9.94,91.74,9,90.65,8.08C88.91,6.56,87.12,5,83.89,5C79.63,5,77.89,6.8,76.03,8.73C75.493294,9.314241,74.915126,9.85899,74.3,10.36C73.010131,11.019488,71.603734,11.420345,70.16,11.54C65.67,12.33,60.8,13.17,60.39,19.54C58.994799,19.932299,57.628239,20.420117,56.3,21C53.824118,21.995049,51.565488,23.462309,49.65,25.32L47.17,23.89C43.182266,21.612732,38.104364,22.973681,35.79,26.94C33.115995,31.504083,30.844097,36.292132,29,41.25C27.625066,44.759436,26.665215,48.41761,26.14,52.15L30.28,52.15C30.686999,49.605211,31.309232,47.099554,32.14,44.66L35.48,45.84C36.540387,46.221076,37.708924,45.670387,38.09,44.61C38.471076,43.549613,37.920387,42.381076,36.86,42L33.57,40.83C34.48,38.51,35.57,36.1,36.82,33.64L40.43,34.91C41.509717,35.285554,42.689446,34.714717,43.065,33.635C43.440554,32.555283,42.869717,31.375554,41.79,31L38.79,29.94C38.97,29.61,39.16,29.29,39.35,28.94C39.902834,27.954835,40.829224,27.233909,41.92,26.94C43.005678,26.650739,44.161451,26.797903,45.14,27.35L53.14,31.99C55.160098,33.161169,55.853052,35.745218,54.69,37.77C53.81,39.3,52.9,40.77,51.98,42.2L46.98,39.61C45.980365,39.088091,44.746909,39.475365,44.225,40.475C43.703091,41.474635,44.090365,42.708091,45.09,43.23L49.61,45.6C48.011618,47.850917,46.288943,50.010938,44.45,52.07L49.83,52.07Z" fill="rgb(0,0,0)" stroke="none" stroke-width="1"/></g></g></g><g id="ecAdQ5j80tO8_to" transform="translate(114.6992,99.314999)"><g id="ecAdQ5j80tO8" transform="translate(-117.911441,-99.314998)"><path id="ecAdQ5j80tO9" d="M115.14,94C117.81,94.39,124.89,93.21,125.79,98.13C126.69,103.05,124.19,106.21,123.44,106.21C121.98,106.21,122.64,100.06,117.94,100.04C116.447146,100.041729,114.958732,100.202639,113.5,100.52L109.84,92.42C111.536247,93.159125,113.315923,93.689669,115.14,94Z" fill="rgb(229,155,108)" stroke="none" stroke-width="1"/><path id="ecAdQ5j80tO10" d="M115.14,94C117.81,94.39,124.89,93.21,125.79,98.13C126.69,103.05,124.19,106.21,123.44,106.21C121.98,106.21,122.64,100.06,117.94,100.04C116.447146,100.041729,114.958732,100.202639,113.5,100.52L109.84,92.42C111.536247,93.159125,113.315923,93.689669,115.14,94Z" fill="none" stroke="rgb(0,0,0)" stroke-width="3" stroke-miterlimit="10"/></g></g><g id="ecAdQ5j80tO11"><path id="ecAdQ5j80tO12" d="M86.53,90L108.53,90C109.515196,89.951105,110.42443,90.527887,110.8,91.44L114.94,100.19C115.39,101.19,115.05,101.63,114.04,101.63L86.53,101.63Z" fill="rgb(158,158,159)" fill-rule="evenodd" stroke="none" stroke-width="1"/><path id="ecAdQ5j80tO13" d="M20.84,130.25L87.84,130.25L87.84,90C87.812624,83.936244,82.903756,79.027376,76.84,79L56.39,79L56.39,61.13L20.84,61.13Z" fill="rgb(200,201,202)" fill-rule="evenodd" stroke="none" stroke-width="1"/><path id="ecAdQ5j80tO14" d="M18.09,143L90.61,143C92.888655,142.994503,94.734503,141.148655,94.74,138.87L94.74,133.11C94.734532,130.829708,92.890272,128.980983,90.61,128.97L18.09,128.97C15.844643,129.002235,14.032235,130.814643,14,133.06L14,138.82C13.977779,141.10264,15.807417,142.972539,18.09,143Z" fill="rgb(158,158,159)" fill-rule="evenodd" stroke="none" stroke-width="1"/><path id="ecAdQ5j80tO15" d="M82.64,143L90.64,143C92.918655,142.994503,94.764503,141.148655,94.77,138.87L94.77,133.11C94.764532,130.829708,92.920272,128.980983,90.64,128.97L82.64,128.97C84.924178,128.975497,86.774503,130.825822,86.78,133.11L86.78,138.87C86.769017,141.150272,84.920292,142.994532,82.64,143Z" fill="rgb(113,112,113)" fill-rule="evenodd" stroke="none" stroke-width="1"/><path id="ecAdQ5j80tO16" d="M48.42,62.46L56.42,62.46L56.42,128.92L48.42,128.92Z" fill="rgb(158,158,159)" fill-rule="evenodd" stroke="none" stroke-width="1"/><path id="ecAdQ5j80tO17" d="M79.89,128.92L87.89,128.92L87.89,90C87.862624,83.936244,82.953756,79.027376,76.89,79L68.89,79C74.953756,79.027376,79.862624,83.936244,79.89,90L79.89,128.91Z" fill="rgb(158,158,159)" fill-rule="evenodd" stroke="none" stroke-width="1"/><path id="ecAdQ5j80tO18" d="M20.84,54.19L56.39,54.19C58.594723,54.298455,60.326592,56.117611,60.326592,58.325C60.326592,60.532389,58.594723,62.351545,56.39,62.46L20.84,62.46C18.635277,62.351545,16.903408,60.532389,16.903408,58.325C16.903408,56.117611,18.635277,54.298455,20.84,54.19Z" fill="rgb(200,201,202)" fill-rule="evenodd" stroke="none" stroke-width="1"/><path id="ecAdQ5j80tO19" d="M48.42,54.19L56.42,54.19C58.624723,54.298455,60.356592,56.117611,60.356592,58.325C60.356592,60.532389,58.624723,62.351545,56.42,62.46L48.42,62.46C49.945809,62.535057,51.388959,61.763758,52.174359,60.453462C52.959758,59.143167,52.959758,57.506833,52.174359,56.196538C51.388959,54.886242,49.945809,54.114943,48.42,54.19Z" fill="rgb(158,158,159)" fill-rule="evenodd" stroke="none" stroke-width="1"/><path id="ecAdQ5j80tO20" d="M100.57,90L108.57,90C109.555196,89.951105,110.46443,90.527887,110.84,91.44L114.98,100.19C115.43,101.19,115.09,101.63,114.08,101.63L106.08,101.63C107.08,101.63,107.44,101.14,106.99,100.19L102.85,91.44C102.470791,90.526311,101.557981,89.949799,100.57,90Z" fill="rgb(113,112,113)" fill-rule="evenodd" stroke="none" stroke-width="1"/><path id="ecAdQ5j80tO21" d="M38.62,116.05C41.799983,116.049997,44.666655,114.133886,45.882645,111.195578C47.098635,108.257269,46.424332,104.87576,44.174314,102.628604C41.924296,100.381448,38.541931,99.711451,35.605173,100.931181C32.668415,102.150911,30.755954,105.02002,30.76,108.2C30.771012,112.534768,34.285221,116.044506,38.62,116.05Z" fill="rgb(113,112,113)" fill-rule="evenodd" stroke="none" stroke-width="1"/><path id="ecAdQ5j80tO22" d="M77.72,90L66.52,90C65.640252,90.005499,64.929983,90.720235,64.93,91.6L64.93,100.04C64.93,100.461694,65.097517,100.866117,65.3957,101.1643C65.693883,101.462483,66.098306,101.63,66.52,101.63L77.72,101.63C78.141694,101.63,78.546117,101.462483,78.8443,101.1643C79.142483,100.866117,79.31,100.461694,79.31,100.04L79.31,91.61C79.31266,91.185651,79.146636,90.777626,78.848451,90.475691C78.550267,90.173756,78.144349,90.002644,77.72,90Z" opacity="0" fill="rgb(255,224,125)" fill-rule="evenodd" stroke="none" stroke-width="1"/><path id="ecAdQ5j80tO23" d="M19.38,56.86C18.787047,57.453558,18.608749,58.345242,18.927865,59.121174C19.24698,59.897105,20.001023,60.405349,20.84,60.41L56.39,60.41C57.233782,60.415218,57.996276,59.907756,58.31722,59.127378C58.638164,58.347,58.453311,57.449924,57.85,56.86C57.467879,56.464612,56.939829,56.243989,56.39,56.25L20.84,56.25C20.291756,56.251967,19.766683,56.471346,19.38,56.86Z" fill="none" stroke="none" stroke-width="1"/><path id="ecAdQ5j80tO24" d="M38.62,114C41.425896,114.005624,43.833456,112.001858,44.337337,109.241571C44.841219,106.481283,43.29691,103.756117,40.67,102.77L40.67,108.2C40.67,109.332184,39.752184,110.25,38.62,110.25C37.487816,110.25,36.57,109.332184,36.57,108.2L36.57,102.77C35.815427,103.064311,35.133238,103.517967,34.57,104.1C32.91224,105.758746,32.416493,108.252567,33.3138,110.419234C34.211106,112.585901,36.324877,113.999014,38.67,114Z" fill="none" stroke="none" stroke-width="1"/><rect id="ecAdQ5j80tO25" width="10.29" height="7.53" rx="0" ry="0" transform="matrix(1 0 0 1 66.98 92.06)" fill="none" stroke="none" stroke-width="1"/><path id="ecAdQ5j80tO26" d="M16.62,131.58C16.224641,131.971186,16.00151,132.503823,16,133.06L16,138.82C16.010922,139.968094,16.941867,140.894585,18.09,140.9L90.61,140.9C91.16165,140.9,91.690706,140.680858,92.080782,140.290782C92.470858,139.900706,92.69,139.37165,92.69,138.82L92.69,133.06C92.679029,131.919066,91.750987,130.999947,90.61,131L18.09,131C17.54258,130.991328,17.014018,131.199876,16.62,131.58Z" fill="none" stroke="none" stroke-width="1"/><polygon id="ecAdQ5j80tO27" points="108.83,92.06 89.91,92.06 89.91,99.59 112.39,99.59 108.83,92.06" fill="none" stroke="none" stroke-width="1"/><path id="ecAdQ5j80tO28" d="M64.93,115.51C63.850586,115.585344,63.01344,116.482959,63.01344,117.565C63.01344,118.647041,63.850586,119.544656,64.93,119.62L74.69,119.62C75.458398,119.673634,76.192523,119.294105,76.593047,118.636159C76.993571,117.978214,76.993571,117.151786,76.593047,116.493841C76.192523,115.835895,75.458398,115.456366,74.69,115.51Z" fill="rgb(0,0,0)" stroke="none" stroke-width="1"/><path id="ecAdQ5j80tO29" d="M30.31,52.15L20.84,52.15C18.34184,52.148253,16.089155,53.653076,15.134237,55.961525C14.179319,58.269974,14.710638,60.926435,16.48,62.69C17.12641,63.351492,17.916993,63.85459,18.79,64.16L18.79,70.42C18.865344,71.499414,19.762959,72.33656,20.845,72.33656C21.927041,72.33656,22.824656,71.499414,22.9,70.42L22.9,64.51L54.34,64.51L54.34,126.87L22.9,126.87L22.9,79.71C22.824656,78.630586,21.927041,77.79344,20.845,77.79344C19.762959,77.79344,18.865344,78.630586,18.79,79.71L18.79,126.87L18.09,126.87C14.677533,126.875486,11.911004,129.637546,11.9,133.05L11.9,138.82C11.911004,142.232454,14.677533,144.994514,18.09,145L90.61,145C94.02312,145,96.79,142.23312,96.79,138.82L96.79,133.05C96.79,131.410962,96.138895,129.839055,94.97992,128.68008C93.820945,127.521105,92.249038,126.87,90.61,126.87L89.91,126.87L89.91,121C89.91,120.267606,89.519272,119.590845,88.885,119.224648C88.250728,118.858451,87.469272,118.858451,86.835,119.224648C86.200728,119.590845,85.81,120.267606,85.81,121L85.81,126.92L58.44,126.92L58.44,81L76.83,81C81.800563,81,85.83,85.029437,85.83,90L85.83,111.65C85.83,112.382394,86.220728,113.059155,86.855,113.425352C87.489272,113.791549,88.270728,113.791549,88.905,113.425352C89.539272,113.059155,89.93,112.382394,89.93,111.65L89.93,103.65L115.65,103.65C115.951364,103.649732,116.248772,103.581362,116.52,103.45C117.022721,103.232589,117.414281,102.818518,117.60328,102.304441C117.792279,101.790364,117.762176,101.22127,117.52,100.73L112,89.27C111.697297,88.497795,110.949382,87.992555,110.12,88L89.74,88C88.707541,81.668586,83.245027,77.014236,76.83,77L58.44,77L58.44,64.16C61.257846,63.154415,62.950666,60.274724,62.458801,57.323533C61.966936,54.372342,59.431666,52.197333,56.44,52.16L30.31,52.16ZM89.91,92.06L108.83,92.06L112.39,99.59L89.91,99.59ZM90.61,130.97C91.163387,130.969994,91.693965,131.190508,92.084329,131.582749C92.474693,131.97499,92.692661,132.506619,92.69,133.06L92.69,138.82C92.69,139.37165,92.470858,139.900706,92.080782,140.290782C91.690706,140.680858,91.16165,140.9,90.61,140.9L18.09,140.9C16.941867,140.894585,16.010922,139.968094,16,138.82L16,133.06C16.021711,131.919732,16.949537,131.005224,18.09,131ZM57.85,56.86C58.442953,57.453558,58.621251,58.345242,58.302135,59.121174C57.98302,59.897105,57.228977,60.405349,56.39,60.41L20.84,60.41C19.691248,60.41,18.76,59.478752,18.76,58.33C18.76,57.181248,19.691248,56.25,20.84,56.25L56.39,56.25C56.939829,56.243989,57.467879,56.464612,57.85,56.86Z" fill="rgb(0,0,0)" stroke="none" stroke-width="1"/><path id="ecAdQ5j80tO30" d="M81.37,109.61C81.37,109.063654,81.152965,108.539685,80.76664,108.15336C80.380315,107.767035,79.856346,107.55,79.31,107.55L64.93,107.55C64.197606,107.55,63.520845,107.940728,63.154648,108.575C62.788451,109.209272,62.788451,109.990728,63.154648,110.625C63.520845,111.259272,64.197606,111.65,64.93,111.65L79.31,111.65C79.853696,111.652659,80.376179,111.439223,80.762505,111.056647C81.148831,110.674072,81.367354,110.153696,81.37,109.61Z" fill="rgb(0,0,0)" stroke="none" stroke-width="1"/><path id="ecAdQ5j80tO31" d="M28.71,108.2C28.700927,112.933755,32.037812,117.014366,36.679136,117.945298C41.32046,118.87623,45.972868,116.398069,47.789999,112.026964C49.60713,107.655859,48.08262,102.609865,44.149171,99.976141C40.215722,97.342417,34.969431,97.854879,31.62,101.2C29.754996,103.051684,28.70731,105.571889,28.71,108.2ZM34.52,104.1C35.083238,103.517967,35.765427,103.064311,36.52,102.77L36.52,108.2C36.52,109.332184,37.437816,110.25,38.57,110.25C39.702184,110.25,40.62,109.332184,40.62,108.2L40.62,102.77C43.238249,103.7527,44.782419,106.463801,44.292077,109.217071C43.801736,111.970341,41.416532,113.981642,38.62,114C36.274877,113.999014,34.161106,112.585901,33.2638,110.419234C32.366493,108.252567,32.86224,105.758746,34.52,104.1Z" fill="rgb(0,0,0)" stroke="none" stroke-width="1"/><path id="ecAdQ5j80tO32" d="M40.67,91.34L40.67,87.41C40.67,86.277816,39.752184,85.36,38.62,85.36C37.487816,85.36,36.57,86.277816,36.57,87.41L36.57,91.34C36.57,92.472184,37.487816,93.39,38.62,93.39C39.752184,93.39,40.67,92.472184,40.67,91.34Z" fill="rgb(0,0,0)" stroke="none" stroke-width="1"/><path id="ecAdQ5j80tO33" d="M48.93,91.34L48.93,87.41C48.93,86.277816,48.012184,85.36,46.88,85.36C45.747816,85.36,44.83,86.277816,44.83,87.41L44.83,91.34C44.83,92.472184,45.747816,93.39,46.88,93.39C48.012184,93.39,48.93,92.472184,48.93,91.34Z" fill="rgb(0,0,0)" stroke="none" stroke-width="1"/><path id="ecAdQ5j80tO34" d="M30.35,85.36C29.810958,85.34652,29.28931,85.551267,28.903352,85.927811C28.517395,86.304355,28.299831,86.820789,28.3,87.36L28.3,91.29C28.3,92.422184,29.217816,93.34,30.35,93.34C31.482184,93.34,32.4,92.422184,32.4,91.29L32.4,87.41C32.413876,86.86217,32.202353,86.332644,31.814855,85.945145C31.427356,85.557647,30.89783,85.346124,30.35,85.36Z" fill="rgb(0,0,0)" stroke="none" stroke-width="1"/><path id="ecAdQ5j80tO35" d="M81.37,90C81.337534,88.885792,80.424681,87.999527,79.31,88L64.93,88C63.817058,87.999669,62.907145,88.88739,62.88,90L62.88,101.63C62.907145,102.74261,63.817058,103.630331,64.93,103.63L79.31,103.63C80.424681,103.630473,81.337534,102.744208,81.37,101.63ZM77.26,99.58L67,99.58L67,92.06L77.26,92.06Z" fill="rgb(0,0,0)" stroke="none" stroke-width="1"/></g><g id="ecAdQ5j80tO36"><g id="ecAdQ5j80tO37" mask="url(#ecAdQ5j80tO41)"><g id="ecAdQ5j80tO38"><path id="ecAdQ5j80tO39" d="M123.73,142.544144L132.71,142.360002C132.735949,142.816732,134.101086,135.6342,133.77,135.949886C133.438914,136.265573,135.084978,127.837657,134.63,127.790001L123.73,126.799999C123.284914,126.845626,112.720371,123.934584,112.39,123.632859Q112.059629,123.331133,113.11,135.949886C112.661264,145.359887,115.771568,142.59777,123.73,142.544144Z" fill="rgb(229,155,108)" fill-rule="evenodd" stroke="none" stroke-width="1"/><path id="ecAdQ5j80tO40" d="M123.73,142.95L131.73,142.95C132.175957,142.996118,132.910782,139.174336,133.24,138.87C133.569218,138.565664,134.686171,128.238201,134.675171,127.790001L132.39,127.61286C129.740807,127.612743,130.705813,127.042081,128.09,126.622861Z" fill="rgb(214,135,86)" fill-rule="evenodd" stroke="none" stroke-width="1"/></g><mask id="ecAdQ5j80tO41" mask-type="luminance"><g id="ecAdQ5j80tO42_to" transform="translate(123.235001,148.299248)"><path id="ecAdQ5j80tO42" d="M123.73,142.544144L132.71,142.360002C132.735949,142.816732,134.101086,135.6342,133.77,135.949886C133.438914,136.265573,135.084978,127.837657,134.63,127.790001L123.73,126.799999C123.284914,126.845626,112.720371,123.934584,112.39,123.632859Q112.059629,123.331133,113.11,135.949886C112.661264,145.359887,115.771568,142.59777,123.73,142.544144Z" transform="translate(-123.235001,-132.299248)" fill="rgb(255,255,255)" fill-rule="evenodd" stroke="none" stroke-width="1"/></g></mask></g><path id="ecAdQ5j80tO43" display="none" d="M111.05,112.23C110.96,111.14,111.49,110.65,112.51,110.65L134.45,110.65C135.45,110.65,136.01,111.14,135.91,112.23L133.42,141.36C133.445949,141.81673,133.270115,142.261832,132.939029,142.577518C132.607943,142.893205,132.154978,143.047656,131.7,143L115.26,143C114.813891,143.042571,114.370689,142.8937,114.04074,142.590452C113.710792,142.287204,113.525137,141.858109,113.53,141.41Z" fill="rgb(233,245,255)" fill-rule="evenodd" stroke="none" stroke-width="1"/><path id="ecAdQ5j80tO44" display="none" d="M126.72,126.62C129.335813,127.03922,131.980807,127.249883,134.63,127.25L135.91,112.25C136.01,111.16,135.47,110.67,134.45,110.67L126.45,110.67C127.45,110.67,128,111.16,127.9,112.25Z" fill="rgb(203,226,255)" fill-rule="evenodd" stroke="none" stroke-width="1"/><path id="ecAdQ5j80tO45" d="M136,108.422859L128.09,108.422859C126.957816,108.422859,126.04,109.340675,126.04,110.472859C126.04,111.605043,126.957816,112.522859,128.09,112.522859L133.77,112.522859L132.71,124.982859C129.488285,124.867286,126.287514,124.414821,123.16,123.632859C119.895358,122.816827,116.73727,121.622057,113.75,120.072859L113.11,112.522859L118.8,112.522859C119.932184,112.522859,120.85,111.605043,120.85,110.472859C120.85,109.340675,119.932184,108.422859,118.8,108.422859L110.87,108.422859C110.299153,108.419394,109.754031,108.660028,109.371937,109.084153C108.989842,109.508278,108.807195,110.075467,108.87,110.642859L111.62,142.872859C111.647133,143.957854,112.534666,144.823198,113.62,144.822859L133.24,144.822859C134.299355,144.824767,135.17644,144.000307,135.24,142.942859Q136.62,126.832859,137.99,110.712859C138.057766,110.139248,137.880403,109.563665,137.501535,109.127682C137.122668,108.691699,136.577456,108.435775,136,108.422859ZM131.37,140.722859L115.56,140.722859L114.2,124.822859C116.776765,125.992979,119.454415,126.92681,122.2,127.612859C125.538158,128.448097,128.95216,128.943948,132.39,129.092859Z" fill="rgb(0,0,0)" stroke="none" stroke-width="1"/></g></svg>