<svg id="ehbWKEkDl5M1" xmlns="http://www.w3.org/2000/svg" xmlns:xlink="http://www.w3.org/1999/xlink" viewBox="0 0 150 150" shape-rendering="geometricPrecision" text-rendering="geometricPrecision"><style><![CDATA[#ehbWKEkDl5M9_to {animation: ehbWKEkDl5M9_to__to 2500ms linear infinite normal forwards}@keyframes ehbWKEkDl5M9_to__to { 0% {transform: translate(125.899999px,124.546214px)} 53.333333% {transform: translate(125.899999px,80px)} 100% {transform: translate(125.899999px,80px)}} #ehbWKEkDl5M11 {animation: ehbWKEkDl5M11__tt 2500ms linear infinite normal forwards}@keyframes ehbWKEkDl5M11__tt { 0% {transform: translate(125.899999px,124.546214px) scale(1.075949,1) translate(-127.3px,-122.449999px)} 53.333333% {transform: translate(125.899999px,124.546214px) scale(1.075949,1) translate(-127.3px,-169px)} 100% {transform: translate(125.899999px,124.546214px) scale(1.075949,1) translate(-127.3px,-169px)}} #ehbWKEkDl5M22_to {animation: ehbWKEkDl5M22_to__to 2500ms linear infinite normal forwards}@keyframes ehbWKEkDl5M22_to__to { 0% {transform: translate(125.899999px,124.546214px)} 83.333333% {transform: translate(125.899999px,80px)} 100% {transform: translate(125.899999px,80px)}} #ehbWKEkDl5M24 {animation: ehbWKEkDl5M24__tt 2500ms linear infinite normal forwards}@keyframes ehbWKEkDl5M24__tt { 0% {transform: translate(125.899999px,124.546214px) scale(1.075949,1) translate(-127.3px,-122.449999px)} 83.333333% {transform: translate(125.899999px,124.546214px) scale(1.075949,1) translate(-127.3px,-169px)} 100% {transform: translate(125.899999px,124.546214px) scale(1.075949,1) translate(-127.3px,-169px)}} #ehbWKEkDl5M35_to {animation: ehbWKEkDl5M35_to__to 2500ms linear infinite normal forwards}@keyframes ehbWKEkDl5M35_to__to { 0% {transform: translate(125.899999px,124.546214px)} 53.333333% {transform: translate(125.899999px,80px)} 100% {transform: translate(125.899999px,80px)}} #ehbWKEkDl5M37 {animation: ehbWKEkDl5M37__tt 2500ms linear infinite normal forwards}@keyframes ehbWKEkDl5M37__tt { 0% {transform: translate(125.899999px,124.546214px) scale(1.075949,1) translate(-127.3px,-122.449999px)} 53.333333% {transform: translate(125.899999px,124.546214px) scale(1.075949,1) translate(-127.3px,-169px)} 100% {transform: translate(125.899999px,124.546214px) scale(1.075949,1) translate(-127.3px,-169px)}}]]></style><defs><filter id="ehbWKEkDl5M10-filter" x="-400%" width="600%" y="-400%" height="600%"><feComponentTransfer id="ehbWKEkDl5M10-filter-opacity-0" result="result"><feFuncA id="ehbWKEkDl5M10-filter-opacity-0-A" type="table" tableValues="0 0.56"/></feComponentTransfer></filter><filter id="ehbWKEkDl5M23-filter" x="-400%" width="600%" y="-400%" height="600%"><feComponentTransfer id="ehbWKEkDl5M23-filter-opacity-0" result="result"><feFuncA id="ehbWKEkDl5M23-filter-opacity-0-A" type="table" tableValues="0 0.56"/></feComponentTransfer></filter><filter id="ehbWKEkDl5M36-filter" x="-400%" width="600%" y="-400%" height="600%"><feComponentTransfer id="ehbWKEkDl5M36-filter-opacity-0" result="result"><feFuncA id="ehbWKEkDl5M36-filter-opacity-0-A" type="table" tableValues="0 0.56"/></feComponentTransfer></filter></defs><g id="ehbWKEkDl5M2" mask="url(#ehbWKEkDl5M12)"><g id="ehbWKEkDl5M3"><g id="ehbWKEkDl5M4" mask="url(#ehbWKEkDl5M8)"><g id="ehbWKEkDl5M5"><path id="ehbWKEkDl5M6" d="M134.7,81.4L126.5,81.4L126.5,118.3L134.7,142.9L142.9,142.9L142.9,118.3C142.9,99.9,134.7,99.9,134.7,81.4Z" fill="rgb(214,135,86)" stroke="none" stroke-width="1"/><path id="ehbWKEkDl5M7" d="M126.5,81.4L118.3,81.4C118.3,99.9,110.1,99.9,110.1,118.3L110.1,142.9L134.7,142.9L134.7,118.3C134.7,99.9,126.5,99.9,126.5,81.4Z" fill="rgb(229,155,108)" stroke="none" stroke-width="1"/></g><mask id="ehbWKEkDl5M8" mask-type="luminance"><g id="ehbWKEkDl5M9_to" transform="translate(125.899999,124.546214)"><path id="ehbWKEkDl5M9" d="M143.285889,184.549999Q143.285889,184.549999,112.61529,186.841366C112.61529,186.841366,112.086249,128.546804,112.61529,128.60189C111.262106,123.571977,112.695778,124.923392,112.61529,124.403786C112.61529,124.403786,122.17136,125.757138,128.508236,122.303786C135.66471,118.403785,143.285889,119.003785,143.285889,119.003785C143.285889,119.003785,141.241182,113.831625,143.285889,122.181626C143.409144,122.684963,143.285889,184.549999,143.285889,184.549999Z" transform="scale(1.075949,1) translate(-127.3,-122.449999)" fill="rgb(255,255,255)" stroke="rgb(0,0,0)" stroke-width="0"/></g></mask></g><path id="ehbWKEkDl5M10" d="M21.4,106.45L21.4,134.7C21.4,135.8,22.3,136.8,23.5,136.8C24.7,136.8,25.6,135.9,25.6,134.7L25.6,106.45C25.6,105.35,24.7,104.35,23.5,104.35C22.3,104.35,21.4,105.35,21.4,106.45Z" transform="matrix(1 0 0 1 103 -22.95)" filter="url(#ehbWKEkDl5M10-filter)" fill="rgb(229,155,108)" stroke="none" stroke-width="1"/><path id="ehbWKEkDl5M11" d="M112.61529,124.403785Q122.745882,125.832166,128.508237,122.203785C134.270592,118.575404,141.0553,119.590785,143.100006,119.803785" transform="translate(125.899999,124.546214) scale(1.075949,1) translate(-127.3,-122.449999)" fill="none" stroke="rgb(0,0,0)" stroke-width="4"/></g><mask id="ehbWKEkDl5M12" mask-type="luminance"><path id="ehbWKEkDl5M13" d="M118.5,81.6L116.4,94.133166L110.1,112.15L110.3,142.9L142.9,142.9L142.9,112.15L137,94.133166L134.7,81.6L118.5,81.6Z" fill="rgb(255,255,255)" stroke="none" stroke-width="0.3"/></mask></g><g id="ehbWKEkDl5M14" transform="matrix(1 0 0 1 -51.499992 0)"><g id="ehbWKEkDl5M15" mask="url(#ehbWKEkDl5M25)"><g id="ehbWKEkDl5M16"><g id="ehbWKEkDl5M17" mask="url(#ehbWKEkDl5M21)"><g id="ehbWKEkDl5M18"><path id="ehbWKEkDl5M19" d="M134.7,81.4L126.5,81.4L126.5,118.3L134.7,142.9L142.9,142.9L142.9,118.3C142.9,99.9,134.7,99.9,134.7,81.4Z" fill="rgb(214,135,86)" stroke="none" stroke-width="1"/><path id="ehbWKEkDl5M20" d="M126.5,81.4L118.3,81.4C118.3,99.9,110.1,99.9,110.1,118.3L110.1,142.9L134.7,142.9L134.7,118.3C134.7,99.9,126.5,99.9,126.5,81.4Z" fill="rgb(229,155,108)" stroke="none" stroke-width="1"/></g><mask id="ehbWKEkDl5M21" mask-type="luminance"><g id="ehbWKEkDl5M22_to" transform="translate(125.899999,124.546214)"><path id="ehbWKEkDl5M22" d="M143.285889,184.549999Q143.285889,184.549999,112.61529,186.841366C112.61529,186.841366,112.086249,128.546804,112.61529,128.60189C111.262106,123.571977,112.695778,124.923392,112.61529,124.403786C112.61529,124.403786,122.17136,125.757138,128.508236,122.303786C135.66471,118.403785,143.285889,119.003785,143.285889,119.003785C143.285889,119.003785,141.241182,113.831625,143.285889,122.181626C143.409144,122.684963,143.285889,184.549999,143.285889,184.549999Z" transform="scale(1.075949,1) translate(-127.3,-122.449999)" fill="rgb(255,255,255)" stroke="rgb(0,0,0)" stroke-width="0"/></g></mask></g><path id="ehbWKEkDl5M23" d="M21.4,106.45L21.4,134.7C21.4,135.8,22.3,136.8,23.5,136.8C24.7,136.8,25.6,135.9,25.6,134.7L25.6,106.45C25.6,105.35,24.7,104.35,23.5,104.35C22.3,104.35,21.4,105.35,21.4,106.45Z" transform="matrix(1 0 0 1 103 -22.95)" filter="url(#ehbWKEkDl5M23-filter)" fill="rgb(229,155,108)" stroke="none" stroke-width="1"/><path id="ehbWKEkDl5M24" d="M112.61529,124.403785Q122.745882,125.832166,128.508237,122.203785C134.270592,118.575404,141.0553,119.590785,143.100006,119.803785" transform="translate(125.899999,124.546214) scale(1.075949,1) translate(-127.3,-122.449999)" fill="none" stroke="rgb(0,0,0)" stroke-width="4"/></g><mask id="ehbWKEkDl5M25" mask-type="luminance"><path id="ehbWKEkDl5M26" d="M118.5,81.6L116.4,94.133166L110.1,112.15L110.3,142.9L142.9,142.9L142.9,112.15L137,94.133166L134.7,81.6L118.5,81.6Z" fill="rgb(255,255,255)" stroke="none" stroke-width="0.3"/></mask></g></g><g id="ehbWKEkDl5M27" transform="matrix(1 0 0 1 -103.098987 0)"><g id="ehbWKEkDl5M28" mask="url(#ehbWKEkDl5M38)"><g id="ehbWKEkDl5M29"><g id="ehbWKEkDl5M30" mask="url(#ehbWKEkDl5M34)"><g id="ehbWKEkDl5M31"><path id="ehbWKEkDl5M32" d="M134.7,81.4L126.5,81.4L126.5,118.3L134.7,142.9L142.9,142.9L142.9,118.3C142.9,99.9,134.7,99.9,134.7,81.4Z" fill="rgb(214,135,86)" stroke="none" stroke-width="1"/><path id="ehbWKEkDl5M33" d="M126.5,81.4L118.3,81.4C118.3,99.9,110.1,99.9,110.1,118.3L110.1,142.9L134.7,142.9L134.7,118.3C134.7,99.9,126.5,99.9,126.5,81.4Z" fill="rgb(229,155,108)" stroke="none" stroke-width="1"/></g><mask id="ehbWKEkDl5M34" mask-type="luminance"><g id="ehbWKEkDl5M35_to" transform="translate(125.899999,124.546214)"><path id="ehbWKEkDl5M35" d="M143.285889,184.549999Q143.285889,184.549999,112.61529,186.841366C112.61529,186.841366,112.086249,128.546804,112.61529,128.60189C111.262106,123.571977,112.695778,124.923392,112.61529,124.403786C112.61529,124.403786,122.17136,125.757138,128.508236,122.303786C135.66471,118.403785,143.285889,119.003785,143.285889,119.003785C143.285889,119.003785,141.241182,113.831625,143.285889,122.181626C143.409144,122.684963,143.285889,184.549999,143.285889,184.549999Z" transform="scale(1.075949,1) translate(-127.3,-122.449999)" fill="rgb(255,255,255)" stroke="rgb(0,0,0)" stroke-width="0"/></g></mask></g><path id="ehbWKEkDl5M36" d="M21.4,106.45L21.4,134.7C21.4,135.8,22.3,136.8,23.5,136.8C24.7,136.8,25.6,135.9,25.6,134.7L25.6,106.45C25.6,105.35,24.7,104.35,23.5,104.35C22.3,104.35,21.4,105.35,21.4,106.45Z" transform="matrix(1 0 0 1 103 -22.95)" filter="url(#ehbWKEkDl5M36-filter)" fill="rgb(229,155,108)" stroke="none" stroke-width="1"/><path id="ehbWKEkDl5M37" d="M112.61529,124.403785Q122.745882,125.832166,128.508237,122.203785C134.270592,118.575404,141.0553,119.590785,143.100006,119.803785" transform="translate(125.899999,124.546214) scale(1.075949,1) translate(-127.3,-122.449999)" fill="none" stroke="rgb(0,0,0)" stroke-width="4"/></g><mask id="ehbWKEkDl5M38" mask-type="luminance"><path id="ehbWKEkDl5M39" d="M118.5,81.6L116.4,94.133166L110.1,112.15L110.3,142.9L142.9,142.9L142.9,112.15L137,94.133166L134.7,81.6L118.5,81.6Z" fill="rgb(255,255,255)" stroke="none" stroke-width="0.3"/></mask></g></g><g id="ehbWKEkDl5M40"><path id="ehbWKEkDl5M41" d="M126.5,32.2L76,32.2L114.3,60.9L126.6,60.9L126.6,32.2Z" fill="rgb(158,158,159)" stroke="none" stroke-width="1"/><path id="ehbWKEkDl5M42" d="M23.5,32.2L114.3,32.2L114.3,60.9L23.5,60.9L23.5,32.2Z" fill="rgb(200,201,202)" stroke="none" stroke-width="1"/><path id="ehbWKEkDl5M43" d="M122.4,36.3L130.6,36.3L130.6,69.1L122.4,69.1L122.4,36.3Z" fill="rgb(128,147,153)" stroke="none" stroke-width="1"/><path id="ehbWKEkDl5M44" d="M70.9,36.3L79.1,36.3L79.1,69.1L70.9,69.1L70.9,36.3Z" fill="rgb(158,158,159)" stroke="none" stroke-width="1"/><path id="ehbWKEkDl5M45" d="M19.4,36.3L27.6,36.3L27.6,69.1L19.4,69.1L19.4,36.3Z" fill="rgb(158,158,159)" stroke="none" stroke-width="1"/><path id="ehbWKEkDl5M46" d="M122.4,44.5L130.6,44.5C137.4,44.5,142.9,39,142.9,32.2L111.5,21.3L122.4,44.5Z" fill="rgb(128,147,153)" stroke="none" stroke-width="1"/><path id="ehbWKEkDl5M47" d="M134.7,7.1L111.5,32.3L142.9,32.3L142.9,7.1L134.7,7.1Z" fill="rgb(158,158,159)" stroke="none" stroke-width="1"/><path id="ehbWKEkDl5M48" d="M19.4,44.5L122.5,44.5C129.3,44.5,134.8,39,134.8,32.2L70.9,15.8L7.1,32.2C7.1,39,12.6,44.5,19.4,44.5Z" fill="rgb(158,158,159)" stroke="none" stroke-width="1"/><path id="ehbWKEkDl5M49" d="M7.1,7.1L134.8,7.1L134.8,32.3L7.1,32.3L7.1,7.1Z" fill="rgb(200,201,202)" stroke="none" stroke-width="1"/><path id="ehbWKEkDl5M50" display="none" d="M21.4,89.6L21.4,134.7C21.4,135.8,22.3,136.8,23.5,136.8C24.7,136.8,25.6,135.9,25.6,134.7L25.6,89.6C25.6,88.5,24.7,87.5,23.5,87.5C22.3,87.5,21.4,88.5,21.4,89.6Z" fill="rgb(0,0,0)" stroke="none" stroke-width="1"/><path id="ehbWKEkDl5M51" d="M130.6,71.3L128.7,71.3L128.7,79.5L134.9,79.5C136.1,79.5,137,80.5,137,81.6C137,90.4,138.9,94.7,140.9,99.2C143,103.9,145.2,108.8,145.2,118.5L145.2,143.1C145.2,144.3,144.2,145.2,143.1,145.2L110.3,145.2C109.1,145.2,108.2,144.2,108.2,143.1L108.2,118.5C108.2,108.8,110.4,103.9,112.5,99.2C114.5,94.7,116.4,90.4,116.4,81.6C116.4,80.4,117.4,79.5,118.5,79.5L124.7,79.5L124.7,71.3L122.6,71.3C121.4,71.3,120.5,70.3,120.5,69.2L120.5,63L81.3,63L81.3,69.2C81.3,70.4,80.3,71.3,79.2,71.3L77.1,71.3L77.1,79.5L83.3,79.5C84.5,79.5,85.4,80.5,85.4,81.6C85.4,90.4,87.3,94.7,89.3,99.2C91.4,103.9,93.6,108.8,93.6,118.5L93.6,143.1C93.6,144.3,92.6,145.2,91.5,145.2L58.7,145.2C57.5,145.2,56.6,144.2,56.6,143.1L56.6,118.5C56.6,108.8,58.8,103.9,60.9,99.2C62.9,94.7,64.8,90.4,64.8,81.6C64.8,80.4,65.8,79.5,66.9,79.5L73.1,79.5L73.1,71.3L71,71.3C69.8,71.3,68.9,70.3,68.9,69.2L68.9,63L29.7,63L29.7,69.2C29.7,70.4,28.7,71.3,27.6,71.3L25.5,71.3L25.5,79.5L31.7,79.5C32.9,79.5,33.8,80.5,33.8,81.6C33.8,90.4,35.7,94.7,37.7,99.2C39.8,103.9,42,108.8,42,118.5L42,143.1C42,144.3,41,145.2,39.9,145.2L7.1,145.2C5.9,145.2,5,144.2,5,143.1L5,118.5C5,108.8,7.2,103.9,9.3,99.2C11.3,94.7,13.2,90.4,13.2,81.6C13.2,80.4,14.2,79.5,15.3,79.5L21.5,79.5L21.5,71.3L19.4,71.3C18.2,71.3,17.3,70.3,17.3,69.2L17.3,46.5C10.4,45.5,5,39.5,5,32.3L5,7.1C5,5.9,5.9,5,7.1,5L142.9,5C144.1,5,145,6,145,7.1L145,32.2C145,39.4,139.6,45.4,132.7,46.4L132.7,69.1C132.7,70.3,131.7,71.2,130.6,71.2L130.6,71.3ZM29.6,83.5L17.2,83.5C17,91.8,14.9,96.3,13,100.7C11,105.2,9.1,109.5,9.1,118.3L9.1,140.9L37.8,140.9L37.8,118.3C37.8,109.5,35.9,105.2,33.9,100.7C31.9,96.3,29.9,91.8,29.6,83.5ZM60.6,141L89.3,141L89.3,126.00386L89.3,116.3L89.3,116.3C89.3,116.3,89.3,116.3,89.3,116.3C89,108.9,87.3,104.9,85.4,100.7C83.5,96.3,81.5,91.8,81,83.5L68.6,83.5C68.4,91.8,66.3,96.3,64.4,100.7C62.4,105.2,60.5,109.5,60.5,118.3L60.5,124.4C60.5,124.4,60.5,124.4,60.5,124.4L60.6,128.6L60.6,128.6C60.6,128.6,60.6,128.6,60.6,128.6L60.6,141ZM132.7,83.5L120.3,83.5C120.1,91.8,118,96.3,116.1,100.7C114.1,105.2,112.2,109.5,112.2,118.3L112.2,140.9L140.9,140.9L140.9,118.3C140.9,109.5,139,105.2,137,100.7C135,96.3,133,91.8,132.7,83.5ZM128.6,67.1L128.6,46.6L124.5,46.6L124.5,67.1L128.6,67.1ZM19.4,42.6L130.7,42.6C135.6,42.6,139.7,39.1,140.7,34.4L35.8,34.4C34.6,34.4,33.7,33.5,33.7,32.3C33.7,31.1,34.7,30.2,35.8,30.2L140.9,30.2L140.9,9.1L9.1,9.1L9.1,30.1L27.6,30.1C28.8,30.1,29.7,31,29.7,32.2C29.7,33.4,28.7,34.3,27.6,34.3L9.3,34.3C10.3,38.9,14.4,42.5,19.4,42.6ZM25.5,46.6L21.4,46.6L21.4,67.1L25.5,67.1L25.5,46.6ZM68.8,58.9L68.8,46.6L29.6,46.6L29.6,58.9L68.8,58.9ZM77.1,46.6L73,46.6L73,67.1L77.1,67.1L77.1,46.6ZM120.4,58.9L120.4,46.6L81.2,46.6L81.2,58.9L120.4,58.9Z" fill="rgb(0,0,0)" stroke="none" stroke-width="1"/></g></svg>