<svg id="e8P1hVAKlJY1" xmlns="http://www.w3.org/2000/svg" xmlns:xlink="http://www.w3.org/1999/xlink" viewBox="0 0 150 150" shape-rendering="geometricPrecision" text-rendering="geometricPrecision"><style><![CDATA[#e8P1hVAKlJY3 {animation-name: e8P1hVAKlJY3__tt, e8P1hVAKlJY3_c_o;animation-duration: 3000ms;animation-fill-mode: forwards;animation-timing-function: linear;animation-direction: normal;animation-iteration-count: infinite;}@keyframes e8P1hVAKlJY3__tt { 0% {transform: translate(118.699993px,79.149994px) translate(-118.699993px,-79.149994px)} 13.333333% {transform: translate(118.699993px,79.149994px) translate(-108px,-79.149994px)} 100% {transform: translate(118.699993px,79.149994px) translate(-108px,-79.149994px)}}@keyframes e8P1hVAKlJY3_c_o { 0% {opacity: 1} 13.333333% {opacity: 0} 100% {opacity: 0}} #e8P1hVAKlJY6 {animation-name: e8P1hVAKlJY6__tt, e8P1hVAKlJY6_c_o;animation-duration: 3000ms;animation-fill-mode: forwards;animation-timing-function: linear;animation-direction: normal;animation-iteration-count: infinite;}@keyframes e8P1hVAKlJY6__tt { 0% {transform: translate(87.899998px,79.149994px) translate(-87.899998px,-79.149994px)} 36.666667% {transform: translate(87.899998px,79.149994px) translate(-43px,-79.149994px)} 100% {transform: translate(87.899998px,79.149994px) translate(-43px,-79.149994px)}}@keyframes e8P1hVAKlJY6_c_o { 0% {opacity: 1} 26.666667% {opacity: 1} 40% {opacity: 0} 100% {opacity: 0}} #e8P1hVAKlJY9 {animation-name: e8P1hVAKlJY9__tt, e8P1hVAKlJY9_c_o;animation-duration: 3000ms;animation-fill-mode: forwards;animation-timing-function: linear;animation-direction: normal;animation-iteration-count: infinite;}@keyframes e8P1hVAKlJY9__tt { 0% {transform: translate(74px,79.149994px) translate(-75px,-79.149994px)} 66.666667% {transform: translate(74px,79.149994px) translate(4px,-79.149994px)} 100% {transform: translate(74px,79.149994px) translate(4px,-79.149994px)}}@keyframes e8P1hVAKlJY9_c_o { 0% {opacity: 1} 46.666667% {opacity: 1} 60% {opacity: 0} 100% {opacity: 0}} #e8P1hVAKlJY101 {animation: e8P1hVAKlJY101_c_o 3000ms linear infinite normal forwards}@keyframes e8P1hVAKlJY101_c_o { 0% {opacity: 0} 16.666667% {opacity: 1} 33.333333% {opacity: 0} 50% {opacity: 1} 66.666667% {opacity: 0} 83.333333% {opacity: 1} 100% {opacity: 0}}]]></style><g id="e8P1hVAKlJY2"><g id="e8P1hVAKlJY3" transform="translate(118.699993,79.149994) translate(-118.699993,-79.149994)"><path id="e8P1hVAKlJY4" d="M129.7,89.7C130.1,89.7,130.5,89.4,130.5,88.9L130.5,69.5C130.5,69.1,130.2,68.7,129.7,68.7L107.6,68.7C107.1,68.7,106.8,69.1,106.8,69.5L106.8,88.8C106.7,89.1,106.9,89.4,107.2,89.6C107.3,89.6,107.4,89.7,107.5,89.7L129.7,89.7Z" fill="rgb(221,179,122)" stroke="none" stroke-width="1"/><path id="e8P1hVAKlJY5" d="M129.4,66.7C121.5,66.7,115.2,66.7,108,66.7C106.2,66.7,104.8,68.1,104.8,69.9L104.8,69.9L104.8,88.4L104.8,88.4C104.8,90.2,106.2,91.6,108,91.6C115.4,91.6,121.9,91.6,129.4,91.6C131.2,91.6,132.6,90.2,132.6,88.4L132.6,88.4L132.6,70L132.6,70C132.6,68.2,131.1,66.7,129.4,66.7ZM116.2,69.1L116.2,69.1L121,69.1L121.1,69.1L121.1,71.7L121,71.6L121,71.7L119.5,70.7C119.3,70.5,119,70.5,118.7,70.5C118.4,70.5,118.1,70.6,117.9,70.7L116.3,71.7L116.3,71.6L116.2,71.7L116.2,69.1ZM129.3,89.3L108.1,89.3L108,89.3C107.6,89.3,107.2,89,107.2,88.5C107.2,88.5,107.2,69.9,107.1,69.8C107.2,69.4,107.5,69.1,107.9,69.1L108,69.1L113.8,69.1L113.9,69.1L113.9,73.3C113.9,73.9,114.2,74.4,114.7,74.7C114.9,74.8,115.2,74.9,115.4,74.9C115.7,74.9,115.9,74.8,116.1,74.7L118.5,73.1L118.5,73.1L118.5,73.1L120.9,74.7C121.1,74.9,121.4,74.9,121.6,74.9C121.8,74.9,122.1,74.8,122.3,74.7C122.8,74.5,123.1,73.9,123.1,73.3L123.1,69.1L123.2,69.1L129,69.1L129.2,69.1C129.6,69.1,130,69.4,130,69.9L130,69.9L130,88.4C130.2,89,129.8,89.3,129.3,89.3L129.3,89.3Z" fill="rgb(0,0,0)" stroke="none" stroke-width="1"/></g><g id="e8P1hVAKlJY6" transform="translate(87.899998,79.149994) translate(-87.899998,-79.149994)"><path id="e8P1hVAKlJY7" d="M98.9,89.7C99.3,89.7,99.7,89.4,99.7,88.9L99.7,69.5C99.7,69.1,99.4,68.7,98.9,68.7L76.8,68.7C76.3,68.7,76,69.1,76,69.5L76,88.8C75.9,89.1,76.1,89.4,76.4,89.6C76.5,89.6,76.6,89.7,76.7,89.7L98.9,89.7Z" fill="rgb(221,179,122)" stroke="none" stroke-width="1"/><path id="e8P1hVAKlJY8" d="M98.6,66.7C90.7,66.7,84.4,66.7,77.2,66.7C75.4,66.7,74,68.1,74,69.9L74,69.9L74,88.4L74,88.4C74,90.2,75.4,91.6,77.2,91.6C84.6,91.6,91.1,91.6,98.6,91.6C100.4,91.6,101.8,90.2,101.8,88.4L101.8,88.4L101.8,70L101.8,70C101.8,68.2,100.3,66.7,98.6,66.7ZM85.4,69.1L85.4,69.1L90.2,69.1L90.3,69.1L90.3,71.7L90.2,71.6L90.2,71.7L88.7,70.7C88.5,70.5,88.2,70.5,87.9,70.5C87.6,70.5,87.3,70.6,87.1,70.7L85.5,71.7L85.5,71.6L85.4,71.7L85.4,69.1ZM98.5,89.3L77.3,89.3L77.2,89.3C76.8,89.3,76.4,89,76.4,88.5C76.4,88.5,76.4,69.9,76.3,69.8C76.4,69.4,76.7,69.1,77.1,69.1L77.2,69.1L83,69.1L83.1,69.1L83.1,73.3C83.1,73.9,83.4,74.4,83.9,74.7C84.1,74.8,84.4,74.9,84.6,74.9C84.9,74.9,85.1,74.8,85.3,74.7L87.7,73.1L87.7,73.1L87.7,73.1L90.1,74.7C90.3,74.9,90.6,74.9,90.8,74.9C91,74.9,91.3,74.8,91.5,74.7C92,74.5,92.3,73.9,92.3,73.3L92.3,69.1L92.4,69.1L98.2,69.1L98.4,69.1C98.8,69.1,99.2,69.4,99.2,69.9L99.2,69.9L99.2,88.4C99.4,89,99,89.3,98.5,89.3L98.5,89.3Z" fill="rgb(0,0,0)" stroke="none" stroke-width="1"/></g><g id="e8P1hVAKlJY9" transform="translate(74,79.149994) translate(-75,-79.149994)"><path id="e8P1hVAKlJY10" d="M68.1,89.7C68.5,89.7,68.9,89.4,68.9,88.9L68.9,69.5C68.9,69.1,68.6,68.7,68.1,68.7L46,68.7C45.5,68.7,45.2,69.1,45.2,69.5L45.2,88.8C45.1,89.1,45.3,89.4,45.6,89.6C45.7,89.6,45.8,89.7,45.9,89.7L68.1,89.7Z" fill="rgb(221,179,122)" stroke="none" stroke-width="1"/><path id="e8P1hVAKlJY11" d="M67.8,66.7C59.9,66.7,53.6,66.7,46.4,66.7C44.6,66.7,43.2,68.1,43.2,69.9L43.2,69.9L43.2,88.4L43.2,88.4C43.2,90.2,44.6,91.6,46.4,91.6C53.8,91.6,60.3,91.6,67.8,91.6C69.6,91.6,71,90.2,71,88.4L71,88.4L71,70L71,70C71,68.2,69.6,66.7,67.8,66.7ZM54.6,69.1L54.6,69.1L59.4,69.1L59.5,69.1L59.5,71.7L59.4,71.6L59.4,71.7L57.9,70.7C57.7,70.5,57.4,70.5,57.1,70.5C56.8,70.5,56.5,70.6,56.3,70.7L54.7,71.7L54.7,71.6L54.6,71.7L54.6,69.1ZM67.7,89.3L46.5,89.3L46.4,89.3C46,89.3,45.6,89,45.6,88.5C45.6,88.5,45.6,69.9,45.5,69.8C45.6,69.4,45.9,69.1,46.3,69.1L46.4,69.1L52.2,69.1L52.3,69.1L52.3,73.3C52.3,73.9,52.6,74.4,53.1,74.7C53.3,74.8,53.6,74.9,53.8,74.9C54.1,74.9,54.3,74.8,54.5,74.7L57,73L57,73L57,73L59.4,74.6C59.6,74.8,59.9,74.8,60.1,74.8C60.3,74.8,60.6,74.7,60.8,74.6C61.3,74.4,61.6,73.8,61.6,73.2L61.6,69L61.7,69L67.5,69L67.7,69C68.1,69,68.5,69.3,68.5,69.8L68.5,69.8L68.5,88.3C68.6,89,68.2,89.3,67.7,89.3L67.7,89.3Z" fill="rgb(0,0,0)" stroke="none" stroke-width="1"/></g></g><g id="e8P1hVAKlJY12"><rect id="e8P1hVAKlJY13" width="6.5" height="10.8" rx="0" ry="0" transform="matrix(1 0 0 1 58.6 111.2)" fill="none" stroke="none" stroke-width="1"/><path id="e8P1hVAKlJY14" d="M11.5,59.4C11.4,59.4,11.4,59.4,11.5,59.4L11.3,59.4C11.2,59.4,11.2,59.4,11.2,59.4L11.1,59.4L11,59.4C10.9,59.4,10.9,59.4,10.9,59.4L10.8,59.4L10.5,59.4L10.5,59.5L10.8,59.5C10.8,59.5,10.8,59.5,10.9,59.5C11,59.5,11.2,59.5,11.5,59.4C14,59.5,23.8,59.5,57.9,59.5L57.9,59.4C23.7,59.4,13.9,59.4,11.5,59.4C11.5,59.4,11.4,59.4,11.5,59.4Z" fill="none" stroke="none" stroke-width="1"/><path id="e8P1hVAKlJY15" d="M72,99.9C72,99.9,72,100,72.1,100C72.1,100,72.1,99.9,72,99.9Z" fill="none" stroke="none" stroke-width="1"/><path id="e8P1hVAKlJY16" d="M70.8,99.1C70,99.1,69.3,99.7,69.4,100.5C69.4,99.7,70,99.1,70.8,99.1Z" fill="none" stroke="none" stroke-width="1"/><path id="e8P1hVAKlJY17" d="M69.7,101.4C69.8,101.5,69.8,101.5,69.9,101.6C69.8,101.5,69.8,101.5,69.7,101.4Z" fill="none" stroke="none" stroke-width="1"/><rect id="e8P1hVAKlJY18" width="3.7" height="0.1" rx="0" ry="0" transform="matrix(1 0 0 1 68 122)" fill="none" stroke="none" stroke-width="1"/><path id="e8P1hVAKlJY19" d="M71.9,99.6C71.8,99.5,71.8,99.5,71.7,99.4C71.8,99.5,71.8,99.5,71.9,99.6Z" fill="none" stroke="none" stroke-width="1"/><path id="e8P1hVAKlJY20" d="M72.1,101C72.1,101.1,72.1,101.1,72,101.1C72.1,101.1,72.1,101,72.1,101Z" fill="none" stroke="none" stroke-width="1"/><rect id="e8P1hVAKlJY21" width="15.6" height="10.8" rx="0" ry="0" transform="matrix(1 0 0 1 74.6 111.2)" fill="none" stroke="none" stroke-width="1"/><rect id="e8P1hVAKlJY22" width="3.7" height="0.1" rx="0" ry="0" transform="matrix(1 0 0 1 118.2 122)" fill="none" stroke="none" stroke-width="1"/><path id="e8P1hVAKlJY23" d="M70.3,101.8C70.2,101.8,70.2,101.8,70.2,101.7C70.2,101.8,70.3,101.8,70.3,101.8Z" fill="none" stroke="none" stroke-width="1"/><path id="e8P1hVAKlJY24" d="M69.6,101.1C69.6,101.1,69.6,101,69.5,101C69.5,101,69.5,101.1,69.6,101.1Z" fill="none" stroke="none" stroke-width="1"/><path id="e8P1hVAKlJY25" d="M70.8,104.9C73.2,104.9,75.2,103,75.2,100.5C75.2,102.9,73.2,104.9,70.8,104.9Z" fill="none" stroke="none" stroke-width="1"/><path id="e8P1hVAKlJY26" d="M71.3,99.2C71.4,99.2,71.4,99.2,71.4,99.3C71.4,99.2,71.3,99.2,71.3,99.2Z" fill="none" stroke="none" stroke-width="1"/><rect id="e8P1hVAKlJY27" width="15.6" height="10.8" rx="0" ry="0" transform="matrix(1 0 0 1 99.7 111.2)" fill="none" stroke="none" stroke-width="1"/><rect id="e8P1hVAKlJY28" width="3.7" height="0.1" rx="0" ry="0" transform="matrix(1 0 0 1 93.1 122)" fill="none" stroke="none" stroke-width="1"/><path id="e8P1hVAKlJY29" d="M98.2,104.9C100.6,104.9,102.6,103,102.6,100.5C102.6,102.9,100.6,104.9,98.2,104.9Z" fill="none" stroke="none" stroke-width="1"/><path id="e8P1hVAKlJY30" d="M125.7,99.1C124.9,99.1,124.2,99.7,124.3,100.5C124.3,99.7,124.9,99.1,125.7,99.1Z" fill="none" stroke="none" stroke-width="1"/><path id="e8P1hVAKlJY31" d="M27.1,29.3C38,29.2,45.4,29.2,50.4,29.2C45.4,29.2,38,29.2,27.1,29.3Z" fill="none" stroke="none" stroke-width="1"/><path id="e8P1hVAKlJY32" d="M125.7,104.9C128.1,104.9,130.1,103,130.1,100.5C130.1,102.9,128.1,104.9,125.7,104.9Z" fill="none" stroke="none" stroke-width="1"/><path id="e8P1hVAKlJY33" d="M142.1,100.6C142.1,100.6,142.1,100.6,142.1,100.6C142.1,104.8,138.6,108.3,134.3,108.2C132.7,108.2,60.1,108.2,58.5,108.2L58.5,108.4C59.8,108.4,132.7,108.4,134.3,108.4C138.6,108.4,142.1,104.9,142.1,100.6Z" fill="none" stroke="none" stroke-width="1"/><polygon id="e8P1hVAKlJY34" points="40.8,43.2 32.2,32.3 32.1,32.3 40.7,43.2" fill="none" stroke="none" stroke-width="1"/><path id="e8P1hVAKlJY35" d="M26.4,107.1L41.8,107.1C42.6,107.1,43.2,107.8,43.2,108.5C43.2,108.5,43.2,108.5,43.2,108.5C43.2,107.7,42.5,107,41.7,107L26.4,107.1C25.6,107,24.9,107.7,24.9,108.5C24.9,108.5,24.9,108.5,24.9,108.5C24.9,107.8,25.6,107.1,26.4,107.1Z" fill="none" stroke="none" stroke-width="1"/><path id="e8P1hVAKlJY36" d="M71.7,101.6C71.8,101.5,71.8,101.5,71.9,101.4C71.8,101.5,71.8,101.5,71.7,101.6Z" fill="none" stroke="none" stroke-width="1"/><path id="e8P1hVAKlJY37" d="M46.2,101.9L22,101.9C20.3,101.9,19,103.3,19,104.9L19,105C19,103.3,20.4,102,22,102L46.2,102C47.8,102,49.2,103.3,49.2,105L49.2,104.9C49.2,103.2,47.8,101.9,46.2,101.9Z" fill="none" stroke="none" stroke-width="1"/><path id="e8P1hVAKlJY38" d="M27.4,93.7C27.4,95,26.3,96.1,25.1,96.1C25.1,96.1,25.1,96.1,25.1,96.1C26.4,96.1,27.5,95,27.4,93.7C27.5,92.4,26.4,91.3,25.1,91.3C25.1,91.3,25.1,91.3,25.1,91.3C26.3,91.3,27.4,92.4,27.4,93.7Z" fill="none" stroke="none" stroke-width="1"/><rect id="e8P1hVAKlJY39" width="24.2" height="0" rx="0" ry="0" transform="matrix(1 0 0 1 22 104.9)" fill="none" stroke="none" stroke-width="1"/><path id="e8P1hVAKlJY40" d="M71.4,101.7C71.4,101.7,71.3,101.7,71.3,101.8C71.3,101.8,71.4,101.8,71.4,101.7Z" fill="none" stroke="none" stroke-width="1"/><path id="e8P1hVAKlJY41" d="M125.7,99.1C124.9,99.1,124.3,99.7,124.3,100.5C124.3,101.3,124.9,101.9,125.7,101.9C126.5,101.9,127.1,101.3,127.1,100.5C127.1,99.7,126.5,99.1,125.7,99.1Z" fill="rgb(255,255,255)" stroke="none" stroke-width="1"/><rect id="e8P1hVAKlJY42" width="28.6" height="12.9" rx="0" ry="0" transform="matrix(1 0 0 1 19.6 69.6)" fill="rgb(255,224,125)" stroke="none" stroke-width="1"/><path id="e8P1hVAKlJY43" d="M142.1,100.5C142.1,96.2,138.6,92.7,134.3,92.7L58.5,92.7L58.5,108.1C60.1,108.1,132.7,108.1,134.3,108.1C138.6,108.3,142.1,104.8,142.1,100.5ZM70.8,104.9C68.4,104.9,66.4,103,66.4,100.5C66.4,98.1,68.4,96.1,70.8,96.1C73.2,96.1,75.2,98.1,75.2,100.5C75.2,103,73.2,104.9,70.8,104.9ZM98.2,104.9C95.8,104.9,93.8,103,93.8,100.5C93.8,98.1,95.8,96.1,98.2,96.1C100.6,96.1,102.6,98.1,102.6,100.5C102.6,103,100.6,104.9,98.2,104.9ZM125.7,104.9C123.3,104.9,121.3,103,121.3,100.5C121.3,98.1,123.3,96.1,125.7,96.1C128.1,96.1,130.1,98.1,130.1,100.5C130.1,103,128.1,104.9,125.7,104.9Z" fill="rgb(200,201,202)" stroke="none" stroke-width="1"/><path id="e8P1hVAKlJY44" d="M22,112.2L46.2,112.2L46.2,104.9L22,104.9L22,112.2ZM24.9,108.5C24.9,107.7,25.6,107,26.4,107L41.7,107C42.5,107,43.2,107.7,43.2,108.5C43.2,108.5,43.2,108.5,43.2,108.5C43.2,108.5,43.2,108.5,43.2,108.6C43.2,109.4,42.5,110.1,41.7,110.1L26.4,110.1C25.6,110.1,24.9,109.4,24.9,108.5C24.9,108.6,24.9,108.6,24.9,108.5C24.9,108.5,24.9,108.5,24.9,108.5Z" fill="rgb(255,255,255)" stroke="none" stroke-width="1"/><rect id="e8P1hVAKlJY45" width="5.2" height="6.6" rx="0" ry="0" transform="matrix(1 0 0 1 41.5 46.1)" fill="rgb(158,158,159)" stroke="none" stroke-width="1"/><polygon id="e8P1hVAKlJY46" points="47.3,43.2 55.9,32.3 32.2,32.3 40.8,43.2" fill="rgb(200,201,202)" stroke="none" stroke-width="1"/><path id="e8P1hVAKlJY47" d="M50.4,29.2C59.2,29.2,60.6,29.3,60.7,29.3C61.1,29.3,61.4,29,61.4,28.6C61.4,28.2,61.1,27.9,60.7,27.9L27.1,27.9C26.7,27.9,26.4,28.2,26.4,28.6C26.4,29,26.7,29.3,27.1,29.3C38,29.2,45.4,29.2,50.4,29.2Z" fill="rgb(255,255,255)" stroke="none" stroke-width="1"/><path id="e8P1hVAKlJY48" d="M72.1,101C72.2,100.8,72.2,100.7,72.2,100.5C72.2,100.3,72.2,100.2,72.1,100C72.1,99.9,72.1,99.9,72,99.9C72,99.8,71.9,99.7,71.8,99.7C71.7,99.6,71.7,99.6,71.6,99.5C71.5,99.4,71.4,99.4,71.4,99.3C71.4,99.3,71.3,99.3,71.3,99.2C71.1,99.1,71,99.1,70.8,99.1C70,99.1,69.4,99.7,69.4,100.5C69.4,100.7,69.4,100.8,69.5,101C69.5,101,69.5,101.1,69.6,101.1C69.6,101.2,69.7,101.3,69.8,101.3C69.9,101.4,69.9,101.4,70,101.5C70.1,101.6,70.2,101.6,70.2,101.7C70.2,101.7,70.3,101.7,70.3,101.8C70.5,101.9,70.6,101.9,70.8,101.9C71,101.9,71.1,101.9,71.3,101.8C71.4,101.8,71.4,101.8,71.4,101.7C71.5,101.7,71.6,101.6,71.6,101.5C71.7,101.4,71.7,101.4,71.8,101.3C71.9,101.2,71.9,101.1,72,101.1C72.1,101.1,72.1,101,72.1,101Z" fill="rgb(255,255,255)" stroke="none" stroke-width="1"/><path id="e8P1hVAKlJY49" d="M98.2,99.1C97.4,99.1,96.8,99.7,96.8,100.5C96.8,101.3,97.4,101.9,98.2,101.9C99,101.9,99.6,101.3,99.6,100.5C99.6,99.7,99,99.1,98.2,99.1Z" fill="rgb(255,255,255)" stroke="none" stroke-width="1"/><rect id="e8P1hVAKlJY50" width="3.7" height="10.7" rx="0" ry="0" transform="matrix(1 0 0 1 118.2 111.3)" fill="rgb(200,201,202)" stroke="none" stroke-width="1"/><rect id="e8P1hVAKlJY51" width="3.7" height="10.7" rx="0" ry="0" transform="matrix(1 0 0 1 68 111.3)" fill="rgb(200,201,202)" stroke="none" stroke-width="1"/><path id="e8P1hVAKlJY52" d="M12.4,122.1L55.6,122.1L55.6,62.4L12.4,62.4L12.4,122.1ZM49.2,105L49.2,112.2L49.2,112.3C49.2,114,47.8,115.3,46.2,115.3L22,115.3C20.3,115.3,19,113.9,19,112.3L19,112.2L19,105L19,104.9C19,103.3,20.3,101.9,22,101.9L46.2,101.9C47.8,101.9,49.2,103.2,49.2,104.9L49.2,105ZM22.6,93.7C22.6,92.4,23.7,91.3,25,91.3C25,91.3,25,91.3,25,91.3C25,91.3,25,91.3,25,91.3C26.3,91.3,27.4,92.4,27.4,93.7C27.4,95,26.3,96.1,25,96.1C25,96.1,25,96.1,25,96.1C25,96.1,25,96.1,24.9,96.1C23.7,96.1,22.6,95,22.6,93.7ZM28.9,93.7C28.9,92.4,30,91.3,31.3,91.3C32.6,91.3,33.7,92.4,33.7,93.7C33.7,95,32.6,96.1,31.3,96.1C30,96.1,28.9,95,28.9,93.7ZM16.7,68.1C16.7,67.3,17.4,66.6,18.2,66.6L49.7,66.6C50.5,66.6,51.2,67.3,51.2,68.1L51.2,84C51.2,84.8,50.5,85.5,49.7,85.5L18.2,85.5C17.4,85.5,16.7,84.8,16.7,84L16.7,68.1ZM18.8,91.3C20.1,91.3,21.2,92.4,21.2,93.7C21.2,95,20.1,96.1,18.8,96.1C17.5,96.1,16.4,95,16.4,93.7C16.4,92.4,17.5,91.3,18.8,91.3Z" fill="rgb(200,201,202)" stroke="none" stroke-width="1"/><rect id="e8P1hVAKlJY53" width="3.7" height="10.7" rx="0" ry="0" transform="matrix(1 0 0 1 93.1 111.3)" fill="rgb(200,201,202)" stroke="none" stroke-width="1"/><path id="e8P1hVAKlJY54" d="M10.5,59.4L10.8,59.4L10.9,59.4C10.9,59.4,10.9,59.4,11,59.4L11.1,59.4L11.2,59.4C11.2,59.4,11.2,59.4,11.3,59.4L11.4,59.4C11.4,59.4,11.4,59.4,11.5,59.4C11.5,59.4,11.5,59.4,11.5,59.4C13.9,59.4,23.7,59.4,57.9,59.4L57.9,55.7L10.5,55.7L10.5,59.4Z" fill="rgb(255,255,255)" stroke="none" stroke-width="1"/><path id="e8P1hVAKlJY55" d="M60.7,29.3C60.7,29.3,60.7,29.3,60.7,29.3C60.7,29.3,60.8,29.3,60.7,29.3Z" fill="rgb(0,0,0)" stroke="none" stroke-width="1"/><path id="e8P1hVAKlJY56" d="M134.4,111.2C140.3,111.2,145.1,106.4,145.1,100.5C145.1,94.9,140.8,90.3,135.3,89.8C135.3,89.7,58.5,89.8,58.5,89.8L58.5,62.4L58.7,62.4C59.9,62.4,60.8,61.4,60.8,60.3L60.8,54.9C60.8,53.7,59.9,52.8,58.7,52.8L49.6,52.8L49.6,45.2L59.6,32.4L60.6,32.4C62.6,32.4,64.2,30.8,64.2,28.8C64.2,26.8,62.6,25.2,60.6,25.2L27.1,25.2C25.1,25.2,23.5,26.8,23.5,28.8C23.5,30.8,25.1,32.4,27.1,32.4L28.5,32.4L38.5,45.2L38.5,52.8L9.6,52.8C8.4,52.8,7.5,53.8,7.5,54.9L7.5,60.3C7.5,61.4,8.4,62.3,9.4,62.4L9.4,122.1L6.5,122.1C5.7,122.1,5,122.8,5,123.6C5,124.4,5.7,125,6.5,125L134.4,125C135.2,125,135.9,124.3,135.9,123.5C135.9,122.7,135.2,122,134.4,122L124.9,122L124.9,111.2L134.4,111.2ZM27.1,29.3C26.7,29.3,26.4,29,26.4,28.6C26.4,28.2,26.7,27.9,27.1,27.9L60.7,27.9C61.1,27.9,61.4,28.2,61.4,28.6C61.4,29,61.1,29.3,60.7,29.3C60.7,29.3,60.7,29.3,60.7,29.3C60.8,29.3,59.8,29.2,50.4,29.2C45.4,29.2,38,29.2,27.1,29.3ZM32.1,32.3C32.1,32.3,32.2,32.3,32.1,32.3L55.9,32.3L47.4,43.2L47.3,43.2L40.8,43.2L40.7,43.2L32.1,32.3ZM46.7,46.1L46.7,52.7L41.5,52.7L41.5,46.1L46.7,46.1ZM55.6,122.1L12.4,122.1L12.4,62.4L55.6,62.4L55.6,122.1ZM57.9,55.7L57.9,59.4L57.9,59.5C23.8,59.5,14,59.5,11.5,59.5C11.1,59.5,10.9,59.5,10.9,59.5C10.9,59.5,10.8,59.5,10.8,59.5L10.5,59.5L10.5,59.4L10.4,59.4L10.4,55.7L10.4,55.6L57.9,55.6L57.9,55.7ZM65.1,122L58.6,122L58.6,111.2L65.1,111.2L65.1,122ZM71.7,111.3L71.7,122L71.7,122.1L68,122.1L68,122L68,111.3L68,111.2L71.7,111.3L71.7,111.3ZM90.2,122L74.6,122L74.6,111.2L90.2,111.2L90.2,122ZM96.8,111.3L96.8,122L96.8,122.1L93.1,122.1L93.1,122L93.1,111.3L93.1,111.2L96.8,111.3L96.8,111.3ZM115.3,122L99.7,122L99.7,111.2L115.3,111.2L115.3,122ZM121.9,111.3L121.9,122L121.9,122.1L118.2,122.1L118.2,122L118.2,111.3L118.2,111.2L121.9,111.3L121.9,111.3ZM58.5,108.4C58.5,108.4,58.5,108.4,58.5,108.4C58.5,108.4,58.5,108.4,58.5,108.4L58.5,108.2L58.5,92.8L58.5,92.7L134.3,92.7C138.6,92.7,142.1,96.2,142.1,100.5C142.1,100.5,142.1,100.5,142.1,100.5C142.1,100.5,142.1,100.5,142.1,100.5C142.1,104.8,138.6,108.3,134.3,108.3C132.7,108.4,59.8,108.4,58.5,108.4Z" fill="rgb(0,0,0)" stroke="none" stroke-width="1"/><path id="e8P1hVAKlJY57" d="M142.1,100.5C142.1,100.5,142.1,100.5,142.1,100.5C142.1,96.2,138.6,92.7,134.3,92.7L58.5,92.7L58.5,92.8L134.3,92.8C138.6,92.8,142.1,96.3,142.1,100.5Z" fill="rgb(0,0,0)" stroke="none" stroke-width="1"/><polygon id="e8P1hVAKlJY58" points="47.4,43.2 55.9,32.3 47.3,43.2" fill="rgb(0,0,0)" stroke="none" stroke-width="1"/><path id="e8P1hVAKlJY59" d="M50.4,29.2C59.8,29.2,60.8,29.3,60.7,29.3C60.7,29.3,60.7,29.3,60.7,29.3C60.6,29.3,59.2,29.2,50.4,29.2Z" fill="rgb(0,0,0)" stroke="none" stroke-width="1"/><rect id="e8P1hVAKlJY60" width="3.7" height="0.1" rx="0" ry="0" transform="matrix(1 0 0 1 118.2 111.2)" fill="rgb(0,0,0)" stroke="none" stroke-width="1"/><rect id="e8P1hVAKlJY61" width="3.7" height="0.1" rx="0" ry="0" transform="matrix(1 0 0 1 68 111.2)" fill="rgb(0,0,0)" stroke="none" stroke-width="1"/><rect id="e8P1hVAKlJY62" width="3.7" height="0.1" rx="0" ry="0" transform="matrix(1 0 0 1 93.1 111.2)" fill="rgb(0,0,0)" stroke="none" stroke-width="1"/><rect id="e8P1hVAKlJY63" width="0.1" height="3.7" rx="0" ry="0" transform="matrix(1 0 0 1 10.4 55.7)" fill="rgb(0,0,0)" stroke="none" stroke-width="1"/><polygon id="e8P1hVAKlJY64" points="10.4,55.7 10.5,55.7 57.9,55.7 57.9,55.6 10.4,55.6" fill="rgb(0,0,0)" stroke="none" stroke-width="1"/><path id="e8P1hVAKlJY65" d="M18.2,85.5L49.7,85.5C50.5,85.5,51.2,84.8,51.2,84L51.2,68.1C51.2,67.3,50.5,66.6,49.7,66.6L18.2,66.6C17.4,66.6,16.7,67.3,16.7,68.1L16.7,84C16.7,84.8,17.4,85.5,18.2,85.5ZM19.6,69.6L48.2,69.6L48.2,82.5L19.6,82.5L19.6,69.6Z" fill="rgb(0,0,0)" stroke="none" stroke-width="1"/><path id="e8P1hVAKlJY66" d="M46.2,102L22,102C20.4,102,19,103.3,19,105L19,112.2C19,113.9,20.4,115.2,22,115.2L46.2,115.2C47.9,115.2,49.2,113.8,49.2,112.2L49.2,105C49.2,103.3,47.8,102,46.2,102ZM46.2,104.9L46.2,112.2L22,112.2L22,104.9L22,104.9L46.2,104.9L46.2,104.9Z" fill="rgb(0,0,0)" stroke="none" stroke-width="1"/><path id="e8P1hVAKlJY67" d="M46.2,115.2L22,115.2C20.4,115.2,19,113.9,19,112.2L19,112.3C19,113.9,20.3,115.3,22,115.3L46.2,115.2C47.8,115.3,49.2,114,49.2,112.3L49.2,112.2C49.2,113.8,47.9,115.2,46.2,115.2Z" fill="rgb(0,0,0)" stroke="none" stroke-width="1"/><path id="e8P1hVAKlJY68" d="M26.4,110L41.8,110C42.6,110,43.2,109.4,43.2,108.5C43.2,107.7,42.6,107.1,41.8,107.1L26.4,107.1C25.6,107.1,24.9,107.8,24.9,108.6C24.9,109.3,25.6,110,26.4,110Z" fill="rgb(0,0,0)" stroke="none" stroke-width="1"/><path id="e8P1hVAKlJY69" d="M26.4,110.1L41.7,110.1C42.5,110.1,43.2,109.4,43.2,108.6C43.2,108.6,43.2,108.6,43.2,108.5C43.2,109.4,42.6,110,41.8,110L26.4,110.1C25.6,110,24.9,109.3,24.9,108.6C24.9,108.6,24.9,108.6,24.9,108.6C24.9,109.4,25.6,110.1,26.4,110.1Z" fill="rgb(0,0,0)" stroke="none" stroke-width="1"/><path id="e8P1hVAKlJY70" d="M70.8,96.1C68.4,96.1,66.4,98.1,66.4,100.5C66.4,102.9,68.4,104.9,70.8,104.9C73.2,104.9,75.2,102.9,75.2,100.5C75.2,98.1,73.2,96.1,70.8,96.1ZM71.7,101.6C71.6,101.7,71.5,101.7,71.5,101.8C71.5,101.8,71.4,101.8,71.4,101.9C71.2,102,71.1,102,70.9,102C70.7,102,70.6,102,70.4,101.9C70.3,101.9,70.3,101.9,70.3,101.8C70.2,101.8,70.1,101.7,70.1,101.6C70,101.5,70,101.5,69.9,101.4C69.8,101.3,69.8,101.2,69.7,101.2C69.7,101.2,69.7,101.1,69.6,101.1C69.5,100.9,69.5,100.8,69.5,100.6C69.4,99.8,70.1,99.2,70.9,99.2C71.1,99.2,71.2,99.2,71.4,99.3C71.5,99.3,71.5,99.3,71.5,99.4C71.6,99.4,71.7,99.5,71.7,99.6C71.8,99.7,71.8,99.7,71.9,99.8C72,99.9,72,100,72.1,100C72.1,100,72.1,100.1,72.2,100.1C72.3,100.3,72.3,100.4,72.3,100.6C72.3,100.8,72.3,100.9,72.2,101.1C72.2,101.2,72.2,101.2,72.1,101.2C72.1,101.3,72,101.4,71.9,101.4C71.8,101.5,71.8,101.5,71.7,101.6Z" fill="rgb(0,0,0)" stroke="none" stroke-width="1"/><path id="e8P1hVAKlJY71" d="M66.4,100.5C66.4,103,68.4,104.9,70.8,104.9C68.4,104.9,66.4,102.9,66.4,100.5Z" fill="rgb(0,0,0)" stroke="none" stroke-width="1"/><path id="e8P1hVAKlJY72" d="M71.9,99.6C72,99.7,72,99.8,72.1,99.8C72,99.8,71.9,99.7,71.9,99.6Z" fill="rgb(0,0,0)" stroke="none" stroke-width="1"/><path id="e8P1hVAKlJY73" d="M72.2,100.5C72.2,100.7,72.2,100.8,72.1,101C72.2,100.8,72.2,100.7,72.2,100.5Z" fill="rgb(0,0,0)" stroke="none" stroke-width="1"/><path id="e8P1hVAKlJY74" d="M71.4,99.3C71.5,99.3,71.6,99.4,71.6,99.5C71.6,99.4,71.5,99.3,71.4,99.3Z" fill="rgb(0,0,0)" stroke="none" stroke-width="1"/><path id="e8P1hVAKlJY75" d="M71.3,101.8C71.1,101.9,71,101.9,70.8,101.9C71,101.9,71.1,101.9,71.3,101.8Z" fill="rgb(0,0,0)" stroke="none" stroke-width="1"/><path id="e8P1hVAKlJY76" d="M72.1,100C72.2,100.2,72.2,100.3,72.2,100.5C72.2,100.3,72.2,100.2,72.1,100Z" fill="rgb(0,0,0)" stroke="none" stroke-width="1"/><path id="e8P1hVAKlJY77" d="M70.8,99.1C71,99.1,71.1,99.1,71.3,99.2C71.1,99.1,71,99.1,70.8,99.1Z" fill="rgb(0,0,0)" stroke="none" stroke-width="1"/><path id="e8P1hVAKlJY78" d="M71.7,101.6C71.6,101.7,71.5,101.7,71.5,101.8C71.5,101.7,71.6,101.6,71.7,101.6Z" fill="rgb(0,0,0)" stroke="none" stroke-width="1"/><path id="e8P1hVAKlJY79" d="M70.2,101.7C70.1,101.7,70,101.6,70,101.5C70,101.6,70.1,101.7,70.2,101.7Z" fill="rgb(0,0,0)" stroke="none" stroke-width="1"/><path id="e8P1hVAKlJY80" d="M70.8,101.9C70.6,101.9,70.5,101.9,70.3,101.8C70.5,101.9,70.6,101.9,70.8,101.9Z" fill="rgb(0,0,0)" stroke="none" stroke-width="1"/><path id="e8P1hVAKlJY81" d="M69.7,101.4C69.6,101.3,69.6,101.2,69.5,101.2C69.6,101.2,69.7,101.3,69.7,101.4Z" fill="rgb(0,0,0)" stroke="none" stroke-width="1"/><path id="e8P1hVAKlJY82" d="M69.5,101C69.4,100.8,69.4,100.7,69.4,100.5C69.4,100.7,69.4,100.8,69.5,101Z" fill="rgb(0,0,0)" stroke="none" stroke-width="1"/><path id="e8P1hVAKlJY83" d="M71.9,101.4C72,101.3,72,101.2,72.1,101.2C72,101.2,71.9,101.3,71.9,101.4Z" fill="rgb(0,0,0)" stroke="none" stroke-width="1"/><path id="e8P1hVAKlJY84" d="M98.2,96.1C95.8,96.1,93.8,98.1,93.8,100.5C93.8,102.9,95.8,104.9,98.2,104.9C100.6,104.9,102.6,102.9,102.6,100.5C102.6,98.1,100.6,96.1,98.2,96.1ZM98.2,101.9C97.4,101.9,96.8,101.3,96.8,100.5C96.8,99.7,97.4,99.1,98.2,99.1C99,99.1,99.6,99.7,99.6,100.5C99.6,101.3,99,101.9,98.2,101.9Z" fill="rgb(0,0,0)" stroke="none" stroke-width="1"/><path id="e8P1hVAKlJY85" d="M93.8,100.5C93.8,103,95.8,104.9,98.2,104.9C95.8,104.9,93.8,102.9,93.8,100.5Z" fill="rgb(0,0,0)" stroke="none" stroke-width="1"/><path id="e8P1hVAKlJY86" d="M125.7,96.1C123.3,96.1,121.3,98.1,121.3,100.5C121.3,102.9,123.3,104.9,125.7,104.9C128.1,104.9,130.1,102.9,130.1,100.5C130.1,98.1,128.1,96.1,125.7,96.1ZM125.7,101.9C124.9,101.9,124.3,101.3,124.3,100.5C124.2,99.7,124.9,99.1,125.7,99.1C126.5,99.1,127.1,99.7,127.1,100.5C127.1,101.3,126.5,101.9,125.7,101.9Z" fill="rgb(0,0,0)" stroke="none" stroke-width="1"/><path id="e8P1hVAKlJY87" d="M121.3,100.5C121.3,103,123.3,104.9,125.7,104.9C123.3,104.9,121.3,102.9,121.3,100.5Z" fill="rgb(0,0,0)" stroke="none" stroke-width="1"/><path id="e8P1hVAKlJY88" d="M18.8,96.1C20.1,96.1,21.2,95,21.2,93.7C21.2,92.4,20.1,91.3,18.8,91.3C17.5,91.3,16.4,92.4,16.4,93.7C16.4,95,17.5,96.1,18.8,96.1Z" fill="rgb(0,0,0)" stroke="none" stroke-width="1"/><path id="e8P1hVAKlJY89" d="M18.8,91.3C17.5,91.3,16.4,92.4,16.4,93.7C16.4,92.4,17.5,91.3,18.8,91.3Z" fill="rgb(0,0,0)" stroke="none" stroke-width="1"/><path id="e8P1hVAKlJY90" d="M18.8,96.1C17.5,96.1,16.4,95,16.4,93.7C16.4,95,17.5,96.1,18.8,96.1Z" fill="rgb(0,0,0)" stroke="none" stroke-width="1"/><path id="e8P1hVAKlJY91" d="M18.8,96.1C20.1,96.1,21.2,95,21.2,93.7C21.2,95,20.1,96.1,18.8,96.1Z" fill="rgb(0,0,0)" stroke="none" stroke-width="1"/><path id="e8P1hVAKlJY92" d="M21.2,93.7C21.2,92.4,20.1,91.3,18.8,91.3C20.1,91.3,21.2,92.4,21.2,93.7Z" fill="rgb(0,0,0)" stroke="none" stroke-width="1"/><path id="e8P1hVAKlJY93" d="M22.7,93.7C22.7,95,23.7,96,25.1,96.1C26.4,96.1,27.4,95,27.4,93.7C27.4,92.4,26.3,91.3,25,91.3C23.8,91.3,22.7,92.4,22.7,93.7Z" fill="rgb(0,0,0)" stroke="none" stroke-width="1"/><path id="e8P1hVAKlJY94" d="M25.1,96.1C23.7,96,22.7,95,22.7,93.7C22.7,92.4,23.8,91.3,25,91.3C25,91.3,25,91.3,25,91.3C23.7,91.3,22.6,92.4,22.6,93.7C22.6,95,23.7,96.1,25.1,96.1C25,96.1,25,96.1,25.1,96.1Z" fill="rgb(0,0,0)" stroke="none" stroke-width="1"/><path id="e8P1hVAKlJY95" d="M31.3,96.1C32.6,96.1,33.7,95,33.7,93.7C33.7,92.4,32.6,91.3,31.3,91.3C30,91.3,28.9,92.4,28.9,93.7C28.9,95,30,96,31.3,96.1Z" fill="rgb(0,0,0)" stroke="none" stroke-width="1"/><path id="e8P1hVAKlJY96" d="M28.9,93.7C28.9,95,30,96.1,31.3,96.1C30,96,28.9,95,28.9,93.7Z" fill="rgb(0,0,0)" stroke="none" stroke-width="1"/><path id="e8P1hVAKlJY97" d="M31.3,91.3C30,91.3,28.9,92.4,28.9,93.7C28.9,92.4,30,91.3,31.3,91.3Z" fill="rgb(0,0,0)" stroke="none" stroke-width="1"/><path id="e8P1hVAKlJY98" d="M31.3,96.1C32.6,96.1,33.7,95,33.7,93.7C33.7,95,32.6,96.1,31.3,96.1Z" fill="rgb(0,0,0)" stroke="none" stroke-width="1"/><path id="e8P1hVAKlJY99" d="M33.7,93.7C33.7,92.4,32.6,91.3,31.3,91.3C32.6,91.3,33.7,92.4,33.7,93.7Z" fill="rgb(0,0,0)" stroke="none" stroke-width="1"/><path id="e8P1hVAKlJY100" d="M66.8,89.3C66.9,89.4,67,89.5,67.1,89.6L67.5,89.6C67.2,89.6,67,89.5,66.8,89.3Z" fill="rgb(221,179,122)" stroke="none" stroke-width="1"/></g><rect id="e8P1hVAKlJY101" width="28.6" height="12.9" rx="0" ry="0" transform="matrix(1 0 0 1 19.6 69.6)" opacity="0" fill="rgb(255,255,255)" stroke="none" stroke-width="1"/></svg>