<?xml version="1.0" encoding="utf-8"?>
<!-- Generator: Adobe Illustrator 24.2.0, SVG Export Plug-In . SVG Version: 6.00 Build 0)  -->
<svg version="1.1" id="圖層_1" xmlns="http://www.w3.org/2000/svg" xmlns:xlink="http://www.w3.org/1999/xlink" x="0px" y="0px"
	 viewBox="0 0 100 100" style="enable-background:new 0 0 100 100;" xml:space="preserve">
<style type="text/css">
	.st0{fill-rule:evenodd;clip-rule:evenodd;fill:#FFFFFF;}
</style>
<g id="gps_4_">
	<g>
		<path class="st0" d="M50,0C29.1,0,12.2,16.9,12.2,37.8c0,17.1,25.3,49.4,34.6,60.5c1.8,2.2,4.8,2.2,6.6,0
			c9.2-11.2,34.5-43.4,34.5-60.5C87.8,16.9,70.9,0,50,0z M50,52.2c-8.5,0-15.3-6.9-15.3-15.3c0-8.5,6.9-15.3,15.3-15.3
			c8.5,0,15.3,6.9,15.3,15.3C65.3,45.3,58.5,52.2,50,52.2z"/>
	</g>
</g>
</svg>
