<?xml version="1.0" encoding="utf-8"?>
<!-- Generator: Adobe Illustrator 24.2.0, SVG Export Plug-In . SVG Version: 6.00 Build 0)  -->
<svg version="1.1" id="圖層_1" xmlns="http://www.w3.org/2000/svg" xmlns:xlink="http://www.w3.org/1999/xlink" x="0px" y="0px"
	 viewBox="0 0 100 100" style="enable-background:new 0 0 100 100;" xml:space="preserve">
<style type="text/css">
	.st0{fill:#FFFFFF;}
</style>
<g>
	<path class="st0" d="M69.5,12.7H30.5C13.7,12.7,0,26.4,0,43.2c0,16.8,13.7,30.5,30.5,30.5h48.4l14.7,12.6c0.7,0.6,1.6,0.9,2.5,0.9
		c0.6,0,1.1-0.1,1.6-0.4c1.4-0.6,2.3-2,2.3-3.5V43.2C100,26.4,86.3,12.7,69.5,12.7z M30.5,20.5h38.9c12.6,0,22.8,10.2,22.8,22.8V75
		l-9.3-8c-0.7-0.6-1.6-0.9-2.5-0.9H30.5C18,66,7.8,55.8,7.8,43.2C7.8,30.7,18,20.5,30.5,20.5z"/>
	<g>
		<path class="st0" d="M35.3,44.6c0,2.4-1.9,4.4-4.4,4.4c-2.4,0-4.3-2-4.3-4.4c0-2.4,1.9-4.3,4.3-4.3C33.3,40.3,35.3,42.2,35.3,44.6
			z"/>
	</g>
	<g>
		<path class="st0" d="M53.1,44.6c0,2.4-1.9,4.4-4.3,4.4c-2.4,0-4.4-2-4.4-4.4c0-2.4,1.9-4.3,4.4-4.3C51.2,40.3,53.1,42.2,53.1,44.6
			z"/>
	</g>
	<g>
		<path class="st0" d="M70.9,44.6c0,2.4-2,4.4-4.4,4.4c-2.4,0-4.4-2-4.4-4.4c0-2.4,1.9-4.3,4.4-4.3C69,40.3,70.9,42.2,70.9,44.6z"/>
	</g>
</g>
</svg>
