<?xml version="1.0" encoding="utf-8"?>
<!-- Generator: Adobe Illustrator 24.2.0, SVG Export Plug-In . SVG Version: 6.00 Build 0)  -->
<svg version="1.1" id="圖層_1" xmlns="http://www.w3.org/2000/svg" xmlns:xlink="http://www.w3.org/1999/xlink" x="0px" y="0px"
	 viewBox="0 0 100 100" style="enable-background:new 0 0 100 100;" xml:space="preserve">
<style type="text/css">
	.st0{fill:#FFFFFF;}
</style>
<g>
	<g>
		<path class="st0" d="M58.3,99.5c-3.1,0-5.1-2-6.5-3.4c-1.6-1.6-3-3-4.4-4.4c-3.4-3.4-6.9-6.9-10.3-10.5c-1.8-1.9-3-4.9-3.1-7.5
			C34,68.6,34,63.5,34,58.4c0-4.2,0-8.5-0.1-12.7c0-0.5-0.4-1.4-0.7-1.7C25,35.6,16.7,27.3,8.3,19l-4.5-4.5
			c-1.6-1.6-4.6-4.6-2.7-9.2c2-4.8,6.6-4.8,8.5-4.8c7,0,13.9,0,20.9,0l19.4,0l19,0c7,0,14.1,0,21.1,0c2.3-0.1,6.7,0,8.7,4.6
			c2.1,4.8-1.3,8.1-2.7,9.5c-4.3,4.2-8.5,8.5-12.7,12.7c-5.5,5.5-11,11-16.5,16.5c-0.7,0.7-0.9,1.2-0.9,2.2c0.1,10.2,0,20.4,0,30.6
			v13.4c0,2.5,0,6.7-4.6,8.7C60.3,99.3,59.3,99.5,58.3,99.5z M9.8,7.5c-2,0-2.1,0.1-2.2,0.5c0,0.5,0.7,1.2,1.2,1.6l4.5,4.5
			c8.3,8.3,16.7,16.7,24.9,25.1c1.6,1.6,2.6,4.1,2.7,6.5c0.1,4.3,0.1,8.5,0.1,12.8c0,5,0,10.1,0.1,15.1c0,0.9,0.6,2.2,1.2,2.9
			c3.2,3.5,6.7,6.9,10.1,10.3c1.4,1.4,2.8,2.8,4.3,4.2c0.6,0.6,1.4,1.5,1.8,1.6c0,0,0.1,0,0.3-0.1c0.2-0.1,0.3-0.1,0.3-0.1
			c0.1-0.2,0.1-1.3,0.1-2V76.7c0-10.2,0-20.4,0-30.6c0-2.9,0.9-5.1,3-7.1c5.5-5.5,11-11,16.5-16.5C82.7,18.3,87,14,91.2,9.8
			c1.1-1.1,1.3-1.5,1.3-1.6l0,0c0,0,0-0.1-0.1-0.3c-0.1-0.2-0.1-0.2-0.1-0.2c-0.2-0.1-0.9-0.2-2.1-0.2c-7.2,0-14.2,0-21.3,0l-19,0
			l-19.4,0C23.6,7.5,16.7,7.5,9.8,7.5L9.8,7.5z"/>
	</g>
	<g>
		<rect x="13.6" y="17.4" class="st0" width="71.4" height="4.1"/>
	</g>
</g>
</svg>
