<?xml version="1.0" encoding="utf-8"?>
<!-- Generator: Adobe Illustrator 24.2.1, SVG Export Plug-In . SVG Version: 6.00 Build 0)  -->
<svg version="1.1" id="圖層_1" xmlns="http://www.w3.org/2000/svg" xmlns:xlink="http://www.w3.org/1999/xlink" x="0px" y="0px"
	 viewBox="0 0 50 50" style="enable-background:new 0 0 50 50;" xml:space="preserve">
<style type="text/css">
	.st0{fill:#FFFFFF;}
</style>
<path class="st0" d="M48.3,28v20H29.8V32.2c0-8.5,1-14.7,3.1-18.6c2.7-5.1,6.9-9,12.7-11.6l4.2,6.7c-3.5,1.5-6.1,3.7-7.7,6.6
	c-1.7,2.9-2.6,7.1-2.8,12.7H48.3z"/>
<path class="st0" d="M18.6,28v20H0.2V32.2c0-8.5,1-14.7,3.1-18.6C5.9,8.5,10.2,4.7,16,2l4.2,6.7c-3.5,1.5-6.1,3.7-7.8,6.6
	c-1.7,2.9-2.6,7.1-2.8,12.7H18.6z"/>
</svg>
